<?xml version="1.0" encoding="UTF-8"?> <svg xmlns="http://www.w3.org/2000/svg" width="577" height="577" viewBox="0 0 577 577" fill="none"><rect width="577" height="577" fill="white"></rect><path d="M304 289C300.242 289 296.569 290.114 293.444 292.202C290.32 294.29 287.884 297.257 286.446 300.729C285.008 304.201 284.632 308.021 285.365 311.707C286.098 315.392 287.908 318.778 290.565 321.435C293.222 324.092 296.608 325.902 300.293 326.635C303.979 327.368 307.799 326.992 311.271 325.554C314.743 324.116 317.71 321.68 319.798 318.556C321.886 315.431 323 311.758 323 308C323 302.961 320.998 298.128 317.435 294.565C313.872 291.002 309.039 289 304 289V289ZM320.286 306.643H312.143C311.984 301.645 310.69 296.748 308.356 292.325C311.571 293.204 314.438 295.049 316.571 297.609C318.705 300.169 320.001 303.322 320.286 306.643V306.643ZM304 324.286C303.697 324.306 303.393 324.306 303.091 324.286C300.279 319.802 298.719 314.647 298.571 309.357H309.429C309.294 314.644 307.747 319.798 304.95 324.286C304.634 324.308 304.316 324.308 304 324.286ZM298.571 306.643C298.706 301.356 300.253 296.202 303.05 291.714C303.654 291.646 304.264 291.646 304.869 291.714C307.695 296.194 309.269 301.349 309.429 306.643H298.571ZM299.603 292.325C297.284 296.752 296.003 301.648 295.857 306.643H287.714C287.999 303.322 289.295 300.169 291.429 297.609C293.562 295.049 296.429 293.204 299.644 292.325H299.603ZM287.782 309.357H295.925C296.067 314.351 297.343 319.247 299.657 323.675C296.453 322.786 293.597 320.938 291.474 318.378C289.351 315.819 288.063 312.671 287.782 309.357V309.357ZM308.356 323.675C310.69 319.252 311.984 314.355 312.143 309.357H320.286C320.001 312.678 318.705 315.831 316.571 318.391C314.438 320.951 311.571 322.796 308.356 323.675Z" fill="#CA7228"></path><path d="M266 253C267.657 253 269 251.657 269 250C269 248.343 267.657 247 266 247C264.343 247 263 248.343 263 250C263 251.657 264.343 253 266 253Z" fill="#CA7228"></path><path d="M266 276C267.657 276 269 274.657 269 273C269 271.343 267.657 270 266 270C264.343 270 263 271.343 263 273C263 274.657 264.343 276 266 276Z" fill="#CA7228"></path><path d="M266 297C267.657 297 269 295.657 269 294C269 292.343 267.657 291 266 291C264.343 291 263 292.343 263 294C263 295.657 264.343 297 266 297Z" fill="#CA7228"></path><path d="M281.5 306H256V284M256 284V240H307V284H256Z" stroke="#CA7228" stroke-width="3" stroke-linejoin="round"></path><path d="M256 262H307" stroke="#CA7228" stroke-width="3" stroke-linejoin="round"></path><path d="M499.263 173.167L493.766 178.566L492.834 179.5H472.214V204.833H510.786V173.167H499.263ZM499.263 170H510.786C511.638 170 512.456 170.334 513.059 170.927C513.661 171.521 514 172.327 514 173.167V204.833C514 205.673 513.661 206.479 513.059 207.073C512.456 207.666 511.638 208 510.786 208H472.214C471.362 208 470.544 207.666 469.941 207.073C469.339 206.479 469 205.673 469 204.833V179.5C469 178.66 469.339 177.855 469.941 177.261C470.544 176.667 471.362 176.333 472.214 176.333H491.5L496.98 170.934C497.279 170.638 497.635 170.403 498.027 170.242C498.418 170.082 498.838 170 499.263 170V170Z" fill="#475715"></path><path d="M450 137C451.657 137 453 135.657 453 134C453 132.343 451.657 131 450 131C448.343 131 447 132.343 447 134C447 135.657 448.343 137 450 137Z" fill="#475715"></path><path d="M450 160C451.657 160 453 158.657 453 157C453 155.343 451.657 154 450 154C448.343 154 447 155.343 447 157C447 158.657 448.343 160 450 160Z" fill="#475715"></path><path d="M450 181C451.657 181 453 179.657 453 178C453 176.343 451.657 175 450 175C448.343 175 447 176.343 447 178C447 179.657 448.343 181 450 181Z" fill="#475715"></path><path d="M465.5 190H440V168M440 168V124H491V168H440Z" stroke="#475715" stroke-width="3" stroke-linejoin="round"></path><path d="M440 146H491" stroke="#475715" stroke-width="3" stroke-linejoin="round"></path><path d="M486.5 410C484.392 409.999 482.313 410.493 480.43 411.44C478.547 412.388 476.912 413.763 475.656 415.457C474.4 417.15 473.559 419.114 473.198 421.191C472.838 423.268 472.97 425.401 473.582 427.418L458 443V452H467L482.582 436.418C484.439 436.981 486.396 437.138 488.319 436.878C490.242 436.617 492.086 435.944 493.725 434.906C495.365 433.868 496.762 432.489 497.82 430.862C498.878 429.236 499.574 427.4 499.858 425.48C500.143 423.561 500.01 421.602 499.47 419.739C498.929 417.875 497.993 416.15 496.725 414.68C495.457 413.211 493.888 412.033 492.123 411.225C490.359 410.417 488.441 409.999 486.5 410V410ZM486.5 434C485.467 433.999 484.44 433.847 483.452 433.547L481.731 433.025L480.461 434.296L475.689 439.068L473.621 437L471.5 439.121L473.568 441.189L471.189 443.568L469.121 441.5L467 443.621L469.068 445.689L465.757 449H461V444.243L475.703 429.539L476.974 428.268L476.453 426.548C475.812 424.434 475.854 422.173 476.572 420.084C477.291 417.996 478.65 416.187 480.455 414.915C482.261 413.643 484.422 412.974 486.63 413.001C488.839 413.028 490.983 413.751 492.756 415.067C494.53 416.382 495.844 418.224 496.511 420.33C497.178 422.435 497.164 424.697 496.471 426.794C495.778 428.892 494.441 430.717 492.651 432.01C490.861 433.304 488.709 434 486.5 434V434Z" fill="#CDA113"></path><path d="M488 425C489.657 425 491 423.657 491 422C491 420.343 489.657 419 488 419C486.343 419 485 420.343 485 422C485 423.657 486.343 425 488 425Z" fill="#CDA113"></path><path d="M450 372C451.657 372 453 370.657 453 369C453 367.343 451.657 366 450 366C448.343 366 447 367.343 447 369C447 370.657 448.343 372 450 372Z" fill="#CDA113"></path><path d="M450 395C451.657 395 453 393.657 453 392C453 390.343 451.657 389 450 389C448.343 389 447 390.343 447 392C447 393.657 448.343 395 450 395Z" fill="#CDA113"></path><path d="M450 416C451.657 416 453 414.657 453 413C453 411.343 451.657 410 450 410C448.343 410 447 411.343 447 413C447 414.657 448.343 416 450 416Z" fill="#CDA113"></path><path d="M465.5 425H440V403M440 403V359H491V403H440Z" stroke="#CDA113" stroke-width="3" stroke-linejoin="round"></path><path d="M440 381H491" stroke="#CDA113" stroke-width="3" stroke-linejoin="round"></path><path d="M220 262L218.333 263.667L227.333 272.833H148.5V275.167H227.333L218.333 284.333L220 286L232 274L220 262Z" fill="black"></path><path d="M397.218 192.526L396.303 194.699L408.096 199.793L335.086 229.53L335.967 231.691L408.976 201.954L404.099 213.839L406.271 214.754L412.858 199.114L397.218 192.526Z" fill="black"></path><path d="M397.218 357.197L396.303 355.025L408.096 349.93L335.086 320.194L335.967 318.033L408.976 347.769L404.099 335.885L406.271 334.97L412.858 350.61L397.218 357.197Z" fill="black"></path><path d="M477 247L475.333 248.667L466.167 239.667L466.167 318.5L463.833 318.5L463.833 239.667L454.667 248.667L453 247L465 235L477 247Z" fill="black"></path><path d="M72 301V297C72 292.582 75.5817 289 80 289H100C104.418 289 108 292.582 108 297V301" stroke="#4995CD" stroke-width="3"></path><circle cx="90" cy="277" r="30.5" stroke="#4995CD" stroke-width="3"></circle><circle cx="90" cy="270" r="10.5" stroke="#4995CD" stroke-width="3"></circle><path d="M47.0461 186H49.5061V181.12H52.5861L56.0261 186H58.9461L55.1661 180.7C57.1061 180.14 58.4861 178.76 58.4861 176.46V176.42C58.4861 175.2 58.0661 174.18 57.3261 173.4C56.4261 172.52 55.0461 172 53.2861 172H47.0461V186ZM49.5061 178.94V174.24H53.0861C54.9261 174.24 55.9861 175.04 55.9861 176.56V176.6C55.9861 178.04 54.8661 178.94 53.1061 178.94H49.5061ZM65.3639 186.24C67.3039 186.24 68.6639 185.46 69.6839 184.26L68.2639 183C67.4039 183.82 66.6039 184.26 65.4039 184.26C63.8239 184.26 62.6239 183.32 62.3639 181.58H70.1239C70.1439 181.34 70.1639 181.12 70.1639 180.9C70.1639 177.86 68.4639 175.22 65.1039 175.22C62.0839 175.22 59.9439 177.68 59.9439 180.72V180.76C59.9439 184.02 62.3239 186.24 65.3639 186.24ZM62.3439 179.98C62.5639 178.32 63.5839 177.2 65.0839 177.2C66.6839 177.2 67.6039 178.44 67.7639 179.98H62.3439ZM75.7142 186.2C77.9142 186.2 79.6342 185.1 79.6342 182.88V182.84C79.6342 180.94 77.8742 180.24 76.3542 179.76C75.1142 179.38 73.9742 179.02 73.9742 178.26V178.22C73.9742 177.64 74.5142 177.18 75.4542 177.18C76.3342 177.18 77.4142 177.56 78.4342 178.18L79.3942 176.46C78.2742 175.72 76.8542 175.26 75.5142 175.26C73.4142 175.26 71.7542 176.48 71.7542 178.5V178.54C71.7542 180.54 73.5142 181.2 75.0542 181.62C76.2942 182 77.4142 182.3 77.4142 183.1V183.14C77.4142 183.84 76.8142 184.28 75.7742 184.28C74.6742 184.28 73.4942 183.84 72.3142 182.98L71.2342 184.62C72.5742 185.68 74.1942 186.2 75.7142 186.2ZM86.6338 186.24C89.8938 186.24 92.2938 183.72 92.2938 180.74V180.7C92.2938 177.68 89.9338 175.22 86.6738 175.22C83.4338 175.22 81.0338 177.72 81.0338 180.74V180.78C81.0338 183.78 83.4138 186.24 86.6338 186.24ZM86.6738 184.12C84.8138 184.12 83.4538 182.58 83.4538 180.74V180.7C83.4538 178.86 84.6938 177.34 86.6338 177.34C88.5338 177.34 89.8738 178.88 89.8738 180.74V180.78C89.8738 182.6 88.6538 184.12 86.6738 184.12ZM97.8983 186.22C99.5183 186.22 100.498 185.38 101.198 184.36V186H103.638V175.44H101.198V181.4C101.198 183.06 100.238 184 98.8183 184C97.3783 184 96.5583 183.1 96.5583 181.44V175.44H94.1383V182.16C94.1383 184.64 95.4983 186.22 97.8983 186.22ZM106.141 186H108.581V181.98C108.581 179.18 110.041 177.8 112.181 177.8H112.321V175.24C110.461 175.16 109.241 176.22 108.581 177.82V175.44H106.141V186ZM118.451 186.24C120.511 186.24 121.731 185.44 122.771 184.26L121.311 182.82C120.531 183.6 119.711 184.12 118.571 184.12C116.711 184.12 115.411 182.62 115.411 180.74V180.7C115.411 178.86 116.711 177.34 118.471 177.34C119.671 177.34 120.451 177.88 121.191 178.66L122.711 177.04C121.691 175.96 120.471 175.22 118.491 175.22C115.311 175.22 112.991 177.74 112.991 180.74V180.78C112.991 183.78 115.311 186.24 118.451 186.24ZM129.044 186.24C130.984 186.24 132.344 185.46 133.364 184.26L131.944 183C131.084 183.82 130.284 184.26 129.084 184.26C127.504 184.26 126.304 183.32 126.044 181.58H133.804C133.824 181.34 133.844 181.12 133.844 180.9C133.844 177.86 132.144 175.22 128.784 175.22C125.764 175.22 123.624 177.68 123.624 180.72V180.76C123.624 184.02 126.004 186.24 129.044 186.24ZM126.024 179.98C126.244 178.32 127.264 177.2 128.764 177.2C130.364 177.2 131.284 178.44 131.444 179.98H126.024ZM66.0034 210.24C70.3034 210.24 73.3434 206.92 73.3434 203V202.96C73.3434 199.02 70.3434 195.76 66.0434 195.76C61.7434 195.76 58.7034 199.08 58.7034 203V203.04C58.7034 206.98 61.7034 210.24 66.0034 210.24ZM66.0434 207.96C63.2434 207.96 61.2834 205.72 61.2834 203V202.96C61.2834 200.24 63.2234 198.04 66.0034 198.04C68.8034 198.04 70.7634 200.28 70.7634 203V203.04C70.7634 205.76 68.8234 207.96 66.0434 207.96ZM78.0756 210.08H80.2356L82.6156 202.86L84.9756 210.08H87.1556L90.6156 199.44H88.1756L86.0156 206.68L83.6756 199.4H81.5956L79.2556 206.68L77.1356 199.44H74.6356L78.0756 210.08ZM92.2422 210H94.6822V204.04C94.6822 202.38 95.6422 201.42 97.0622 201.42C98.5022 201.42 99.3222 202.34 99.3222 204V210H101.742V203.26C101.742 200.8 100.382 199.22 97.9822 199.22C96.3222 199.22 95.3822 200.08 94.6822 201.06V199.44H92.2422V210ZM109.005 210.24C110.945 210.24 112.305 209.46 113.325 208.26L111.905 207C111.045 207.82 110.245 208.26 109.045 208.26C107.465 208.26 106.265 207.32 106.005 205.58H113.765C113.785 205.34 113.805 205.12 113.805 204.9C113.805 201.86 112.105 199.22 108.745 199.22C105.725 199.22 103.585 201.68 103.585 204.72V204.76C103.585 208.02 105.965 210.24 109.005 210.24ZM105.985 203.98C106.205 202.32 107.225 201.2 108.725 201.2C110.325 201.2 111.245 202.44 111.405 203.98H105.985ZM115.715 210H118.155V205.98C118.155 203.18 119.615 201.8 121.755 201.8H121.895V199.24C120.035 199.16 118.815 200.22 118.155 201.82V199.44H115.715V210Z" fill="#4995CD"></path><path d="M261.087 186.24C263.687 186.24 265.347 185.3 266.767 183.76L265.187 182.16C263.987 183.28 262.867 183.96 261.167 183.96C258.487 183.96 256.547 181.74 256.547 179V178.96C256.547 176.22 258.507 174.04 261.147 174.04C262.767 174.04 263.947 174.72 265.087 175.76L266.667 173.94C265.327 172.66 263.767 171.76 261.167 171.76C256.947 171.76 253.967 175.02 253.967 179V179.04C253.967 183.06 257.007 186.24 261.087 186.24ZM268.712 186H271.152V171.4H268.712V186ZM273.855 173.82H276.455V171.52H273.855V173.82ZM273.935 186H276.375V175.44H273.935V186ZM283.878 186.24C285.818 186.24 287.178 185.46 288.198 184.26L286.778 183C285.918 183.82 285.118 184.26 283.918 184.26C282.338 184.26 281.138 183.32 280.878 181.58H288.638C288.658 181.34 288.678 181.12 288.678 180.9C288.678 177.86 286.978 175.22 283.618 175.22C280.598 175.22 278.458 177.68 278.458 180.72V180.76C278.458 184.02 280.838 186.24 283.878 186.24ZM280.858 179.98C281.078 178.32 282.098 177.2 283.598 177.2C285.198 177.2 286.118 178.44 286.278 179.98H280.858ZM290.588 186H293.028V180.04C293.028 178.38 293.988 177.42 295.408 177.42C296.848 177.42 297.668 178.34 297.668 180V186H300.088V179.26C300.088 176.8 298.728 175.22 296.328 175.22C294.668 175.22 293.728 176.08 293.028 177.06V175.44H290.588V186ZM306.05 186.18C306.99 186.18 307.61 185.98 308.23 185.64V183.66C307.75 183.9 307.25 184.02 306.73 184.02C305.91 184.02 305.43 183.64 305.43 182.7V177.52H308.27V175.44H305.43V172.54H303.01V175.44H301.67V177.52H303.01V183.08C303.01 185.4 304.27 186.18 306.05 186.18ZM225.78 210H228.3L229.74 206.62H236.36L237.78 210H240.38L234.22 195.9H231.94L225.78 210ZM230.64 204.44L233.04 198.84L235.46 204.44H230.64ZM241.98 213.2H244.42V208.36C245.16 209.34 246.26 210.22 248.02 210.22C250.52 210.22 252.92 208.26 252.92 204.74V204.7C252.92 201.18 250.5 199.22 248.02 199.22C246.28 199.22 245.2 200.1 244.42 201.2V199.44H241.98V213.2ZM247.44 208.12C245.78 208.12 244.36 206.76 244.36 204.74V204.7C244.36 202.68 245.78 201.32 247.44 201.32C249.06 201.32 250.46 202.66 250.46 204.7V204.74C250.46 206.82 249.1 208.12 247.44 208.12ZM254.898 213.2H257.338V208.36C258.078 209.34 259.178 210.22 260.938 210.22C263.438 210.22 265.838 208.26 265.838 204.74V204.7C265.838 201.18 263.418 199.22 260.938 199.22C259.198 199.22 258.118 200.1 257.338 201.2V199.44H254.898V213.2ZM260.358 208.12C258.698 208.12 257.278 206.76 257.278 204.74V204.7C257.278 202.68 258.698 201.32 260.358 201.32C261.978 201.32 263.378 202.66 263.378 204.7V204.74C263.378 206.82 262.018 208.12 260.358 208.12ZM267.956 210H270.396V195.4H267.956V210ZM273.099 197.82H275.699V195.52H273.099V197.82ZM273.179 210H275.619V199.44H273.179V210ZM283.162 210.24C285.222 210.24 286.442 209.44 287.482 208.26L286.022 206.82C285.242 207.6 284.422 208.12 283.282 208.12C281.422 208.12 280.122 206.62 280.122 204.74V204.7C280.122 202.86 281.422 201.34 283.182 201.34C284.382 201.34 285.162 201.88 285.902 202.66L287.422 201.04C286.402 199.96 285.182 199.22 283.202 199.22C280.022 199.22 277.702 201.74 277.702 204.74V204.78C277.702 207.78 280.022 210.24 283.162 210.24ZM292.248 210.22C293.868 210.22 294.968 209.54 295.688 208.68V210H298.048V203.74C298.048 202.36 297.688 201.26 296.908 200.48C296.148 199.7 294.988 199.3 293.408 199.3C291.728 199.3 290.588 199.66 289.408 200.16L290.068 202.06C291.028 201.66 291.888 201.4 293.088 201.4C294.788 201.4 295.708 202.18 295.708 203.7V203.96C294.888 203.7 294.068 203.52 292.868 203.52C290.288 203.52 288.488 204.62 288.488 206.92V206.96C288.488 209.1 290.268 210.22 292.248 210.22ZM292.928 208.46C291.748 208.46 290.868 207.88 290.868 206.86V206.82C290.868 205.7 291.768 205.06 293.348 205.06C294.308 205.06 295.128 205.24 295.748 205.48V206.2C295.748 207.56 294.528 208.46 292.928 208.46ZM303.888 210.18C304.828 210.18 305.448 209.98 306.068 209.64V207.66C305.588 207.9 305.088 208.02 304.568 208.02C303.748 208.02 303.268 207.64 303.268 206.7V201.52H306.108V199.44H303.268V196.54H300.848V199.44H299.508V201.52H300.848V207.08C300.848 209.4 302.108 210.18 303.888 210.18ZM308.111 197.82H310.711V195.52H308.111V197.82ZM308.191 210H310.631V199.44H308.191V210ZM318.313 210.24C321.573 210.24 323.973 207.72 323.973 204.74V204.7C323.973 201.68 321.613 199.22 318.353 199.22C315.113 199.22 312.713 201.72 312.713 204.74V204.78C312.713 207.78 315.093 210.24 318.313 210.24ZM318.353 208.12C316.493 208.12 315.133 206.58 315.133 204.74V204.7C315.133 202.86 316.373 201.34 318.313 201.34C320.213 201.34 321.553 202.88 321.553 204.74V204.78C321.553 206.6 320.333 208.12 318.353 208.12ZM325.918 210H328.358V204.04C328.358 202.38 329.318 201.42 330.738 201.42C332.178 201.42 332.998 202.34 332.998 204V210H335.418V203.26C335.418 200.8 334.058 199.22 331.658 199.22C329.998 199.22 329.058 200.08 328.358 201.06V199.44H325.918V210Z" fill="#CA7228"></path><path d="M400.057 490H402.577L404.017 486.62H410.637L412.057 490H414.657L408.497 475.9H406.217L400.057 490ZM404.917 484.44L407.317 478.84L409.737 484.44H404.917ZM419.723 490.22C421.343 490.22 422.323 489.38 423.023 488.36V490H425.463V479.44H423.023V485.4C423.023 487.06 422.063 488 420.643 488C419.203 488 418.383 487.1 418.383 485.44V479.44H415.963V486.16C415.963 488.64 417.323 490.22 419.723 490.22ZM431.525 490.18C432.465 490.18 433.085 489.98 433.705 489.64V487.66C433.225 487.9 432.725 488.02 432.205 488.02C431.385 488.02 430.905 487.64 430.905 486.7V481.52H433.745V479.44H430.905V476.54H428.485V479.44H427.145V481.52H428.485V487.08C428.485 489.4 429.745 490.18 431.525 490.18ZM435.688 490H438.128V484.04C438.128 482.38 439.088 481.42 440.508 481.42C441.948 481.42 442.768 482.34 442.768 484V490H445.188V483.26C445.188 480.8 443.828 479.22 441.428 479.22C439.768 479.22 438.828 480.08 438.128 481.06V475.4H435.688V490ZM452.63 490.24C455.89 490.24 458.29 487.72 458.29 484.74V484.7C458.29 481.68 455.93 479.22 452.67 479.22C449.43 479.22 447.03 481.72 447.03 484.74V484.78C447.03 487.78 449.41 490.24 452.63 490.24ZM452.67 488.12C450.81 488.12 449.45 486.58 449.45 484.74V484.7C449.45 482.86 450.69 481.34 452.63 481.34C454.53 481.34 455.87 482.88 455.87 484.74V484.78C455.87 486.6 454.65 488.12 452.67 488.12ZM460.234 490H462.674V485.98C462.674 483.18 464.134 481.8 466.274 481.8H466.414V479.24C464.554 479.16 463.334 480.22 462.674 481.82V479.44H460.234V490ZM468.056 477.82H470.656V475.52H468.056V477.82ZM468.136 490H470.576V479.44H468.136V490ZM472.759 490H481.939V488.02H475.839L481.939 481.1V479.44H472.979V481.42H478.859L472.759 488.34V490ZM486.97 490.22C488.59 490.22 489.69 489.54 490.41 488.68V490H492.77V483.74C492.77 482.36 492.41 481.26 491.63 480.48C490.87 479.7 489.71 479.3 488.13 479.3C486.45 479.3 485.31 479.66 484.13 480.16L484.79 482.06C485.75 481.66 486.61 481.4 487.81 481.4C489.51 481.4 490.43 482.18 490.43 483.7V483.96C489.61 483.7 488.79 483.52 487.59 483.52C485.01 483.52 483.21 484.62 483.21 486.92V486.96C483.21 489.1 484.99 490.22 486.97 490.22ZM487.65 488.46C486.47 488.46 485.59 487.88 485.59 486.86V486.82C485.59 485.7 486.49 485.06 488.07 485.06C489.03 485.06 489.85 485.24 490.47 485.48V486.2C490.47 487.56 489.25 488.46 487.65 488.46ZM498.611 490.18C499.551 490.18 500.171 489.98 500.791 489.64V487.66C500.311 487.9 499.811 488.02 499.291 488.02C498.471 488.02 497.991 487.64 497.991 486.7V481.52H500.831V479.44H497.991V476.54H495.571V479.44H494.231V481.52H495.571V487.08C495.571 489.4 496.831 490.18 498.611 490.18ZM502.833 477.82H505.433V475.52H502.833V477.82ZM502.913 490H505.353V479.44H502.913V490ZM513.036 490.24C516.296 490.24 518.696 487.72 518.696 484.74V484.7C518.696 481.68 516.336 479.22 513.076 479.22C509.836 479.22 507.436 481.72 507.436 484.74V484.78C507.436 487.78 509.816 490.24 513.036 490.24ZM513.076 488.12C511.216 488.12 509.856 486.58 509.856 484.74V484.7C509.856 482.86 511.096 481.34 513.036 481.34C514.936 481.34 516.276 482.88 516.276 484.74V484.78C516.276 486.6 515.056 488.12 513.076 488.12ZM520.641 490H523.081V484.04C523.081 482.38 524.041 481.42 525.461 481.42C526.901 481.42 527.721 482.34 527.721 484V490H530.141V483.26C530.141 480.8 528.781 479.22 526.381 479.22C524.721 479.22 523.781 480.08 523.081 481.06V479.44H520.641V490ZM441.077 514.2C444.017 514.2 446.077 512.66 446.077 510.02V509.98C446.077 507.64 444.537 506.64 441.597 505.88C438.897 505.24 438.257 504.76 438.257 503.68V503.64C438.257 502.7 439.097 501.98 440.537 501.98C441.817 501.98 443.057 502.48 444.337 503.42L445.657 501.56C444.217 500.42 442.637 499.8 440.577 499.8C437.797 499.8 435.797 501.46 435.797 503.86V503.9C435.797 506.46 437.477 507.38 440.457 508.08C443.057 508.66 443.617 509.24 443.617 510.22V510.26C443.617 511.3 442.657 512.02 441.137 512.02C439.397 512.02 438.077 511.38 436.717 510.2L435.237 511.96C436.917 513.48 438.917 514.2 441.077 514.2ZM453.03 514.24C454.97 514.24 456.33 513.46 457.35 512.26L455.93 511C455.07 511.82 454.27 512.26 453.07 512.26C451.49 512.26 450.29 511.32 450.03 509.58H457.79C457.81 509.34 457.83 509.12 457.83 508.9C457.83 505.86 456.13 503.22 452.77 503.22C449.75 503.22 447.61 505.68 447.61 508.72V508.76C447.61 512.02 449.99 514.24 453.03 514.24ZM450.01 507.98C450.23 506.32 451.25 505.2 452.75 505.2C454.35 505.2 455.27 506.44 455.43 507.98H450.01ZM459.74 514H462.18V509.98C462.18 507.18 463.64 505.8 465.78 505.8H465.92V503.24C464.06 503.16 462.84 504.22 462.18 505.82V503.44H459.74V514ZM470.862 514.08H473.042L477.362 503.44H474.822L471.962 511.2L469.122 503.44H466.522L470.862 514.08ZM483.151 514.24C485.091 514.24 486.451 513.46 487.471 512.26L486.051 511C485.191 511.82 484.391 512.26 483.191 512.26C481.611 512.26 480.411 511.32 480.151 509.58H487.911C487.931 509.34 487.951 509.12 487.951 508.9C487.951 505.86 486.251 503.22 482.891 503.22C479.871 503.22 477.731 505.68 477.731 508.72V508.76C477.731 512.02 480.111 514.24 483.151 514.24ZM480.131 507.98C480.351 506.32 481.371 505.2 482.871 505.2C484.471 505.2 485.391 506.44 485.551 507.98H480.131ZM489.861 514H492.301V509.98C492.301 507.18 493.761 505.8 495.901 505.8H496.041V503.24C494.181 503.16 492.961 504.22 492.301 505.82V503.44H489.861V514Z" fill="#CDA113"></path><path d="M422.046 76H424.506V71.12H427.586L431.026 76H433.946L430.166 70.7C432.106 70.14 433.486 68.76 433.486 66.46V66.42C433.486 65.2 433.066 64.18 432.326 63.4C431.426 62.52 430.046 62 428.286 62H422.046V76ZM424.506 68.94V64.24H428.086C429.926 64.24 430.986 65.04 430.986 66.56V66.6C430.986 68.04 429.866 68.94 428.106 68.94H424.506ZM440.364 76.24C442.304 76.24 443.664 75.46 444.684 74.26L443.264 73C442.404 73.82 441.604 74.26 440.404 74.26C438.824 74.26 437.624 73.32 437.364 71.58H445.124C445.144 71.34 445.164 71.12 445.164 70.9C445.164 67.86 443.464 65.22 440.104 65.22C437.084 65.22 434.944 67.68 434.944 70.72V70.76C434.944 74.02 437.324 76.24 440.364 76.24ZM437.344 69.98C437.564 68.32 438.584 67.2 440.084 67.2C441.684 67.2 442.604 68.44 442.764 69.98H437.344ZM450.714 76.2C452.914 76.2 454.634 75.1 454.634 72.88V72.84C454.634 70.94 452.874 70.24 451.354 69.76C450.114 69.38 448.974 69.02 448.974 68.26V68.22C448.974 67.64 449.514 67.18 450.454 67.18C451.334 67.18 452.414 67.56 453.434 68.18L454.394 66.46C453.274 65.72 451.854 65.26 450.514 65.26C448.414 65.26 446.754 66.48 446.754 68.5V68.54C446.754 70.54 448.514 71.2 450.054 71.62C451.294 72 452.414 72.3 452.414 73.1V73.14C452.414 73.84 451.814 74.28 450.774 74.28C449.674 74.28 448.494 73.84 447.314 72.98L446.234 74.62C447.574 75.68 449.194 76.2 450.714 76.2ZM461.634 76.24C464.894 76.24 467.294 73.72 467.294 70.74V70.7C467.294 67.68 464.934 65.22 461.674 65.22C458.434 65.22 456.034 67.72 456.034 70.74V70.78C456.034 73.78 458.414 76.24 461.634 76.24ZM461.674 74.12C459.814 74.12 458.454 72.58 458.454 70.74V70.7C458.454 68.86 459.694 67.34 461.634 67.34C463.534 67.34 464.874 68.88 464.874 70.74V70.78C464.874 72.6 463.654 74.12 461.674 74.12ZM472.898 76.22C474.518 76.22 475.498 75.38 476.198 74.36V76H478.638V65.44H476.198V71.4C476.198 73.06 475.238 74 473.818 74C472.378 74 471.558 73.1 471.558 71.44V65.44H469.138V72.16C469.138 74.64 470.498 76.22 472.898 76.22ZM481.141 76H483.581V71.98C483.581 69.18 485.041 67.8 487.181 67.8H487.321V65.24C485.461 65.16 484.241 66.22 483.581 67.82V65.44H481.141V76ZM493.451 76.24C495.511 76.24 496.731 75.44 497.771 74.26L496.311 72.82C495.531 73.6 494.711 74.12 493.571 74.12C491.711 74.12 490.411 72.62 490.411 70.74V70.7C490.411 68.86 491.711 67.34 493.471 67.34C494.671 67.34 495.451 67.88 496.191 68.66L497.711 67.04C496.691 65.96 495.471 65.22 493.491 65.22C490.311 65.22 487.991 67.74 487.991 70.74V70.78C487.991 73.78 490.311 76.24 493.451 76.24ZM504.044 76.24C505.984 76.24 507.344 75.46 508.364 74.26L506.944 73C506.084 73.82 505.284 74.26 504.084 74.26C502.504 74.26 501.304 73.32 501.044 71.58H508.804C508.824 71.34 508.844 71.12 508.844 70.9C508.844 67.86 507.144 65.22 503.784 65.22C500.764 65.22 498.624 67.68 498.624 70.72V70.76C498.624 74.02 501.004 76.24 504.044 76.24ZM501.024 69.98C501.244 68.32 502.264 67.2 503.764 67.2C505.364 67.2 506.284 68.44 506.444 69.98H501.024ZM440.577 100.2C443.517 100.2 445.577 98.66 445.577 96.02V95.98C445.577 93.64 444.037 92.64 441.097 91.88C438.397 91.24 437.757 90.76 437.757 89.68V89.64C437.757 88.7 438.597 87.98 440.037 87.98C441.317 87.98 442.557 88.48 443.837 89.42L445.157 87.56C443.717 86.42 442.137 85.8 440.077 85.8C437.297 85.8 435.297 87.46 435.297 89.86V89.9C435.297 92.46 436.977 93.38 439.957 94.08C442.557 94.66 443.117 95.24 443.117 96.22V96.26C443.117 97.3 442.157 98.02 440.637 98.02C438.897 98.02 437.577 97.38 436.217 96.2L434.737 97.96C436.417 99.48 438.417 100.2 440.577 100.2ZM452.53 100.24C454.47 100.24 455.83 99.46 456.85 98.26L455.43 97C454.57 97.82 453.77 98.26 452.57 98.26C450.99 98.26 449.79 97.32 449.53 95.58H457.29C457.31 95.34 457.33 95.12 457.33 94.9C457.33 91.86 455.63 89.22 452.27 89.22C449.25 89.22 447.11 91.68 447.11 94.72V94.76C447.11 98.02 449.49 100.24 452.53 100.24ZM449.51 93.98C449.73 92.32 450.75 91.2 452.25 91.2C453.85 91.2 454.77 92.44 454.93 93.98H449.51ZM459.24 100H461.68V95.98C461.68 93.18 463.14 91.8 465.28 91.8H465.42V89.24C463.56 89.16 462.34 90.22 461.68 91.82V89.44H459.24V100ZM470.362 100.08H472.542L476.862 89.44H474.322L471.462 97.2L468.622 89.44H466.022L470.362 100.08ZM482.651 100.24C484.591 100.24 485.951 99.46 486.971 98.26L485.551 97C484.691 97.82 483.891 98.26 482.691 98.26C481.111 98.26 479.911 97.32 479.651 95.58H487.411C487.431 95.34 487.451 95.12 487.451 94.9C487.451 91.86 485.751 89.22 482.391 89.22C479.371 89.22 477.231 91.68 477.231 94.72V94.76C477.231 98.02 479.611 100.24 482.651 100.24ZM479.631 93.98C479.851 92.32 480.871 91.2 482.371 91.2C483.971 91.2 484.891 92.44 485.051 93.98H479.631ZM489.361 100H491.801V95.98C491.801 93.18 493.261 91.8 495.401 91.8H495.541V89.24C493.681 89.16 492.461 90.22 491.801 91.82V89.44H489.361V100Z" fill="#475715"></path></svg> 