<?xml version="1.0" encoding="UTF-8"?> <svg xmlns="http://www.w3.org/2000/svg" width="1049" height="598" viewBox="0 0 1049 598" fill="none"><rect width="1049" height="598" fill="white"></rect><rect width="1049" height="598" fill="url(#paint0_linear_2561_14207)"></rect><path d="M328 50.8333H406.833V53.1666H328V50.8333Z" fill="black"></path><path d="M323 270H370V272H323V270Z" fill="black"></path><path d="M323 489H445V491H323V489Z" fill="black"></path><path d="M726 107H624V109H726V107Z" fill="black"></path><path d="M727 545H575V547H727V545Z" fill="black"></path><path d="M714.5 40L712.833 41.6667L721.833 50.8333H643V53.1667H721.833L712.833 62.3333L714.5 64L726.5 52L714.5 40Z" fill="black"></path><path d="M715.5 259L713.833 260.667L722.833 269.833H680V272.167H722.833L713.833 281.333L715.5 283L727.5 271L715.5 259Z" fill="black"></path><path d="M714.5 478L712.833 479.667L721.833 488.833H604.5V491.167H721.833L712.833 500.333L714.5 502L726.5 490L714.5 478Z" fill="black"></path><path d="M335 96L336.667 97.6667L327.667 106.833H425.5V109.167H327.667L336.667 118.333L335 120L323 108L335 96Z" fill="black"></path><path d="M335 534L336.667 535.667L327.667 544.833H475.5V547.167H327.667L336.667 556.333L335 558L323 546L335 534Z" fill="black"></path><rect x="755.5" y="470.5" width="261" height="95" rx="6.5" fill="#CA7228" stroke="#CA7228" stroke-width="3"></rect><path d="M822.099 513H824.559V508.5H827.339C830.439 508.5 832.939 506.84 832.939 503.72V503.68C832.939 500.86 830.899 499 827.619 499H822.099V513ZM824.559 506.28V501.24H827.419C829.259 501.24 830.439 502.08 830.439 503.74V503.78C830.439 505.24 829.279 506.28 827.419 506.28H824.559ZM838.338 513.22C839.958 513.22 840.938 512.38 841.638 511.36V513H844.078V502.44H841.638V508.4C841.638 510.06 840.678 511 839.258 511C837.818 511 836.998 510.1 836.998 508.44V502.44H834.578V509.16C834.578 511.64 835.938 513.22 838.338 513.22ZM846.58 513H849.02V508.98C849.02 506.18 850.48 504.8 852.62 504.8H852.76V502.24C850.9 502.16 849.68 503.22 849.02 504.82V502.44H846.58V513ZM858.85 513.24C860.79 513.24 862.15 512.46 863.17 511.26L861.75 510C860.89 510.82 860.09 511.26 858.89 511.26C857.31 511.26 856.11 510.32 855.85 508.58H863.61C863.63 508.34 863.65 508.12 863.65 507.9C863.65 504.86 861.95 502.22 858.59 502.22C855.57 502.22 853.43 504.68 853.43 507.72V507.76C853.43 511.02 855.81 513.24 858.85 513.24ZM855.83 506.98C856.05 505.32 857.07 504.2 858.57 504.2C860.17 504.2 861.09 505.44 861.25 506.98H855.83ZM871.357 513H873.817V507.3H880.877V505.06H873.817V501.24H881.777V499H871.357V513ZM886.234 513.22C887.854 513.22 888.954 512.54 889.674 511.68V513H892.034V506.74C892.034 505.36 891.674 504.26 890.894 503.48C890.134 502.7 888.974 502.3 887.394 502.3C885.714 502.3 884.574 502.66 883.394 503.16L884.054 505.06C885.014 504.66 885.874 504.4 887.074 504.4C888.774 504.4 889.694 505.18 889.694 506.7V506.96C888.874 506.7 888.054 506.52 886.854 506.52C884.274 506.52 882.474 507.62 882.474 509.92V509.96C882.474 512.1 884.254 513.22 886.234 513.22ZM886.914 511.46C885.734 511.46 884.854 510.88 884.854 509.86V509.82C884.854 508.7 885.754 508.06 887.334 508.06C888.294 508.06 889.114 508.24 889.734 508.48V509.2C889.734 510.56 888.514 511.46 886.914 511.46ZM894.412 513H896.852V508.98C896.852 506.18 898.312 504.8 900.452 504.8H900.592V502.24C898.732 502.16 897.512 503.22 896.852 504.82V502.44H894.412V513ZM902.174 513H904.614V507.04C904.614 505.42 905.514 504.42 906.874 504.42C908.234 504.42 909.014 505.32 909.014 506.98V513H911.434V507.04C911.434 505.34 912.354 504.42 913.694 504.42C915.054 504.42 915.834 505.32 915.834 507V513H918.254V506.26C918.254 503.68 916.874 502.22 914.554 502.22C912.954 502.22 911.854 502.96 910.994 504.08C910.434 502.96 909.354 502.22 907.834 502.22C906.214 502.22 905.294 503.1 904.614 504.04V502.44H902.174V513ZM920.718 500.82H923.318V498.52H920.718V500.82ZM920.798 513H923.238V502.44H920.798V513ZM925.881 513H928.321V507.04C928.321 505.38 929.281 504.42 930.701 504.42C932.141 504.42 932.961 505.34 932.961 507V513H935.381V506.26C935.381 503.8 934.021 502.22 931.621 502.22C929.961 502.22 929.021 503.08 928.321 504.06V502.44H925.881V513ZM942.503 516.24C944.423 516.24 945.883 515.78 946.843 514.82C947.743 513.92 948.183 512.6 948.183 510.84V502.44H945.763V504.02C944.943 503.04 943.843 502.22 942.063 502.22C939.583 502.22 937.263 504.06 937.263 507.18V507.22C937.263 510.32 939.563 512.16 942.063 512.16C943.803 512.16 944.903 511.36 945.783 510.24V511.04C945.783 513.18 944.603 514.26 942.443 514.26C941.003 514.26 939.823 513.86 938.683 513.16L937.783 514.98C939.163 515.82 940.743 516.24 942.503 516.24ZM942.703 510.1C941.043 510.1 939.703 508.92 939.703 507.2V507.16C939.703 505.42 941.023 504.28 942.703 504.28C944.383 504.28 945.803 505.46 945.803 507.16V507.2C945.803 508.92 944.383 510.1 942.703 510.1ZM860.577 537.2C863.517 537.2 865.577 535.66 865.577 533.02V532.98C865.577 530.64 864.037 529.64 861.097 528.88C858.397 528.24 857.757 527.76 857.757 526.68V526.64C857.757 525.7 858.597 524.98 860.037 524.98C861.317 524.98 862.557 525.48 863.837 526.42L865.157 524.56C863.717 523.42 862.137 522.8 860.077 522.8C857.297 522.8 855.297 524.46 855.297 526.86V526.9C855.297 529.46 856.977 530.38 859.957 531.08C862.557 531.66 863.117 532.24 863.117 533.22V533.26C863.117 534.3 862.157 535.02 860.637 535.02C858.897 535.02 857.577 534.38 856.217 533.2L854.737 534.96C856.417 536.48 858.417 537.2 860.577 537.2ZM872.53 537.24C874.47 537.24 875.83 536.46 876.85 535.26L875.43 534C874.57 534.82 873.77 535.26 872.57 535.26C870.99 535.26 869.79 534.32 869.53 532.58H877.29C877.31 532.34 877.33 532.12 877.33 531.9C877.33 528.86 875.63 526.22 872.27 526.22C869.25 526.22 867.11 528.68 867.11 531.72V531.76C867.11 535.02 869.49 537.24 872.53 537.24ZM869.51 530.98C869.73 529.32 870.75 528.2 872.25 528.2C873.85 528.2 874.77 529.44 874.93 530.98H869.51ZM879.24 537H881.68V532.98C881.68 530.18 883.14 528.8 885.28 528.8H885.42V526.24C883.56 526.16 882.34 527.22 881.68 528.82V526.44H879.24V537ZM890.362 537.08H892.542L896.862 526.44H894.322L891.462 534.2L888.622 526.44H886.022L890.362 537.08ZM902.651 537.24C904.591 537.24 905.951 536.46 906.971 535.26L905.551 534C904.691 534.82 903.891 535.26 902.691 535.26C901.111 535.26 899.911 534.32 899.651 532.58H907.411C907.431 532.34 907.451 532.12 907.451 531.9C907.451 528.86 905.751 526.22 902.391 526.22C899.371 526.22 897.231 528.68 897.231 531.72V531.76C897.231 535.02 899.611 537.24 902.651 537.24ZM899.631 530.98C899.851 529.32 900.871 528.2 902.371 528.2C903.971 528.2 904.891 529.44 905.051 530.98H899.631ZM909.361 537H911.801V532.98C911.801 530.18 913.261 528.8 915.401 528.8H915.541V526.24C913.681 526.16 912.461 527.22 911.801 528.82V526.44H909.361V537Z" fill="white"></path><path d="M822.099 513H824.559V508.5H827.339C830.439 508.5 832.939 506.84 832.939 503.72V503.68C832.939 500.86 830.899 499 827.619 499H822.099V513ZM824.559 506.28V501.24H827.419C829.259 501.24 830.439 502.08 830.439 503.74V503.78C830.439 505.24 829.279 506.28 827.419 506.28H824.559ZM838.338 513.22C839.958 513.22 840.938 512.38 841.638 511.36V513H844.078V502.44H841.638V508.4C841.638 510.06 840.678 511 839.258 511C837.818 511 836.998 510.1 836.998 508.44V502.44H834.578V509.16C834.578 511.64 835.938 513.22 838.338 513.22ZM846.58 513H849.02V508.98C849.02 506.18 850.48 504.8 852.62 504.8H852.76V502.24C850.9 502.16 849.68 503.22 849.02 504.82V502.44H846.58V513ZM858.85 513.24C860.79 513.24 862.15 512.46 863.17 511.26L861.75 510C860.89 510.82 860.09 511.26 858.89 511.26C857.31 511.26 856.11 510.32 855.85 508.58H863.61C863.63 508.34 863.65 508.12 863.65 507.9C863.65 504.86 861.95 502.22 858.59 502.22C855.57 502.22 853.43 504.68 853.43 507.72V507.76C853.43 511.02 855.81 513.24 858.85 513.24ZM855.83 506.98C856.05 505.32 857.07 504.2 858.57 504.2C860.17 504.2 861.09 505.44 861.25 506.98H855.83ZM871.357 513H873.817V507.3H880.877V505.06H873.817V501.24H881.777V499H871.357V513ZM886.234 513.22C887.854 513.22 888.954 512.54 889.674 511.68V513H892.034V506.74C892.034 505.36 891.674 504.26 890.894 503.48C890.134 502.7 888.974 502.3 887.394 502.3C885.714 502.3 884.574 502.66 883.394 503.16L884.054 505.06C885.014 504.66 885.874 504.4 887.074 504.4C888.774 504.4 889.694 505.18 889.694 506.7V506.96C888.874 506.7 888.054 506.52 886.854 506.52C884.274 506.52 882.474 507.62 882.474 509.92V509.96C882.474 512.1 884.254 513.22 886.234 513.22ZM886.914 511.46C885.734 511.46 884.854 510.88 884.854 509.86V509.82C884.854 508.7 885.754 508.06 887.334 508.06C888.294 508.06 889.114 508.24 889.734 508.48V509.2C889.734 510.56 888.514 511.46 886.914 511.46ZM894.412 513H896.852V508.98C896.852 506.18 898.312 504.8 900.452 504.8H900.592V502.24C898.732 502.16 897.512 503.22 896.852 504.82V502.44H894.412V513ZM902.174 513H904.614V507.04C904.614 505.42 905.514 504.42 906.874 504.42C908.234 504.42 909.014 505.32 909.014 506.98V513H911.434V507.04C911.434 505.34 912.354 504.42 913.694 504.42C915.054 504.42 915.834 505.32 915.834 507V513H918.254V506.26C918.254 503.68 916.874 502.22 914.554 502.22C912.954 502.22 911.854 502.96 910.994 504.08C910.434 502.96 909.354 502.22 907.834 502.22C906.214 502.22 905.294 503.1 904.614 504.04V502.44H902.174V513ZM920.718 500.82H923.318V498.52H920.718V500.82ZM920.798 513H923.238V502.44H920.798V513ZM925.881 513H928.321V507.04C928.321 505.38 929.281 504.42 930.701 504.42C932.141 504.42 932.961 505.34 932.961 507V513H935.381V506.26C935.381 503.8 934.021 502.22 931.621 502.22C929.961 502.22 929.021 503.08 928.321 504.06V502.44H925.881V513ZM942.503 516.24C944.423 516.24 945.883 515.78 946.843 514.82C947.743 513.92 948.183 512.6 948.183 510.84V502.44H945.763V504.02C944.943 503.04 943.843 502.22 942.063 502.22C939.583 502.22 937.263 504.06 937.263 507.18V507.22C937.263 510.32 939.563 512.16 942.063 512.16C943.803 512.16 944.903 511.36 945.783 510.24V511.04C945.783 513.18 944.603 514.26 942.443 514.26C941.003 514.26 939.823 513.86 938.683 513.16L937.783 514.98C939.163 515.82 940.743 516.24 942.503 516.24ZM942.703 510.1C941.043 510.1 939.703 508.92 939.703 507.2V507.16C939.703 505.42 941.023 504.28 942.703 504.28C944.383 504.28 945.803 505.46 945.803 507.16V507.2C945.803 508.92 944.383 510.1 942.703 510.1ZM860.577 537.2C863.517 537.2 865.577 535.66 865.577 533.02V532.98C865.577 530.64 864.037 529.64 861.097 528.88C858.397 528.24 857.757 527.76 857.757 526.68V526.64C857.757 525.7 858.597 524.98 860.037 524.98C861.317 524.98 862.557 525.48 863.837 526.42L865.157 524.56C863.717 523.42 862.137 522.8 860.077 522.8C857.297 522.8 855.297 524.46 855.297 526.86V526.9C855.297 529.46 856.977 530.38 859.957 531.08C862.557 531.66 863.117 532.24 863.117 533.22V533.26C863.117 534.3 862.157 535.02 860.637 535.02C858.897 535.02 857.577 534.38 856.217 533.2L854.737 534.96C856.417 536.48 858.417 537.2 860.577 537.2ZM872.53 537.24C874.47 537.24 875.83 536.46 876.85 535.26L875.43 534C874.57 534.82 873.77 535.26 872.57 535.26C870.99 535.26 869.79 534.32 869.53 532.58H877.29C877.31 532.34 877.33 532.12 877.33 531.9C877.33 528.86 875.63 526.22 872.27 526.22C869.25 526.22 867.11 528.68 867.11 531.72V531.76C867.11 535.02 869.49 537.24 872.53 537.24ZM869.51 530.98C869.73 529.32 870.75 528.2 872.25 528.2C873.85 528.2 874.77 529.44 874.93 530.98H869.51ZM879.24 537H881.68V532.98C881.68 530.18 883.14 528.8 885.28 528.8H885.42V526.24C883.56 526.16 882.34 527.22 881.68 528.82V526.44H879.24V537ZM890.362 537.08H892.542L896.862 526.44H894.322L891.462 534.2L888.622 526.44H886.022L890.362 537.08ZM902.651 537.24C904.591 537.24 905.951 536.46 906.971 535.26L905.551 534C904.691 534.82 903.891 535.26 902.691 535.26C901.111 535.26 899.911 534.32 899.651 532.58H907.411C907.431 532.34 907.451 532.12 907.451 531.9C907.451 528.86 905.751 526.22 902.391 526.22C899.371 526.22 897.231 528.68 897.231 531.72V531.76C897.231 535.02 899.611 537.24 902.651 537.24ZM899.631 530.98C899.851 529.32 900.871 528.2 902.371 528.2C903.971 528.2 904.891 529.44 905.051 530.98H899.631ZM909.361 537H911.801V532.98C911.801 530.18 913.261 528.8 915.401 528.8H915.541V526.24C913.681 526.16 912.461 527.22 911.801 528.82V526.44H909.361V537Z" fill="url(#paint1_linear_2561_14207)"></path><rect x="755.5" y="251.5" width="261" height="95" rx="6.5" fill="#CDA113" stroke="#CDA113" stroke-width="3"></rect><path d="M863.023 294H865.483V282.28H869.943V280H858.563V282.28H863.023V294ZM874.487 294.24C877.747 294.24 880.147 291.72 880.147 288.74V288.7C880.147 285.68 877.787 283.22 874.527 283.22C871.287 283.22 868.887 285.72 868.887 288.74V288.78C868.887 291.78 871.267 294.24 874.487 294.24ZM874.527 292.12C872.667 292.12 871.307 290.58 871.307 288.74V288.7C871.307 286.86 872.547 285.34 874.487 285.34C876.387 285.34 877.727 286.88 877.727 288.74V288.78C877.727 290.6 876.507 292.12 874.527 292.12ZM882.092 294H884.532V290.98L886.032 289.42L889.152 294H891.992L887.652 287.74L891.852 283.44H888.912L884.532 288.12V279.4H882.092V294ZM897.585 294.24C899.525 294.24 900.885 293.46 901.905 292.26L900.485 291C899.625 291.82 898.825 292.26 897.625 292.26C896.045 292.26 894.845 291.32 894.585 289.58H902.345C902.365 289.34 902.385 289.12 902.385 288.9C902.385 285.86 900.685 283.22 897.325 283.22C894.305 283.22 892.165 285.68 892.165 288.72V288.76C892.165 292.02 894.545 294.24 897.585 294.24ZM894.565 287.98C894.785 286.32 895.805 285.2 897.305 285.2C898.905 285.2 899.825 286.44 899.985 287.98H894.565ZM904.295 294H906.735V288.04C906.735 286.38 907.695 285.42 909.115 285.42C910.555 285.42 911.375 286.34 911.375 288V294H913.795V287.26C913.795 284.8 912.435 283.22 910.035 283.22C908.375 283.22 907.435 284.08 906.735 285.06V283.44H904.295V294ZM843.986 318H854.466V315.8H846.446V312.06H853.466V309.84H846.446V306.2H854.366V304H843.986V318ZM856.584 318H859.024V312.04C859.024 310.38 859.984 309.42 861.404 309.42C862.844 309.42 863.664 310.34 863.664 312V318H866.084V311.26C866.084 308.8 864.724 307.22 862.324 307.22C860.664 307.22 859.724 308.08 859.024 309.06V307.44H856.584V318ZM872.866 318.22C874.566 318.22 875.686 317.34 876.466 316.24V318H878.886V303.4H876.466V309.08C875.726 308.08 874.586 307.22 872.866 307.22C870.346 307.22 867.966 309.18 867.966 312.7V312.74C867.966 316.26 870.386 318.22 872.866 318.22ZM873.446 316.12C871.786 316.12 870.406 314.78 870.406 312.74V312.7C870.406 310.62 871.786 309.32 873.446 309.32C875.066 309.32 876.506 310.66 876.506 312.7V312.74C876.506 314.76 875.066 316.12 873.446 316.12ZM881.404 321.2H883.844V316.36C884.584 317.34 885.684 318.22 887.444 318.22C889.944 318.22 892.344 316.26 892.344 312.74V312.7C892.344 309.18 889.924 307.22 887.444 307.22C885.704 307.22 884.624 308.1 883.844 309.2V307.44H881.404V321.2ZM886.864 316.12C885.204 316.12 883.784 314.76 883.784 312.74V312.7C883.784 310.68 885.204 309.32 886.864 309.32C888.484 309.32 889.884 310.66 889.884 312.7V312.74C889.884 314.82 888.524 316.12 886.864 316.12ZM899.362 318.24C902.622 318.24 905.022 315.72 905.022 312.74V312.7C905.022 309.68 902.662 307.22 899.402 307.22C896.162 307.22 893.762 309.72 893.762 312.74V312.78C893.762 315.78 896.142 318.24 899.362 318.24ZM899.402 316.12C897.542 316.12 896.182 314.58 896.182 312.74V312.7C896.182 310.86 897.422 309.34 899.362 309.34C901.262 309.34 902.602 310.88 902.602 312.74V312.78C902.602 314.6 901.382 316.12 899.402 316.12ZM907.027 305.82H909.627V303.52H907.027V305.82ZM907.107 318H909.547V307.44H907.107V318ZM912.189 318H914.629V312.04C914.629 310.38 915.589 309.42 917.009 309.42C918.449 309.42 919.269 310.34 919.269 312V318H921.689V311.26C921.689 308.8 920.329 307.22 917.929 307.22C916.269 307.22 915.329 308.08 914.629 309.06V307.44H912.189V318ZM927.652 318.18C928.592 318.18 929.212 317.98 929.832 317.64V315.66C929.352 315.9 928.852 316.02 928.332 316.02C927.512 316.02 927.032 315.64 927.032 314.7V309.52H929.872V307.44H927.032V304.54H924.612V307.44H923.272V309.52H924.612V315.08C924.612 317.4 925.872 318.18 927.652 318.18Z" fill="white"></path><path d="M863.023 294H865.483V282.28H869.943V280H858.563V282.28H863.023V294ZM874.487 294.24C877.747 294.24 880.147 291.72 880.147 288.74V288.7C880.147 285.68 877.787 283.22 874.527 283.22C871.287 283.22 868.887 285.72 868.887 288.74V288.78C868.887 291.78 871.267 294.24 874.487 294.24ZM874.527 292.12C872.667 292.12 871.307 290.58 871.307 288.74V288.7C871.307 286.86 872.547 285.34 874.487 285.34C876.387 285.34 877.727 286.88 877.727 288.74V288.78C877.727 290.6 876.507 292.12 874.527 292.12ZM882.092 294H884.532V290.98L886.032 289.42L889.152 294H891.992L887.652 287.74L891.852 283.44H888.912L884.532 288.12V279.4H882.092V294ZM897.585 294.24C899.525 294.24 900.885 293.46 901.905 292.26L900.485 291C899.625 291.82 898.825 292.26 897.625 292.26C896.045 292.26 894.845 291.32 894.585 289.58H902.345C902.365 289.34 902.385 289.12 902.385 288.9C902.385 285.86 900.685 283.22 897.325 283.22C894.305 283.22 892.165 285.68 892.165 288.72V288.76C892.165 292.02 894.545 294.24 897.585 294.24ZM894.565 287.98C894.785 286.32 895.805 285.2 897.305 285.2C898.905 285.2 899.825 286.44 899.985 287.98H894.565ZM904.295 294H906.735V288.04C906.735 286.38 907.695 285.42 909.115 285.42C910.555 285.42 911.375 286.34 911.375 288V294H913.795V287.26C913.795 284.8 912.435 283.22 910.035 283.22C908.375 283.22 907.435 284.08 906.735 285.06V283.44H904.295V294ZM843.986 318H854.466V315.8H846.446V312.06H853.466V309.84H846.446V306.2H854.366V304H843.986V318ZM856.584 318H859.024V312.04C859.024 310.38 859.984 309.42 861.404 309.42C862.844 309.42 863.664 310.34 863.664 312V318H866.084V311.26C866.084 308.8 864.724 307.22 862.324 307.22C860.664 307.22 859.724 308.08 859.024 309.06V307.44H856.584V318ZM872.866 318.22C874.566 318.22 875.686 317.34 876.466 316.24V318H878.886V303.4H876.466V309.08C875.726 308.08 874.586 307.22 872.866 307.22C870.346 307.22 867.966 309.18 867.966 312.7V312.74C867.966 316.26 870.386 318.22 872.866 318.22ZM873.446 316.12C871.786 316.12 870.406 314.78 870.406 312.74V312.7C870.406 310.62 871.786 309.32 873.446 309.32C875.066 309.32 876.506 310.66 876.506 312.7V312.74C876.506 314.76 875.066 316.12 873.446 316.12ZM881.404 321.2H883.844V316.36C884.584 317.34 885.684 318.22 887.444 318.22C889.944 318.22 892.344 316.26 892.344 312.74V312.7C892.344 309.18 889.924 307.22 887.444 307.22C885.704 307.22 884.624 308.1 883.844 309.2V307.44H881.404V321.2ZM886.864 316.12C885.204 316.12 883.784 314.76 883.784 312.74V312.7C883.784 310.68 885.204 309.32 886.864 309.32C888.484 309.32 889.884 310.66 889.884 312.7V312.74C889.884 314.82 888.524 316.12 886.864 316.12ZM899.362 318.24C902.622 318.24 905.022 315.72 905.022 312.74V312.7C905.022 309.68 902.662 307.22 899.402 307.22C896.162 307.22 893.762 309.72 893.762 312.74V312.78C893.762 315.78 896.142 318.24 899.362 318.24ZM899.402 316.12C897.542 316.12 896.182 314.58 896.182 312.74V312.7C896.182 310.86 897.422 309.34 899.362 309.34C901.262 309.34 902.602 310.88 902.602 312.74V312.78C902.602 314.6 901.382 316.12 899.402 316.12ZM907.027 305.82H909.627V303.52H907.027V305.82ZM907.107 318H909.547V307.44H907.107V318ZM912.189 318H914.629V312.04C914.629 310.38 915.589 309.42 917.009 309.42C918.449 309.42 919.269 310.34 919.269 312V318H921.689V311.26C921.689 308.8 920.329 307.22 917.929 307.22C916.269 307.22 915.329 308.08 914.629 309.06V307.44H912.189V318ZM927.652 318.18C928.592 318.18 929.212 317.98 929.832 317.64V315.66C929.352 315.9 928.852 316.02 928.332 316.02C927.512 316.02 927.032 315.64 927.032 314.7V309.52H929.872V307.44H927.032V304.54H924.612V307.44H923.272V309.52H924.612V315.08C924.612 317.4 925.872 318.18 927.652 318.18Z" fill="url(#paint2_linear_2561_14207)"></path><rect x="32.5" y="32.5" width="261" height="533" rx="6.5" fill="#475715" stroke="#475715" stroke-width="3"></rect><path d="M146.711 294H149.191V288.42L154.751 280H151.931L147.971 286.18L144.071 280H141.151L146.711 288.48V294ZM158.94 294.24C162.2 294.24 164.6 291.72 164.6 288.74V288.7C164.6 285.68 162.24 283.22 158.98 283.22C155.74 283.22 153.34 285.72 153.34 288.74V288.78C153.34 291.78 155.72 294.24 158.94 294.24ZM158.98 292.12C157.12 292.12 155.76 290.58 155.76 288.74V288.7C155.76 286.86 157 285.34 158.94 285.34C160.84 285.34 162.18 286.88 162.18 288.74V288.78C162.18 290.6 160.96 292.12 158.98 292.12ZM170.205 294.22C171.825 294.22 172.805 293.38 173.505 292.36V294H175.945V283.44H173.505V289.4C173.505 291.06 172.545 292 171.125 292C169.685 292 168.865 291.1 168.865 289.44V283.44H166.445V290.16C166.445 292.64 167.805 294.22 170.205 294.22ZM178.447 294H180.887V289.98C180.887 287.18 182.347 285.8 184.487 285.8H184.627V283.24C182.767 283.16 181.547 284.22 180.887 285.82V283.44H178.447V294ZM107.78 318H110.3L111.74 314.62H118.36L119.78 318H122.38L116.22 303.9H113.94L107.78 318ZM112.64 312.44L115.04 306.84L117.46 312.44H112.64ZM123.98 321.2H126.42V316.36C127.16 317.34 128.26 318.22 130.02 318.22C132.52 318.22 134.92 316.26 134.92 312.74V312.7C134.92 309.18 132.5 307.22 130.02 307.22C128.28 307.22 127.2 308.1 126.42 309.2V307.44H123.98V321.2ZM129.44 316.12C127.78 316.12 126.36 314.76 126.36 312.74V312.7C126.36 310.68 127.78 309.32 129.44 309.32C131.06 309.32 132.46 310.66 132.46 312.7V312.74C132.46 314.82 131.1 316.12 129.44 316.12ZM136.898 321.2H139.338V316.36C140.078 317.34 141.178 318.22 142.938 318.22C145.438 318.22 147.838 316.26 147.838 312.74V312.7C147.838 309.18 145.418 307.22 142.938 307.22C141.198 307.22 140.118 308.1 139.338 309.2V307.44H136.898V321.2ZM142.358 316.12C140.698 316.12 139.278 314.76 139.278 312.74V312.7C139.278 310.68 140.698 309.32 142.358 309.32C143.978 309.32 145.378 310.66 145.378 312.7V312.74C145.378 314.82 144.018 316.12 142.358 316.12ZM149.956 318H152.396V303.4H149.956V318ZM155.099 305.82H157.699V303.52H155.099V305.82ZM155.179 318H157.619V307.44H155.179V318ZM165.162 318.24C167.222 318.24 168.442 317.44 169.482 316.26L168.022 314.82C167.242 315.6 166.422 316.12 165.282 316.12C163.422 316.12 162.122 314.62 162.122 312.74V312.7C162.122 310.86 163.422 309.34 165.182 309.34C166.382 309.34 167.162 309.88 167.902 310.66L169.422 309.04C168.402 307.96 167.182 307.22 165.202 307.22C162.022 307.22 159.702 309.74 159.702 312.74V312.78C159.702 315.78 162.022 318.24 165.162 318.24ZM174.248 318.22C175.868 318.22 176.968 317.54 177.688 316.68V318H180.048V311.74C180.048 310.36 179.688 309.26 178.908 308.48C178.148 307.7 176.988 307.3 175.408 307.3C173.728 307.3 172.588 307.66 171.408 308.16L172.068 310.06C173.028 309.66 173.888 309.4 175.088 309.4C176.788 309.4 177.708 310.18 177.708 311.7V311.96C176.888 311.7 176.068 311.52 174.868 311.52C172.288 311.52 170.488 312.62 170.488 314.92V314.96C170.488 317.1 172.268 318.22 174.248 318.22ZM174.928 316.46C173.748 316.46 172.868 315.88 172.868 314.86V314.82C172.868 313.7 173.768 313.06 175.348 313.06C176.308 313.06 177.128 313.24 177.748 313.48V314.2C177.748 315.56 176.528 316.46 174.928 316.46ZM185.888 318.18C186.828 318.18 187.448 317.98 188.068 317.64V315.66C187.588 315.9 187.088 316.02 186.568 316.02C185.748 316.02 185.268 315.64 185.268 314.7V309.52H188.108V307.44H185.268V304.54H182.848V307.44H181.508V309.52H182.848V315.08C182.848 317.4 184.108 318.18 185.888 318.18ZM190.111 305.82H192.711V303.52H190.111V305.82ZM190.191 318H192.631V307.44H190.191V318ZM200.313 318.24C203.573 318.24 205.973 315.72 205.973 312.74V312.7C205.973 309.68 203.613 307.22 200.353 307.22C197.113 307.22 194.713 309.72 194.713 312.74V312.78C194.713 315.78 197.093 318.24 200.313 318.24ZM200.353 316.12C198.493 316.12 197.133 314.58 197.133 312.74V312.7C197.133 310.86 198.373 309.34 200.313 309.34C202.213 309.34 203.553 310.88 203.553 312.74V312.78C203.553 314.6 202.333 316.12 200.353 316.12ZM207.918 318H210.358V312.04C210.358 310.38 211.318 309.42 212.738 309.42C214.178 309.42 214.998 310.34 214.998 312V318H217.418V311.26C217.418 308.8 216.058 307.22 213.658 307.22C211.998 307.22 211.058 308.08 210.358 309.06V307.44H207.918V318Z" fill="white"></path><path d="M146.711 294H149.191V288.42L154.751 280H151.931L147.971 286.18L144.071 280H141.151L146.711 288.48V294ZM158.94 294.24C162.2 294.24 164.6 291.72 164.6 288.74V288.7C164.6 285.68 162.24 283.22 158.98 283.22C155.74 283.22 153.34 285.72 153.34 288.74V288.78C153.34 291.78 155.72 294.24 158.94 294.24ZM158.98 292.12C157.12 292.12 155.76 290.58 155.76 288.74V288.7C155.76 286.86 157 285.34 158.94 285.34C160.84 285.34 162.18 286.88 162.18 288.74V288.78C162.18 290.6 160.96 292.12 158.98 292.12ZM170.205 294.22C171.825 294.22 172.805 293.38 173.505 292.36V294H175.945V283.44H173.505V289.4C173.505 291.06 172.545 292 171.125 292C169.685 292 168.865 291.1 168.865 289.44V283.44H166.445V290.16C166.445 292.64 167.805 294.22 170.205 294.22ZM178.447 294H180.887V289.98C180.887 287.18 182.347 285.8 184.487 285.8H184.627V283.24C182.767 283.16 181.547 284.22 180.887 285.82V283.44H178.447V294ZM107.78 318H110.3L111.74 314.62H118.36L119.78 318H122.38L116.22 303.9H113.94L107.78 318ZM112.64 312.44L115.04 306.84L117.46 312.44H112.64ZM123.98 321.2H126.42V316.36C127.16 317.34 128.26 318.22 130.02 318.22C132.52 318.22 134.92 316.26 134.92 312.74V312.7C134.92 309.18 132.5 307.22 130.02 307.22C128.28 307.22 127.2 308.1 126.42 309.2V307.44H123.98V321.2ZM129.44 316.12C127.78 316.12 126.36 314.76 126.36 312.74V312.7C126.36 310.68 127.78 309.32 129.44 309.32C131.06 309.32 132.46 310.66 132.46 312.7V312.74C132.46 314.82 131.1 316.12 129.44 316.12ZM136.898 321.2H139.338V316.36C140.078 317.34 141.178 318.22 142.938 318.22C145.438 318.22 147.838 316.26 147.838 312.74V312.7C147.838 309.18 145.418 307.22 142.938 307.22C141.198 307.22 140.118 308.1 139.338 309.2V307.44H136.898V321.2ZM142.358 316.12C140.698 316.12 139.278 314.76 139.278 312.74V312.7C139.278 310.68 140.698 309.32 142.358 309.32C143.978 309.32 145.378 310.66 145.378 312.7V312.74C145.378 314.82 144.018 316.12 142.358 316.12ZM149.956 318H152.396V303.4H149.956V318ZM155.099 305.82H157.699V303.52H155.099V305.82ZM155.179 318H157.619V307.44H155.179V318ZM165.162 318.24C167.222 318.24 168.442 317.44 169.482 316.26L168.022 314.82C167.242 315.6 166.422 316.12 165.282 316.12C163.422 316.12 162.122 314.62 162.122 312.74V312.7C162.122 310.86 163.422 309.34 165.182 309.34C166.382 309.34 167.162 309.88 167.902 310.66L169.422 309.04C168.402 307.96 167.182 307.22 165.202 307.22C162.022 307.22 159.702 309.74 159.702 312.74V312.78C159.702 315.78 162.022 318.24 165.162 318.24ZM174.248 318.22C175.868 318.22 176.968 317.54 177.688 316.68V318H180.048V311.74C180.048 310.36 179.688 309.26 178.908 308.48C178.148 307.7 176.988 307.3 175.408 307.3C173.728 307.3 172.588 307.66 171.408 308.16L172.068 310.06C173.028 309.66 173.888 309.4 175.088 309.4C176.788 309.4 177.708 310.18 177.708 311.7V311.96C176.888 311.7 176.068 311.52 174.868 311.52C172.288 311.52 170.488 312.62 170.488 314.92V314.96C170.488 317.1 172.268 318.22 174.248 318.22ZM174.928 316.46C173.748 316.46 172.868 315.88 172.868 314.86V314.82C172.868 313.7 173.768 313.06 175.348 313.06C176.308 313.06 177.128 313.24 177.748 313.48V314.2C177.748 315.56 176.528 316.46 174.928 316.46ZM185.888 318.18C186.828 318.18 187.448 317.98 188.068 317.64V315.66C187.588 315.9 187.088 316.02 186.568 316.02C185.748 316.02 185.268 315.64 185.268 314.7V309.52H188.108V307.44H185.268V304.54H182.848V307.44H181.508V309.52H182.848V315.08C182.848 317.4 184.108 318.18 185.888 318.18ZM190.111 305.82H192.711V303.52H190.111V305.82ZM190.191 318H192.631V307.44H190.191V318ZM200.313 318.24C203.573 318.24 205.973 315.72 205.973 312.74V312.7C205.973 309.68 203.613 307.22 200.353 307.22C197.113 307.22 194.713 309.72 194.713 312.74V312.78C194.713 315.78 197.093 318.24 200.313 318.24ZM200.353 316.12C198.493 316.12 197.133 314.58 197.133 312.74V312.7C197.133 310.86 198.373 309.34 200.313 309.34C202.213 309.34 203.553 310.88 203.553 312.74V312.78C203.553 314.6 202.333 316.12 200.353 316.12ZM207.918 318H210.358V312.04C210.358 310.38 211.318 309.42 212.738 309.42C214.178 309.42 214.998 310.34 214.998 312V318H217.418V311.26C217.418 308.8 216.058 307.22 213.658 307.22C211.998 307.22 211.058 308.08 210.358 309.06V307.44H207.918V318Z" fill="url(#paint3_linear_2561_14207)"></path><path d="M426.937 58.192C429.017 58.192 430.345 57.44 431.481 56.208L430.217 54.928C429.257 55.824 428.361 56.368 427.001 56.368C424.857 56.368 423.305 54.592 423.305 52.4V52.368C423.305 50.176 424.873 48.432 426.985 48.432C428.281 48.432 429.225 48.976 430.137 49.808L431.401 48.352C430.329 47.328 429.081 46.608 427.001 46.608C423.625 46.608 421.241 49.216 421.241 52.4V52.432C421.241 55.648 423.673 58.192 426.937 58.192ZM432.937 58H434.889V46.32H432.937V58ZM436.951 48.256H439.031V46.416H436.951V48.256ZM437.015 58H438.967V49.552H437.015V58ZM444.869 58.192C446.421 58.192 447.509 57.568 448.325 56.608L447.189 55.6C446.501 56.256 445.861 56.608 444.901 56.608C443.637 56.608 442.677 55.856 442.469 54.464H448.677C448.693 54.272 448.709 54.096 448.709 53.92C448.709 51.488 447.349 49.376 444.661 49.376C442.245 49.376 440.533 51.344 440.533 53.776V53.808C440.533 56.416 442.437 58.192 444.869 58.192ZM442.453 53.184C442.629 51.856 443.445 50.96 444.645 50.96C445.925 50.96 446.661 51.952 446.789 53.184H442.453ZM450.138 58H452.09V53.232C452.09 51.904 452.858 51.136 453.994 51.136C455.146 51.136 455.802 51.872 455.802 53.2V58H457.738V52.608C457.738 50.64 456.65 49.376 454.73 49.376C453.402 49.376 452.65 50.064 452.09 50.848V49.552H450.138V58ZM462.407 58.144C463.159 58.144 463.655 57.984 464.151 57.712V56.128C463.767 56.32 463.367 56.416 462.951 56.416C462.295 56.416 461.911 56.112 461.911 55.36V51.216H464.183V49.552H461.911V47.232H459.975V49.552H458.903V51.216H459.975V55.664C459.975 57.52 460.983 58.144 462.407 58.144ZM470.286 58H472.254V46.8H470.286V58ZM474.753 58H478.929C482.449 58 484.881 55.552 484.881 52.4V52.368C484.881 49.216 482.449 46.8 478.929 46.8H474.753V58ZM478.929 48.592C481.281 48.592 482.817 50.208 482.817 52.4V52.432C482.817 54.624 481.281 56.208 478.929 56.208H476.721V48.592H478.929ZM498.825 58.224L500.297 57.168L498.521 55.376C499.097 54.608 499.593 53.728 500.041 52.832L498.553 52.048C498.185 52.832 497.785 53.568 497.353 54.208L495.433 52.256C496.921 51.696 497.897 50.816 497.897 49.344V49.312C497.897 47.808 496.697 46.608 494.921 46.608C492.937 46.608 491.705 47.92 491.705 49.44V49.472C491.705 50.288 491.993 50.976 492.633 51.808C491.097 52.448 490.233 53.472 490.233 54.928V54.96C490.233 56.896 491.817 58.16 493.913 58.16C495.257 58.16 496.377 57.6 497.337 56.704L498.825 58.224ZM494.393 51.2C493.769 50.512 493.545 50.096 493.545 49.536V49.504C493.545 48.736 494.073 48.16 494.889 48.16C495.641 48.16 496.153 48.672 496.153 49.424V49.456C496.153 50.272 495.545 50.768 494.393 51.2ZM494.105 56.528C493.017 56.528 492.233 55.856 492.233 54.896V54.864C492.233 54.144 492.681 53.456 493.721 53.008L496.217 55.552C495.577 56.176 494.873 56.528 494.105 56.528ZM511.203 58.192C513.283 58.192 514.611 57.44 515.747 56.208L514.483 54.928C513.523 55.824 512.627 56.368 511.267 56.368C509.123 56.368 507.571 54.592 507.571 52.4V52.368C507.571 50.176 509.139 48.432 511.251 48.432C512.547 48.432 513.491 48.976 514.403 49.808L515.667 48.352C514.595 47.328 513.347 46.608 511.267 46.608C507.891 46.608 505.507 49.216 505.507 52.4V52.432C505.507 55.648 507.939 58.192 511.203 58.192ZM520.966 58.192C523.574 58.192 525.494 56.176 525.494 53.792V53.76C525.494 51.344 523.606 49.376 520.998 49.376C518.406 49.376 516.486 51.376 516.486 53.792V53.824C516.486 56.224 518.39 58.192 520.966 58.192ZM520.998 56.496C519.51 56.496 518.422 55.264 518.422 53.792V53.76C518.422 52.288 519.414 51.072 520.966 51.072C522.486 51.072 523.558 52.304 523.558 53.792V53.824C523.558 55.28 522.582 56.496 520.998 56.496ZM530.454 58.176C531.814 58.176 532.71 57.472 533.334 56.592V58H535.27V46.32H533.334V50.864C532.742 50.064 531.83 49.376 530.454 49.376C528.438 49.376 526.534 50.944 526.534 53.76V53.792C526.534 56.608 528.47 58.176 530.454 58.176ZM530.918 56.496C529.59 56.496 528.486 55.424 528.486 53.792V53.76C528.486 52.096 529.59 51.056 530.918 51.056C532.214 51.056 533.366 52.128 533.366 53.76V53.792C533.366 55.408 532.214 56.496 530.918 56.496ZM541.072 58.192C542.624 58.192 543.712 57.568 544.528 56.608L543.392 55.6C542.704 56.256 542.064 56.608 541.104 56.608C539.84 56.608 538.88 55.856 538.672 54.464H544.88C544.896 54.272 544.912 54.096 544.912 53.92C544.912 51.488 543.552 49.376 540.864 49.376C538.448 49.376 536.736 51.344 536.736 53.776V53.808C536.736 56.416 538.64 58.192 541.072 58.192ZM538.656 53.184C538.832 51.856 539.648 50.96 540.848 50.96C542.128 50.96 542.864 51.952 542.992 53.184H538.656ZM556.078 58.192C558.158 58.192 559.486 57.44 560.622 56.208L559.358 54.928C558.398 55.824 557.502 56.368 556.142 56.368C553.998 56.368 552.446 54.592 552.446 52.4V52.368C552.446 50.176 554.014 48.432 556.126 48.432C557.422 48.432 558.366 48.976 559.278 49.808L560.542 48.352C559.47 47.328 558.222 46.608 556.142 46.608C552.766 46.608 550.382 49.216 550.382 52.4V52.432C550.382 55.648 552.814 58.192 556.078 58.192ZM561.966 58H563.918V53.232C563.918 51.904 564.686 51.136 565.822 51.136C566.974 51.136 567.63 51.872 567.63 53.2V58H569.566V52.608C569.566 50.64 568.478 49.376 566.558 49.376C565.23 49.376 564.478 50.064 563.918 50.848V46.32H561.966V58ZM573.836 58.176C575.132 58.176 576.012 57.632 576.588 56.944V58H578.476V52.992C578.476 51.888 578.188 51.008 577.564 50.384C576.956 49.76 576.028 49.44 574.764 49.44C573.42 49.44 572.508 49.728 571.564 50.128L572.092 51.648C572.86 51.328 573.548 51.12 574.508 51.12C575.868 51.12 576.604 51.744 576.604 52.96V53.168C575.948 52.96 575.292 52.816 574.332 52.816C572.268 52.816 570.828 53.696 570.828 55.536V55.568C570.828 57.28 572.252 58.176 573.836 58.176ZM574.38 56.768C573.436 56.768 572.732 56.304 572.732 55.488V55.456C572.732 54.56 573.452 54.048 574.716 54.048C575.484 54.048 576.14 54.192 576.636 54.384V54.96C576.636 56.048 575.66 56.768 574.38 56.768ZM580.39 58H582.342V46.32H580.39V58ZM584.468 58H586.42V46.32H584.468V58ZM592.322 58.192C593.874 58.192 594.962 57.568 595.778 56.608L594.642 55.6C593.954 56.256 593.314 56.608 592.354 56.608C591.09 56.608 590.13 55.856 589.922 54.464H596.13C596.146 54.272 596.162 54.096 596.162 53.92C596.162 51.488 594.802 49.376 592.114 49.376C589.698 49.376 587.986 51.344 587.986 53.776V53.808C587.986 56.416 589.89 58.192 592.322 58.192ZM589.906 53.184C590.082 51.856 590.898 50.96 592.098 50.96C593.378 50.96 594.114 51.952 594.242 53.184H589.906ZM597.591 58H599.543V53.232C599.543 51.904 600.311 51.136 601.447 51.136C602.599 51.136 603.255 51.872 603.255 53.2V58H605.191V52.608C605.191 50.64 604.103 49.376 602.183 49.376C600.855 49.376 600.103 50.064 599.543 50.848V49.552H597.591V58ZM610.789 60.592C612.325 60.592 613.493 60.224 614.26 59.456C614.981 58.736 615.333 57.68 615.333 56.272V49.552H613.397V50.816C612.741 50.032 611.861 49.376 610.437 49.376C608.453 49.376 606.597 50.848 606.597 53.344V53.376C606.597 55.856 608.437 57.328 610.437 57.328C611.829 57.328 612.709 56.688 613.413 55.792V56.432C613.413 58.144 612.469 59.008 610.741 59.008C609.589 59.008 608.645 58.688 607.733 58.128L607.013 59.584C608.117 60.256 609.381 60.592 610.789 60.592ZM610.949 55.68C609.621 55.68 608.549 54.736 608.549 53.36V53.328C608.549 51.936 609.605 51.024 610.949 51.024C612.293 51.024 613.429 51.968 613.429 53.328V53.36C613.429 54.736 612.293 55.68 610.949 55.68ZM621.135 58.192C622.687 58.192 623.775 57.568 624.591 56.608L623.455 55.6C622.767 56.256 622.127 56.608 621.167 56.608C619.903 56.608 618.943 55.856 618.735 54.464H624.943C624.959 54.272 624.975 54.096 624.975 53.92C624.975 51.488 623.615 49.376 620.927 49.376C618.511 49.376 616.799 51.344 616.799 53.776V53.808C616.799 56.416 618.703 58.192 621.135 58.192ZM618.719 53.184C618.895 51.856 619.711 50.96 620.911 50.96C622.191 50.96 622.927 51.952 623.055 53.184H618.719Z" fill="black"></path><path d="M447.808 114H449.824L450.976 111.296H456.272L457.408 114H459.488L454.56 102.72H452.736L447.808 114ZM451.696 109.552L453.616 105.072L455.552 109.552H451.696ZM463.441 114.176C464.737 114.176 465.521 113.504 466.081 112.688V114H468.033V105.552H466.081V110.32C466.081 111.648 465.313 112.4 464.177 112.4C463.025 112.4 462.369 111.68 462.369 110.352V105.552H460.433V110.928C460.433 112.912 461.521 114.176 463.441 114.176ZM472.782 114.144C473.534 114.144 474.03 113.984 474.526 113.712V112.128C474.142 112.32 473.742 112.416 473.326 112.416C472.67 112.416 472.286 112.112 472.286 111.36V107.216H474.558V105.552H472.286V103.232H470.35V105.552H469.278V107.216H470.35V111.664C470.35 113.52 471.358 114.144 472.782 114.144ZM476.013 114H477.965V109.232C477.965 107.904 478.733 107.136 479.869 107.136C481.021 107.136 481.677 107.872 481.677 109.2V114H483.613V108.608C483.613 106.64 482.525 105.376 480.605 105.376C479.277 105.376 478.525 106.064 477.965 106.848V102.32H476.013V114ZM489.466 114.192C492.074 114.192 493.994 112.176 493.994 109.792V109.76C493.994 107.344 492.106 105.376 489.498 105.376C486.906 105.376 484.986 107.376 484.986 109.792V109.824C484.986 112.224 486.89 114.192 489.466 114.192ZM489.498 112.496C488.01 112.496 486.922 111.264 486.922 109.792V109.76C486.922 108.288 487.914 107.072 489.466 107.072C490.986 107.072 492.058 108.304 492.058 109.792V109.824C492.058 111.28 491.082 112.496 489.498 112.496ZM495.45 114H497.402V110.784C497.402 108.544 498.57 107.44 500.282 107.44H500.394V105.392C498.906 105.328 497.93 106.176 497.402 107.456V105.552H495.45V114ZM501.607 104.256H503.687V102.416H501.607V104.256ZM501.671 114H503.623V105.552H501.671V114ZM505.27 114H512.614V112.416H507.734L512.614 106.88V105.552H505.446V107.136H510.15L505.27 112.672V114ZM516.539 114.176C517.835 114.176 518.715 113.632 519.291 112.944V114H521.179V108.992C521.179 107.888 520.891 107.008 520.267 106.384C519.659 105.76 518.731 105.44 517.467 105.44C516.123 105.44 515.211 105.728 514.267 106.128L514.795 107.648C515.563 107.328 516.251 107.12 517.211 107.12C518.571 107.12 519.307 107.744 519.307 108.96V109.168C518.651 108.96 517.995 108.816 517.035 108.816C514.971 108.816 513.531 109.696 513.531 111.536V111.568C513.531 113.28 514.955 114.176 516.539 114.176ZM517.083 112.768C516.139 112.768 515.435 112.304 515.435 111.488V111.456C515.435 110.56 516.155 110.048 517.419 110.048C518.187 110.048 518.843 110.192 519.339 110.384V110.96C519.339 112.048 518.363 112.768 517.083 112.768ZM525.751 114.144C526.503 114.144 526.999 113.984 527.495 113.712V112.128C527.111 112.32 526.711 112.416 526.295 112.416C525.639 112.416 525.255 112.112 525.255 111.36V107.216H527.527V105.552H525.255V103.232H523.319V105.552H522.247V107.216H523.319V111.664C523.319 113.52 524.327 114.144 525.751 114.144ZM529.029 104.256H531.109V102.416H529.029V104.256ZM529.093 114H531.045V105.552H529.093V114ZM537.091 114.192C539.699 114.192 541.619 112.176 541.619 109.792V109.76C541.619 107.344 539.731 105.376 537.123 105.376C534.531 105.376 532.611 107.376 532.611 109.792V109.824C532.611 112.224 534.515 114.192 537.091 114.192ZM537.123 112.496C535.635 112.496 534.547 111.264 534.547 109.792V109.76C534.547 108.288 535.539 107.072 537.091 107.072C538.611 107.072 539.683 108.304 539.683 109.792V109.824C539.683 111.28 538.707 112.496 537.123 112.496ZM543.075 114H545.027V109.232C545.027 107.904 545.795 107.136 546.931 107.136C548.083 107.136 548.739 107.872 548.739 109.2V114H550.675V108.608C550.675 106.64 549.587 105.376 547.667 105.376C546.339 105.376 545.587 106.064 545.027 106.848V105.552H543.075V114ZM562.234 114.192C564.314 114.192 565.642 113.44 566.778 112.208L565.514 110.928C564.554 111.824 563.658 112.368 562.298 112.368C560.154 112.368 558.602 110.592 558.602 108.4V108.368C558.602 106.176 560.17 104.432 562.282 104.432C563.578 104.432 564.522 104.976 565.434 105.808L566.698 104.352C565.626 103.328 564.378 102.608 562.298 102.608C558.922 102.608 556.538 105.216 556.538 108.4V108.432C556.538 111.648 558.97 114.192 562.234 114.192ZM571.998 114.192C574.606 114.192 576.526 112.176 576.526 109.792V109.76C576.526 107.344 574.638 105.376 572.03 105.376C569.438 105.376 567.518 107.376 567.518 109.792V109.824C567.518 112.224 569.422 114.192 571.998 114.192ZM572.03 112.496C570.542 112.496 569.454 111.264 569.454 109.792V109.76C569.454 108.288 570.446 107.072 571.998 107.072C573.518 107.072 574.59 108.304 574.59 109.792V109.824C574.59 111.28 573.614 112.496 572.03 112.496ZM581.485 114.176C582.845 114.176 583.741 113.472 584.365 112.592V114H586.301V102.32H584.365V106.864C583.773 106.064 582.861 105.376 581.485 105.376C579.469 105.376 577.565 106.944 577.565 109.76V109.792C577.565 112.608 579.501 114.176 581.485 114.176ZM581.949 112.496C580.621 112.496 579.517 111.424 579.517 109.792V109.76C579.517 108.096 580.621 107.056 581.949 107.056C583.245 107.056 584.397 108.128 584.397 109.76V109.792C584.397 111.408 583.245 112.496 581.949 112.496ZM592.104 114.192C593.656 114.192 594.744 113.568 595.56 112.608L594.424 111.6C593.736 112.256 593.096 112.608 592.136 112.608C590.872 112.608 589.912 111.856 589.704 110.464H595.912C595.928 110.272 595.944 110.096 595.944 109.92C595.944 107.488 594.584 105.376 591.896 105.376C589.48 105.376 587.768 107.344 587.768 109.776V109.808C587.768 112.416 589.672 114.192 592.104 114.192ZM589.688 109.184C589.864 107.856 590.68 106.96 591.88 106.96C593.16 106.96 593.896 107.952 594.024 109.184H589.688Z" fill="black"></path><path d="M388.714 277H390.73L391.882 274.296H397.178L398.314 277H400.394L395.466 265.72H393.642L388.714 277ZM392.602 272.552L394.522 268.072L396.458 272.552H392.602ZM404.347 277.176C405.643 277.176 406.427 276.504 406.987 275.688V277H408.939V268.552H406.987V273.32C406.987 274.648 406.219 275.4 405.083 275.4C403.931 275.4 403.275 274.68 403.275 273.352V268.552H401.339V273.928C401.339 275.912 402.427 277.176 404.347 277.176ZM413.689 277.144C414.441 277.144 414.937 276.984 415.433 276.712V275.128C415.049 275.32 414.649 275.416 414.233 275.416C413.577 275.416 413.193 275.112 413.193 274.36V270.216H415.465V268.552H413.193V266.232H411.257V268.552H410.185V270.216H411.257V274.664C411.257 276.52 412.265 277.144 413.689 277.144ZM416.919 277H418.871V272.232C418.871 270.904 419.639 270.136 420.775 270.136C421.927 270.136 422.583 270.872 422.583 272.2V277H424.519V271.608C424.519 269.64 423.431 268.376 421.511 268.376C420.183 268.376 419.431 269.064 418.871 269.848V265.32H416.919V277ZM430.373 277.192C432.981 277.192 434.901 275.176 434.901 272.792V272.76C434.901 270.344 433.013 268.376 430.405 268.376C427.813 268.376 425.893 270.376 425.893 272.792V272.824C425.893 275.224 427.797 277.192 430.373 277.192ZM430.405 275.496C428.917 275.496 427.829 274.264 427.829 272.792V272.76C427.829 271.288 428.821 270.072 430.373 270.072C431.893 270.072 432.965 271.304 432.965 272.792V272.824C432.965 274.28 431.989 275.496 430.405 275.496ZM436.356 277H438.308V273.784C438.308 271.544 439.476 270.44 441.188 270.44H441.3V268.392C439.812 268.328 438.836 269.176 438.308 270.456V268.552H436.356V277ZM442.514 267.256H444.594V265.416H442.514V267.256ZM442.578 277H444.53V268.552H442.578V277ZM446.176 277H453.52V275.416H448.64L453.52 269.88V268.552H446.352V270.136H451.056L446.176 275.672V277ZM457.445 277.176C458.741 277.176 459.621 276.632 460.197 275.944V277H462.085V271.992C462.085 270.888 461.797 270.008 461.173 269.384C460.565 268.76 459.637 268.44 458.373 268.44C457.029 268.44 456.117 268.728 455.173 269.128L455.701 270.648C456.469 270.328 457.157 270.12 458.117 270.12C459.477 270.12 460.213 270.744 460.213 271.96V272.168C459.557 271.96 458.901 271.816 457.941 271.816C455.877 271.816 454.437 272.696 454.437 274.536V274.568C454.437 276.28 455.861 277.176 457.445 277.176ZM457.989 275.768C457.045 275.768 456.341 275.304 456.341 274.488V274.456C456.341 273.56 457.061 273.048 458.325 273.048C459.093 273.048 459.749 273.192 460.245 273.384V273.96C460.245 275.048 459.269 275.768 457.989 275.768ZM466.657 277.144C467.409 277.144 467.905 276.984 468.401 276.712V275.128C468.017 275.32 467.617 275.416 467.201 275.416C466.545 275.416 466.161 275.112 466.161 274.36V270.216H468.433V268.552H466.161V266.232H464.225V268.552H463.153V270.216H464.225V274.664C464.225 276.52 465.233 277.144 466.657 277.144ZM469.936 267.256H472.016V265.416H469.936V267.256ZM470 277H471.952V268.552H470V277ZM477.998 277.192C480.606 277.192 482.526 275.176 482.526 272.792V272.76C482.526 270.344 480.638 268.376 478.03 268.376C475.438 268.376 473.518 270.376 473.518 272.792V272.824C473.518 275.224 475.422 277.192 477.998 277.192ZM478.03 275.496C476.542 275.496 475.454 274.264 475.454 272.792V272.76C475.454 271.288 476.446 270.072 477.998 270.072C479.518 270.072 480.59 271.304 480.59 272.792V272.824C480.59 274.28 479.614 275.496 478.03 275.496ZM483.981 277H485.933V272.232C485.933 270.904 486.701 270.136 487.837 270.136C488.989 270.136 489.645 270.872 489.645 272.2V277H491.581V271.608C491.581 269.64 490.493 268.376 488.573 268.376C487.245 268.376 486.493 269.064 485.933 269.848V268.552H483.981V277ZM503.14 277.192C505.22 277.192 506.548 276.44 507.684 275.208L506.42 273.928C505.46 274.824 504.564 275.368 503.204 275.368C501.06 275.368 499.508 273.592 499.508 271.4V271.368C499.508 269.176 501.076 267.432 503.188 267.432C504.484 267.432 505.428 267.976 506.34 268.808L507.604 267.352C506.532 266.328 505.284 265.608 503.204 265.608C499.828 265.608 497.444 268.216 497.444 271.4V271.432C497.444 274.648 499.876 277.192 503.14 277.192ZM512.904 277.192C515.512 277.192 517.432 275.176 517.432 272.792V272.76C517.432 270.344 515.544 268.376 512.936 268.376C510.344 268.376 508.424 270.376 508.424 272.792V272.824C508.424 275.224 510.328 277.192 512.904 277.192ZM512.936 275.496C511.448 275.496 510.36 274.264 510.36 272.792V272.76C510.36 271.288 511.352 270.072 512.904 270.072C514.424 270.072 515.496 271.304 515.496 272.792V272.824C515.496 274.28 514.52 275.496 512.936 275.496ZM522.391 277.176C523.752 277.176 524.648 276.472 525.272 275.592V277H527.208V265.32H525.272V269.864C524.68 269.064 523.768 268.376 522.391 268.376C520.376 268.376 518.472 269.944 518.472 272.76V272.792C518.472 275.608 520.408 277.176 522.391 277.176ZM522.856 275.496C521.528 275.496 520.424 274.424 520.424 272.792V272.76C520.424 271.096 521.528 270.056 522.856 270.056C524.152 270.056 525.304 271.128 525.304 272.76V272.792C525.304 274.408 524.152 275.496 522.856 275.496ZM533.01 277.192C534.562 277.192 535.65 276.568 536.466 275.608L535.33 274.6C534.642 275.256 534.002 275.608 533.042 275.608C531.778 275.608 530.818 274.856 530.61 273.464H536.818C536.834 273.272 536.85 273.096 536.85 272.92C536.85 270.488 535.49 268.376 532.802 268.376C530.386 268.376 528.674 270.344 528.674 272.776V272.808C528.674 275.416 530.578 277.192 533.01 277.192ZM530.594 272.184C530.77 270.856 531.586 269.96 532.786 269.96C534.066 269.96 534.802 270.952 534.93 272.184H530.594ZM550.575 277.224L552.047 276.168L550.271 274.376C550.847 273.608 551.343 272.728 551.791 271.832L550.303 271.048C549.935 271.832 549.535 272.568 549.103 273.208L547.183 271.256C548.671 270.696 549.647 269.816 549.647 268.344V268.312C549.647 266.808 548.447 265.608 546.671 265.608C544.687 265.608 543.455 266.92 543.455 268.44V268.472C543.455 269.288 543.743 269.976 544.383 270.808C542.847 271.448 541.983 272.472 541.983 273.928V273.96C541.983 275.896 543.567 277.16 545.663 277.16C547.007 277.16 548.127 276.6 549.087 275.704L550.575 277.224ZM546.143 270.2C545.519 269.512 545.295 269.096 545.295 268.536V268.504C545.295 267.736 545.823 267.16 546.639 267.16C547.391 267.16 547.903 267.672 547.903 268.424V268.456C547.903 269.272 547.295 269.768 546.143 270.2ZM545.855 275.528C544.767 275.528 543.983 274.856 543.983 273.896V273.864C543.983 273.144 544.431 272.456 545.471 272.008L547.967 274.552C547.327 275.176 546.623 275.528 545.855 275.528ZM562.953 277.192C565.033 277.192 566.361 276.44 567.497 275.208L566.233 273.928C565.273 274.824 564.377 275.368 563.017 275.368C560.873 275.368 559.321 273.592 559.321 271.4V271.368C559.321 269.176 560.889 267.432 563.001 267.432C564.297 267.432 565.241 267.976 566.153 268.808L567.417 267.352C566.345 266.328 565.097 265.608 563.017 265.608C559.641 265.608 557.257 268.216 557.257 271.4V271.432C557.257 274.648 559.689 277.192 562.953 277.192ZM572.716 277.192C575.324 277.192 577.244 275.176 577.244 272.792V272.76C577.244 270.344 575.356 268.376 572.748 268.376C570.156 268.376 568.236 270.376 568.236 272.792V272.824C568.236 275.224 570.14 277.192 572.716 277.192ZM572.748 275.496C571.26 275.496 570.172 274.264 570.172 272.792V272.76C570.172 271.288 571.164 270.072 572.716 270.072C574.236 270.072 575.308 271.304 575.308 272.792V272.824C575.308 274.28 574.332 275.496 572.748 275.496ZM582.204 277.176C583.564 277.176 584.46 276.472 585.084 275.592V277H587.02V265.32H585.084V269.864C584.492 269.064 583.58 268.376 582.204 268.376C580.188 268.376 578.284 269.944 578.284 272.76V272.792C578.284 275.608 580.22 277.176 582.204 277.176ZM582.668 275.496C581.34 275.496 580.236 274.424 580.236 272.792V272.76C580.236 271.096 581.34 270.056 582.668 270.056C583.964 270.056 585.116 271.128 585.116 272.76V272.792C585.116 274.408 583.964 275.496 582.668 275.496ZM592.822 277.192C594.374 277.192 595.462 276.568 596.278 275.608L595.142 274.6C594.454 275.256 593.814 275.608 592.854 275.608C591.59 275.608 590.63 274.856 590.422 273.464H596.63C596.646 273.272 596.662 273.096 596.662 272.92C596.662 270.488 595.302 268.376 592.614 268.376C590.198 268.376 588.486 270.344 588.486 272.776V272.808C588.486 275.416 590.39 277.192 592.822 277.192ZM590.406 272.184C590.582 270.856 591.398 269.96 592.598 269.96C593.878 269.96 594.614 270.952 594.742 272.184H590.406ZM606.308 277.08H608.068L612.708 265.8H610.58L607.22 274.408L603.844 265.8H601.668L606.308 277.08ZM616.651 277.192C618.203 277.192 619.291 276.568 620.107 275.608L618.971 274.6C618.283 275.256 617.643 275.608 616.683 275.608C615.419 275.608 614.459 274.856 614.251 273.464H620.459C620.475 273.272 620.491 273.096 620.491 272.92C620.491 270.488 619.131 268.376 616.443 268.376C614.027 268.376 612.315 270.344 612.315 272.776V272.808C612.315 275.416 614.219 277.192 616.651 277.192ZM614.235 272.184C614.411 270.856 615.227 269.96 616.427 269.96C617.707 269.96 618.443 270.952 618.571 272.184H614.235ZM621.919 277H623.871V273.784C623.871 271.544 625.039 270.44 626.751 270.44H626.863V268.392C625.375 268.328 624.399 269.176 623.871 270.456V268.552H621.919V277ZM628.076 267.256H630.156V265.416H628.076V267.256ZM628.14 277H630.092V268.552H628.14V277ZM632.554 277H634.49V270.216H636.698V268.616H634.458V268.152C634.458 267.304 634.826 266.872 635.578 266.872C636.01 266.872 636.33 266.952 636.714 267.08V265.448C636.282 265.32 635.818 265.224 635.13 265.224C634.314 265.224 633.69 265.448 633.242 265.896C632.778 266.36 632.554 267.048 632.554 267.976V268.6H631.482V270.216H632.554V277ZM638.234 277H640.186V268.552H638.234V277ZM638.17 267.256H640.25V265.416H638.17V267.256ZM646.088 277.192C647.64 277.192 648.728 276.568 649.544 275.608L648.408 274.6C647.72 275.256 647.08 275.608 646.12 275.608C644.856 275.608 643.896 274.856 643.688 273.464H649.896C649.912 273.272 649.928 273.096 649.928 272.92C649.928 270.488 648.568 268.376 645.88 268.376C643.464 268.376 641.752 270.344 641.752 272.776V272.808C641.752 275.416 643.656 277.192 646.088 277.192ZM643.672 272.184C643.848 270.856 644.664 269.96 645.864 269.96C647.144 269.96 647.88 270.952 648.008 272.184H643.672ZM651.356 277H653.308V273.784C653.308 271.544 654.476 270.44 656.188 270.44H656.3V268.392C654.812 268.328 653.836 269.176 653.308 270.456V268.552H651.356V277Z" fill="black"></path><path d="M472.785 496H474.801L475.953 493.296H481.249L482.385 496H484.465L479.537 484.72H477.713L472.785 496ZM476.673 491.552L478.593 487.072L480.529 491.552H476.673ZM489.159 496.192C490.807 496.192 491.783 495.552 492.615 494.608L491.447 493.456C490.823 494.08 490.167 494.496 489.255 494.496C487.767 494.496 486.727 493.296 486.727 491.792V491.76C486.727 490.288 487.767 489.072 489.175 489.072C490.135 489.072 490.759 489.504 491.351 490.128L492.567 488.832C491.751 487.968 490.775 487.376 489.191 487.376C486.647 487.376 484.791 489.392 484.791 491.792V491.824C484.791 494.224 486.647 496.192 489.159 496.192ZM497.565 496.192C499.213 496.192 500.189 495.552 501.021 494.608L499.853 493.456C499.229 494.08 498.573 494.496 497.661 494.496C496.173 494.496 495.133 493.296 495.133 491.792V491.76C495.133 490.288 496.173 489.072 497.581 489.072C498.541 489.072 499.165 489.504 499.757 490.128L500.973 488.832C500.157 487.968 499.181 487.376 497.597 487.376C495.053 487.376 493.197 489.392 493.197 491.792V491.824C493.197 494.224 495.053 496.192 497.565 496.192ZM505.94 496.192C507.492 496.192 508.58 495.568 509.396 494.608L508.26 493.6C507.572 494.256 506.932 494.608 505.972 494.608C504.708 494.608 503.748 493.856 503.54 492.464H509.748C509.764 492.272 509.78 492.096 509.78 491.92C509.78 489.488 508.42 487.376 505.732 487.376C503.316 487.376 501.604 489.344 501.604 491.776V491.808C501.604 494.416 503.508 496.192 505.94 496.192ZM503.524 491.184C503.7 489.856 504.516 488.96 505.716 488.96C506.996 488.96 507.732 489.952 507.86 491.184H503.524ZM514.12 496.16C515.88 496.16 517.256 495.28 517.256 493.504V493.472C517.256 491.952 515.848 491.392 514.632 491.008C513.64 490.704 512.728 490.416 512.728 489.808V489.776C512.728 489.312 513.16 488.944 513.912 488.944C514.616 488.944 515.48 489.248 516.296 489.744L517.064 488.368C516.168 487.776 515.032 487.408 513.96 487.408C512.28 487.408 510.952 488.384 510.952 490V490.032C510.952 491.632 512.36 492.16 513.592 492.496C514.584 492.8 515.48 493.04 515.48 493.68V493.712C515.48 494.272 515 494.624 514.168 494.624C513.288 494.624 512.344 494.272 511.4 493.584L510.536 494.896C511.608 495.744 512.904 496.16 514.12 496.16ZM521.479 496.16C523.239 496.16 524.615 495.28 524.615 493.504V493.472C524.615 491.952 523.207 491.392 521.991 491.008C520.999 490.704 520.087 490.416 520.087 489.808V489.776C520.087 489.312 520.519 488.944 521.271 488.944C521.975 488.944 522.839 489.248 523.655 489.744L524.423 488.368C523.527 487.776 522.391 487.408 521.319 487.408C519.639 487.408 518.311 488.384 518.311 490V490.032C518.311 491.632 519.719 492.16 520.951 492.496C521.943 492.8 522.839 493.04 522.839 493.68V493.712C522.839 494.272 522.359 494.624 521.527 494.624C520.647 494.624 519.703 494.272 518.759 493.584L517.895 494.896C518.967 495.744 520.263 496.16 521.479 496.16ZM533.356 496H535.324V486.624H538.892V484.8H529.788V486.624H533.356V496ZM542.427 496.192C545.035 496.192 546.955 494.176 546.955 491.792V491.76C546.955 489.344 545.067 487.376 542.459 487.376C539.867 487.376 537.947 489.376 537.947 491.792V491.824C537.947 494.224 539.851 496.192 542.427 496.192ZM542.459 494.496C540.971 494.496 539.883 493.264 539.883 491.792V491.76C539.883 490.288 540.875 489.072 542.427 489.072C543.947 489.072 545.019 490.304 545.019 491.792V491.824C545.019 493.28 544.043 494.496 542.459 494.496ZM548.411 496H550.363V493.584L551.563 492.336L554.059 496H556.331L552.859 490.992L556.219 487.552H553.867L550.363 491.296V484.32H548.411V496ZM560.705 496.192C562.257 496.192 563.345 495.568 564.161 494.608L563.025 493.6C562.337 494.256 561.697 494.608 560.737 494.608C559.473 494.608 558.513 493.856 558.305 492.464H564.513C564.529 492.272 564.545 492.096 564.545 491.92C564.545 489.488 563.185 487.376 560.497 487.376C558.081 487.376 556.369 489.344 556.369 491.776V491.808C556.369 494.416 558.273 496.192 560.705 496.192ZM558.289 491.184C558.465 489.856 559.281 488.96 560.481 488.96C561.761 488.96 562.497 489.952 562.625 491.184H558.289ZM565.973 496H567.925V491.232C567.925 489.904 568.693 489.136 569.829 489.136C570.981 489.136 571.637 489.872 571.637 491.2V496H573.573V490.608C573.573 488.64 572.485 487.376 570.565 487.376C569.237 487.376 568.485 488.064 567.925 488.848V487.552H565.973V496Z" fill="black"></path><path d="M505.792 552H509.968C513.488 552 515.92 549.552 515.92 546.4V546.368C515.92 543.216 513.488 540.8 509.968 540.8H505.792V552ZM509.968 542.592C512.32 542.592 513.856 544.208 513.856 546.4V546.432C513.856 548.624 512.32 550.208 509.968 550.208H507.76V542.592H509.968ZM520.015 552.176C521.311 552.176 522.191 551.632 522.767 550.944V552H524.655V546.992C524.655 545.888 524.367 545.008 523.743 544.384C523.135 543.76 522.207 543.44 520.943 543.44C519.599 543.44 518.687 543.728 517.743 544.128L518.271 545.648C519.039 545.328 519.727 545.12 520.687 545.12C522.047 545.12 522.783 545.744 522.783 546.96V547.168C522.127 546.96 521.471 546.816 520.511 546.816C518.447 546.816 517.007 547.696 517.007 549.536V549.568C517.007 551.28 518.431 552.176 520.015 552.176ZM520.559 550.768C519.615 550.768 518.911 550.304 518.911 549.488V549.456C518.911 548.56 519.631 548.048 520.895 548.048C521.663 548.048 522.319 548.192 522.815 548.384V548.96C522.815 550.048 521.839 550.768 520.559 550.768ZM529.228 552.144C529.98 552.144 530.476 551.984 530.972 551.712V550.128C530.588 550.32 530.188 550.416 529.772 550.416C529.116 550.416 528.732 550.112 528.732 549.36V545.216H531.004V543.552H528.732V541.232H526.796V543.552H525.724V545.216H526.796V549.664C526.796 551.52 527.804 552.144 529.228 552.144ZM534.906 552.176C536.202 552.176 537.082 551.632 537.658 550.944V552H539.546V546.992C539.546 545.888 539.258 545.008 538.634 544.384C538.026 543.76 537.098 543.44 535.834 543.44C534.49 543.44 533.578 543.728 532.634 544.128L533.162 545.648C533.93 545.328 534.618 545.12 535.578 545.12C536.938 545.12 537.674 545.744 537.674 546.96V547.168C537.018 546.96 536.362 546.816 535.402 546.816C533.338 546.816 531.898 547.696 531.898 549.536V549.568C531.898 551.28 533.322 552.176 534.906 552.176ZM535.45 550.768C534.506 550.768 533.802 550.304 533.802 549.488V549.456C533.802 548.56 534.522 548.048 535.786 548.048C536.554 548.048 537.21 548.192 537.706 548.384V548.96C537.706 550.048 536.73 550.768 535.45 550.768Z" fill="black"></path><rect x="755.5" y="32.5" width="261" height="95" rx="6.5" fill="#4995CD" stroke="#4995CD" stroke-width="3"></rect><path d="M820.057 75H822.577L824.017 71.62H830.637L832.057 75H834.657L828.497 60.9H826.217L820.057 75ZM824.917 69.44L827.317 63.84L829.737 69.44H824.917ZM839.723 75.22C841.343 75.22 842.323 74.38 843.023 73.36V75H845.463V64.44H843.023V70.4C843.023 72.06 842.063 73 840.643 73C839.203 73 838.383 72.1 838.383 70.44V64.44H835.963V71.16C835.963 73.64 837.323 75.22 839.723 75.22ZM851.525 75.18C852.465 75.18 853.085 74.98 853.705 74.64V72.66C853.225 72.9 852.725 73.02 852.205 73.02C851.385 73.02 850.905 72.64 850.905 71.7V66.52H853.745V64.44H850.905V61.54H848.485V64.44H847.145V66.52H848.485V72.08C848.485 74.4 849.745 75.18 851.525 75.18ZM855.688 75H858.128V69.04C858.128 67.38 859.088 66.42 860.508 66.42C861.948 66.42 862.768 67.34 862.768 69V75H865.188V68.26C865.188 65.8 863.828 64.22 861.428 64.22C859.768 64.22 858.828 65.08 858.128 66.06V60.4H855.688V75ZM872.63 75.24C875.89 75.24 878.29 72.72 878.29 69.74V69.7C878.29 66.68 875.93 64.22 872.67 64.22C869.43 64.22 867.03 66.72 867.03 69.74V69.78C867.03 72.78 869.41 75.24 872.63 75.24ZM872.67 73.12C870.81 73.12 869.45 71.58 869.45 69.74V69.7C869.45 67.86 870.69 66.34 872.63 66.34C874.53 66.34 875.87 67.88 875.87 69.74V69.78C875.87 71.6 874.65 73.12 872.67 73.12ZM880.234 75H882.674V70.98C882.674 68.18 884.134 66.8 886.274 66.8H886.414V64.24C884.554 64.16 883.334 65.22 882.674 66.82V64.44H880.234V75ZM888.056 62.82H890.656V60.52H888.056V62.82ZM888.136 75H890.576V64.44H888.136V75ZM892.759 75H901.939V73.02H895.839L901.939 66.1V64.44H892.979V66.42H898.859L892.759 73.34V75ZM906.97 75.22C908.59 75.22 909.69 74.54 910.41 73.68V75H912.77V68.74C912.77 67.36 912.41 66.26 911.63 65.48C910.87 64.7 909.71 64.3 908.13 64.3C906.45 64.3 905.31 64.66 904.13 65.16L904.79 67.06C905.75 66.66 906.61 66.4 907.81 66.4C909.51 66.4 910.43 67.18 910.43 68.7V68.96C909.61 68.7 908.79 68.52 907.59 68.52C905.01 68.52 903.21 69.62 903.21 71.92V71.96C903.21 74.1 904.99 75.22 906.97 75.22ZM907.65 73.46C906.47 73.46 905.59 72.88 905.59 71.86V71.82C905.59 70.7 906.49 70.06 908.07 70.06C909.03 70.06 909.85 70.24 910.47 70.48V71.2C910.47 72.56 909.25 73.46 907.65 73.46ZM918.611 75.18C919.551 75.18 920.171 74.98 920.791 74.64V72.66C920.311 72.9 919.811 73.02 919.291 73.02C918.471 73.02 917.991 72.64 917.991 71.7V66.52H920.831V64.44H917.991V61.54H915.571V64.44H914.231V66.52H915.571V72.08C915.571 74.4 916.831 75.18 918.611 75.18ZM922.833 62.82H925.433V60.52H922.833V62.82ZM922.913 75H925.353V64.44H922.913V75ZM933.036 75.24C936.296 75.24 938.696 72.72 938.696 69.74V69.7C938.696 66.68 936.336 64.22 933.076 64.22C929.836 64.22 927.436 66.72 927.436 69.74V69.78C927.436 72.78 929.816 75.24 933.036 75.24ZM933.076 73.12C931.216 73.12 929.856 71.58 929.856 69.74V69.7C929.856 67.86 931.096 66.34 933.036 66.34C934.936 66.34 936.276 67.88 936.276 69.74V69.78C936.276 71.6 935.056 73.12 933.076 73.12ZM940.641 75H943.081V69.04C943.081 67.38 944.041 66.42 945.461 66.42C946.901 66.42 947.721 67.34 947.721 69V75H950.141V68.26C950.141 65.8 948.781 64.22 946.381 64.22C944.721 64.22 943.781 65.08 943.081 66.06V64.44H940.641V75ZM842.986 99H853.466V96.8H845.446V93.06H852.466V90.84H845.446V87.2H853.366V85H842.986V99ZM855.584 99H858.024V93.04C858.024 91.38 858.984 90.42 860.404 90.42C861.844 90.42 862.664 91.34 862.664 93V99H865.084V92.26C865.084 89.8 863.724 88.22 861.324 88.22C859.664 88.22 858.724 89.08 858.024 90.06V88.44H855.584V99ZM871.866 99.22C873.566 99.22 874.686 98.34 875.466 97.24V99H877.886V84.4H875.466V90.08C874.726 89.08 873.586 88.22 871.866 88.22C869.346 88.22 866.966 90.18 866.966 93.7V93.74C866.966 97.26 869.386 99.22 871.866 99.22ZM872.446 97.12C870.786 97.12 869.406 95.78 869.406 93.74V93.7C869.406 91.62 870.786 90.32 872.446 90.32C874.066 90.32 875.506 91.66 875.506 93.7V93.74C875.506 95.76 874.066 97.12 872.446 97.12ZM880.404 102.2H882.844V97.36C883.584 98.34 884.684 99.22 886.444 99.22C888.944 99.22 891.344 97.26 891.344 93.74V93.7C891.344 90.18 888.924 88.22 886.444 88.22C884.704 88.22 883.624 89.1 882.844 90.2V88.44H880.404V102.2ZM885.864 97.12C884.204 97.12 882.784 95.76 882.784 93.74V93.7C882.784 91.68 884.204 90.32 885.864 90.32C887.484 90.32 888.884 91.66 888.884 93.7V93.74C888.884 95.82 887.524 97.12 885.864 97.12ZM898.362 99.24C901.622 99.24 904.022 96.72 904.022 93.74V93.7C904.022 90.68 901.662 88.22 898.402 88.22C895.162 88.22 892.762 90.72 892.762 93.74V93.78C892.762 96.78 895.142 99.24 898.362 99.24ZM898.402 97.12C896.542 97.12 895.182 95.58 895.182 93.74V93.7C895.182 91.86 896.422 90.34 898.362 90.34C900.262 90.34 901.602 91.88 901.602 93.74V93.78C901.602 95.6 900.382 97.12 898.402 97.12ZM906.027 86.82H908.627V84.52H906.027V86.82ZM906.107 99H908.547V88.44H906.107V99ZM911.189 99H913.629V93.04C913.629 91.38 914.589 90.42 916.009 90.42C917.449 90.42 918.269 91.34 918.269 93V99H920.689V92.26C920.689 89.8 919.329 88.22 916.929 88.22C915.269 88.22 914.329 89.08 913.629 90.06V88.44H911.189V99ZM926.652 99.18C927.592 99.18 928.212 98.98 928.832 98.64V96.66C928.352 96.9 927.852 97.02 927.332 97.02C926.512 97.02 926.032 96.64 926.032 95.7V90.52H928.872V88.44H926.032V85.54H923.612V88.44H922.272V90.52H923.612V96.08C923.612 98.4 924.872 99.18 926.652 99.18Z" fill="white"></path><path d="M820.057 75H822.577L824.017 71.62H830.637L832.057 75H834.657L828.497 60.9H826.217L820.057 75ZM824.917 69.44L827.317 63.84L829.737 69.44H824.917ZM839.723 75.22C841.343 75.22 842.323 74.38 843.023 73.36V75H845.463V64.44H843.023V70.4C843.023 72.06 842.063 73 840.643 73C839.203 73 838.383 72.1 838.383 70.44V64.44H835.963V71.16C835.963 73.64 837.323 75.22 839.723 75.22ZM851.525 75.18C852.465 75.18 853.085 74.98 853.705 74.64V72.66C853.225 72.9 852.725 73.02 852.205 73.02C851.385 73.02 850.905 72.64 850.905 71.7V66.52H853.745V64.44H850.905V61.54H848.485V64.44H847.145V66.52H848.485V72.08C848.485 74.4 849.745 75.18 851.525 75.18ZM855.688 75H858.128V69.04C858.128 67.38 859.088 66.42 860.508 66.42C861.948 66.42 862.768 67.34 862.768 69V75H865.188V68.26C865.188 65.8 863.828 64.22 861.428 64.22C859.768 64.22 858.828 65.08 858.128 66.06V60.4H855.688V75ZM872.63 75.24C875.89 75.24 878.29 72.72 878.29 69.74V69.7C878.29 66.68 875.93 64.22 872.67 64.22C869.43 64.22 867.03 66.72 867.03 69.74V69.78C867.03 72.78 869.41 75.24 872.63 75.24ZM872.67 73.12C870.81 73.12 869.45 71.58 869.45 69.74V69.7C869.45 67.86 870.69 66.34 872.63 66.34C874.53 66.34 875.87 67.88 875.87 69.74V69.78C875.87 71.6 874.65 73.12 872.67 73.12ZM880.234 75H882.674V70.98C882.674 68.18 884.134 66.8 886.274 66.8H886.414V64.24C884.554 64.16 883.334 65.22 882.674 66.82V64.44H880.234V75ZM888.056 62.82H890.656V60.52H888.056V62.82ZM888.136 75H890.576V64.44H888.136V75ZM892.759 75H901.939V73.02H895.839L901.939 66.1V64.44H892.979V66.42H898.859L892.759 73.34V75ZM906.97 75.22C908.59 75.22 909.69 74.54 910.41 73.68V75H912.77V68.74C912.77 67.36 912.41 66.26 911.63 65.48C910.87 64.7 909.71 64.3 908.13 64.3C906.45 64.3 905.31 64.66 904.13 65.16L904.79 67.06C905.75 66.66 906.61 66.4 907.81 66.4C909.51 66.4 910.43 67.18 910.43 68.7V68.96C909.61 68.7 908.79 68.52 907.59 68.52C905.01 68.52 903.21 69.62 903.21 71.92V71.96C903.21 74.1 904.99 75.22 906.97 75.22ZM907.65 73.46C906.47 73.46 905.59 72.88 905.59 71.86V71.82C905.59 70.7 906.49 70.06 908.07 70.06C909.03 70.06 909.85 70.24 910.47 70.48V71.2C910.47 72.56 909.25 73.46 907.65 73.46ZM918.611 75.18C919.551 75.18 920.171 74.98 920.791 74.64V72.66C920.311 72.9 919.811 73.02 919.291 73.02C918.471 73.02 917.991 72.64 917.991 71.7V66.52H920.831V64.44H917.991V61.54H915.571V64.44H914.231V66.52H915.571V72.08C915.571 74.4 916.831 75.18 918.611 75.18ZM922.833 62.82H925.433V60.52H922.833V62.82ZM922.913 75H925.353V64.44H922.913V75ZM933.036 75.24C936.296 75.24 938.696 72.72 938.696 69.74V69.7C938.696 66.68 936.336 64.22 933.076 64.22C929.836 64.22 927.436 66.72 927.436 69.74V69.78C927.436 72.78 929.816 75.24 933.036 75.24ZM933.076 73.12C931.216 73.12 929.856 71.58 929.856 69.74V69.7C929.856 67.86 931.096 66.34 933.036 66.34C934.936 66.34 936.276 67.88 936.276 69.74V69.78C936.276 71.6 935.056 73.12 933.076 73.12ZM940.641 75H943.081V69.04C943.081 67.38 944.041 66.42 945.461 66.42C946.901 66.42 947.721 67.34 947.721 69V75H950.141V68.26C950.141 65.8 948.781 64.22 946.381 64.22C944.721 64.22 943.781 65.08 943.081 66.06V64.44H940.641V75ZM842.986 99H853.466V96.8H845.446V93.06H852.466V90.84H845.446V87.2H853.366V85H842.986V99ZM855.584 99H858.024V93.04C858.024 91.38 858.984 90.42 860.404 90.42C861.844 90.42 862.664 91.34 862.664 93V99H865.084V92.26C865.084 89.8 863.724 88.22 861.324 88.22C859.664 88.22 858.724 89.08 858.024 90.06V88.44H855.584V99ZM871.866 99.22C873.566 99.22 874.686 98.34 875.466 97.24V99H877.886V84.4H875.466V90.08C874.726 89.08 873.586 88.22 871.866 88.22C869.346 88.22 866.966 90.18 866.966 93.7V93.74C866.966 97.26 869.386 99.22 871.866 99.22ZM872.446 97.12C870.786 97.12 869.406 95.78 869.406 93.74V93.7C869.406 91.62 870.786 90.32 872.446 90.32C874.066 90.32 875.506 91.66 875.506 93.7V93.74C875.506 95.76 874.066 97.12 872.446 97.12ZM880.404 102.2H882.844V97.36C883.584 98.34 884.684 99.22 886.444 99.22C888.944 99.22 891.344 97.26 891.344 93.74V93.7C891.344 90.18 888.924 88.22 886.444 88.22C884.704 88.22 883.624 89.1 882.844 90.2V88.44H880.404V102.2ZM885.864 97.12C884.204 97.12 882.784 95.76 882.784 93.74V93.7C882.784 91.68 884.204 90.32 885.864 90.32C887.484 90.32 888.884 91.66 888.884 93.7V93.74C888.884 95.82 887.524 97.12 885.864 97.12ZM898.362 99.24C901.622 99.24 904.022 96.72 904.022 93.74V93.7C904.022 90.68 901.662 88.22 898.402 88.22C895.162 88.22 892.762 90.72 892.762 93.74V93.78C892.762 96.78 895.142 99.24 898.362 99.24ZM898.402 97.12C896.542 97.12 895.182 95.58 895.182 93.74V93.7C895.182 91.86 896.422 90.34 898.362 90.34C900.262 90.34 901.602 91.88 901.602 93.74V93.78C901.602 95.6 900.382 97.12 898.402 97.12ZM906.027 86.82H908.627V84.52H906.027V86.82ZM906.107 99H908.547V88.44H906.107V99ZM911.189 99H913.629V93.04C913.629 91.38 914.589 90.42 916.009 90.42C917.449 90.42 918.269 91.34 918.269 93V99H920.689V92.26C920.689 89.8 919.329 88.22 916.929 88.22C915.269 88.22 914.329 89.08 913.629 90.06V88.44H911.189V99ZM926.652 99.18C927.592 99.18 928.212 98.98 928.832 98.64V96.66C928.352 96.9 927.852 97.02 927.332 97.02C926.512 97.02 926.032 96.64 926.032 95.7V90.52H928.872V88.44H926.032V85.54H923.612V88.44H922.272V90.52H923.612V96.08C923.612 98.4 924.872 99.18 926.652 99.18Z" fill="url(#paint4_linear_2561_14207)"></path><path d="M727 325H667V327H727V325Z" fill="black"></path><path d="M335 314L336.667 315.667L327.667 324.833H384V327.167H327.667L336.667 336.333L335 338L323 326L335 314Z" fill="black"></path><path d="M411.761 332H413.777L414.929 329.296H420.225L421.361 332H423.441L418.513 320.72H416.689L411.761 332ZM415.649 327.552L417.569 323.072L419.505 327.552H415.649ZM428.136 332.192C429.784 332.192 430.76 331.552 431.592 330.608L430.424 329.456C429.8 330.08 429.144 330.496 428.232 330.496C426.744 330.496 425.704 329.296 425.704 327.792V327.76C425.704 326.288 426.744 325.072 428.152 325.072C429.112 325.072 429.736 325.504 430.328 326.128L431.544 324.832C430.728 323.968 429.752 323.376 428.168 323.376C425.624 323.376 423.768 325.392 423.768 327.792V327.824C423.768 330.224 425.624 332.192 428.136 332.192ZM436.542 332.192C438.19 332.192 439.166 331.552 439.998 330.608L438.83 329.456C438.206 330.08 437.55 330.496 436.638 330.496C435.15 330.496 434.11 329.296 434.11 327.792V327.76C434.11 326.288 435.15 325.072 436.558 325.072C437.518 325.072 438.142 325.504 438.734 326.128L439.95 324.832C439.134 323.968 438.158 323.376 436.574 323.376C434.03 323.376 432.174 325.392 432.174 327.792V327.824C432.174 330.224 434.03 332.192 436.542 332.192ZM444.916 332.192C446.468 332.192 447.556 331.568 448.372 330.608L447.236 329.6C446.548 330.256 445.908 330.608 444.948 330.608C443.684 330.608 442.724 329.856 442.516 328.464H448.724C448.74 328.272 448.756 328.096 448.756 327.92C448.756 325.488 447.396 323.376 444.708 323.376C442.292 323.376 440.58 325.344 440.58 327.776V327.808C440.58 330.416 442.484 332.192 444.916 332.192ZM442.5 327.184C442.676 325.856 443.492 324.96 444.692 324.96C445.972 324.96 446.708 325.952 446.836 327.184H442.5ZM453.096 332.16C454.856 332.16 456.232 331.28 456.232 329.504V329.472C456.232 327.952 454.824 327.392 453.608 327.008C452.616 326.704 451.704 326.416 451.704 325.808V325.776C451.704 325.312 452.136 324.944 452.888 324.944C453.592 324.944 454.456 325.248 455.272 325.744L456.04 324.368C455.144 323.776 454.008 323.408 452.936 323.408C451.256 323.408 449.928 324.384 449.928 326V326.032C449.928 327.632 451.336 328.16 452.568 328.496C453.56 328.8 454.456 329.04 454.456 329.68V329.712C454.456 330.272 453.976 330.624 453.144 330.624C452.264 330.624 451.32 330.272 450.376 329.584L449.512 330.896C450.584 331.744 451.88 332.16 453.096 332.16ZM460.456 332.16C462.216 332.16 463.592 331.28 463.592 329.504V329.472C463.592 327.952 462.184 327.392 460.968 327.008C459.976 326.704 459.064 326.416 459.064 325.808V325.776C459.064 325.312 459.496 324.944 460.248 324.944C460.952 324.944 461.816 325.248 462.632 325.744L463.4 324.368C462.504 323.776 461.368 323.408 460.296 323.408C458.616 323.408 457.288 324.384 457.288 326V326.032C457.288 327.632 458.696 328.16 459.928 328.496C460.92 328.8 461.816 329.04 461.816 329.68V329.712C461.816 330.272 461.336 330.624 460.504 330.624C459.624 330.624 458.68 330.272 457.736 329.584L456.872 330.896C457.944 331.744 459.24 332.16 460.456 332.16ZM472.332 332H474.3V322.624H477.868V320.8H468.764V322.624H472.332V332ZM481.404 332.192C484.012 332.192 485.932 330.176 485.932 327.792V327.76C485.932 325.344 484.044 323.376 481.436 323.376C478.844 323.376 476.924 325.376 476.924 327.792V327.824C476.924 330.224 478.828 332.192 481.404 332.192ZM481.436 330.496C479.948 330.496 478.86 329.264 478.86 327.792V327.76C478.86 326.288 479.852 325.072 481.404 325.072C482.924 325.072 483.996 326.304 483.996 327.792V327.824C483.996 329.28 483.02 330.496 481.436 330.496ZM487.388 332H489.34V329.584L490.54 328.336L493.036 332H495.308L491.836 326.992L495.196 323.552H492.844L489.34 327.296V320.32H487.388V332ZM499.682 332.192C501.234 332.192 502.322 331.568 503.138 330.608L502.002 329.6C501.314 330.256 500.674 330.608 499.714 330.608C498.45 330.608 497.49 329.856 497.282 328.464H503.49C503.506 328.272 503.522 328.096 503.522 327.92C503.522 325.488 502.162 323.376 499.474 323.376C497.058 323.376 495.346 325.344 495.346 327.776V327.808C495.346 330.416 497.25 332.192 499.682 332.192ZM497.266 327.184C497.442 325.856 498.258 324.96 499.458 324.96C500.738 324.96 501.474 325.952 501.602 327.184H497.266ZM504.95 332H506.902V327.232C506.902 325.904 507.67 325.136 508.806 325.136C509.958 325.136 510.614 325.872 510.614 327.2V332H512.55V326.608C512.55 324.64 511.462 323.376 509.542 323.376C508.214 323.376 507.462 324.064 506.902 324.848V323.552H504.95V332ZM526.669 332.224L528.141 331.168L526.365 329.376C526.941 328.608 527.437 327.728 527.885 326.832L526.397 326.048C526.029 326.832 525.629 327.568 525.197 328.208L523.277 326.256C524.765 325.696 525.741 324.816 525.741 323.344V323.312C525.741 321.808 524.541 320.608 522.765 320.608C520.781 320.608 519.549 321.92 519.549 323.44V323.472C519.549 324.288 519.837 324.976 520.477 325.808C518.941 326.448 518.077 327.472 518.077 328.928V328.96C518.077 330.896 519.661 332.16 521.757 332.16C523.101 332.16 524.221 331.6 525.181 330.704L526.669 332.224ZM522.237 325.2C521.613 324.512 521.389 324.096 521.389 323.536V323.504C521.389 322.736 521.917 322.16 522.733 322.16C523.485 322.16 523.997 322.672 523.997 323.424V323.456C523.997 324.272 523.389 324.768 522.237 325.2ZM521.949 330.528C520.861 330.528 520.077 329.856 520.077 328.896V328.864C520.077 328.144 520.525 327.456 521.565 327.008L524.061 329.552C523.421 330.176 522.717 330.528 521.949 330.528ZM533.846 332H535.814V328.096H538.278L541.03 332H543.366L540.342 327.76C541.894 327.312 542.998 326.208 542.998 324.368V324.336C542.998 323.36 542.662 322.544 542.07 321.92C541.35 321.216 540.246 320.8 538.838 320.8H533.846V332ZM535.814 326.352V322.592H538.678C540.15 322.592 540.998 323.232 540.998 324.448V324.48C540.998 325.632 540.102 326.352 538.694 326.352H535.814ZM548.401 332.192C549.953 332.192 551.041 331.568 551.857 330.608L550.721 329.6C550.033 330.256 549.393 330.608 548.433 330.608C547.169 330.608 546.209 329.856 546.001 328.464H552.209C552.225 328.272 552.241 328.096 552.241 327.92C552.241 325.488 550.881 323.376 548.193 323.376C545.777 323.376 544.065 325.344 544.065 327.776V327.808C544.065 330.416 545.969 332.192 548.401 332.192ZM545.985 327.184C546.161 325.856 546.977 324.96 548.177 324.96C549.457 324.96 550.193 325.952 550.321 327.184H545.985ZM554.117 332H556.053V325.216H558.261V323.616H556.021V323.152C556.021 322.304 556.389 321.872 557.141 321.872C557.573 321.872 557.893 321.952 558.277 322.08V320.448C557.845 320.32 557.381 320.224 556.693 320.224C555.877 320.224 555.253 320.448 554.805 320.896C554.341 321.36 554.117 322.048 554.117 322.976V323.6H553.045V325.216H554.117V332ZM559.184 332H561.136V328.784C561.136 326.544 562.304 325.44 564.016 325.44H564.128V323.392C562.64 323.328 561.664 324.176 561.136 325.456V323.552H559.184V332ZM568.901 332.192C570.453 332.192 571.541 331.568 572.357 330.608L571.221 329.6C570.533 330.256 569.893 330.608 568.933 330.608C567.669 330.608 566.709 329.856 566.501 328.464H572.709C572.725 328.272 572.741 328.096 572.741 327.92C572.741 325.488 571.381 323.376 568.693 323.376C566.277 323.376 564.565 325.344 564.565 327.776V327.808C564.565 330.416 566.469 332.192 568.901 332.192ZM566.485 327.184C566.661 325.856 567.477 324.96 568.677 324.96C569.957 324.96 570.693 325.952 570.821 327.184H566.485ZM577.081 332.16C578.841 332.16 580.217 331.28 580.217 329.504V329.472C580.217 327.952 578.809 327.392 577.593 327.008C576.601 326.704 575.689 326.416 575.689 325.808V325.776C575.689 325.312 576.121 324.944 576.873 324.944C577.577 324.944 578.441 325.248 579.257 325.744L580.025 324.368C579.129 323.776 577.993 323.408 576.921 323.408C575.241 323.408 573.913 324.384 573.913 326V326.032C573.913 327.632 575.321 328.16 576.553 328.496C577.545 328.8 578.441 329.04 578.441 329.68V329.712C578.441 330.272 577.961 330.624 577.129 330.624C576.249 330.624 575.305 330.272 574.361 329.584L573.497 330.896C574.569 331.744 575.865 332.16 577.081 332.16ZM581.684 332H583.636V327.232C583.636 325.904 584.404 325.136 585.54 325.136C586.692 325.136 587.348 325.872 587.348 327.2V332H589.284V326.608C589.284 324.64 588.196 323.376 586.276 323.376C584.948 323.376 584.196 324.064 583.636 324.848V320.32H581.684V332ZM598.379 332H600.347V322.624H603.915V320.8H594.811V322.624H598.379V332ZM607.451 332.192C610.059 332.192 611.979 330.176 611.979 327.792V327.76C611.979 325.344 610.091 323.376 607.483 323.376C604.891 323.376 602.971 325.376 602.971 327.792V327.824C602.971 330.224 604.875 332.192 607.451 332.192ZM607.483 330.496C605.995 330.496 604.907 329.264 604.907 327.792V327.76C604.907 326.288 605.899 325.072 607.451 325.072C608.971 325.072 610.043 326.304 610.043 327.792V327.824C610.043 329.28 609.067 330.496 607.483 330.496ZM613.434 332H615.386V329.584L616.586 328.336L619.082 332H621.354L617.882 326.992L621.242 323.552H618.89L615.386 327.296V320.32H613.434V332ZM625.729 332.192C627.281 332.192 628.369 331.568 629.185 330.608L628.049 329.6C627.361 330.256 626.721 330.608 625.761 330.608C624.497 330.608 623.537 329.856 623.329 328.464H629.537C629.553 328.272 629.569 328.096 629.569 327.92C629.569 325.488 628.209 323.376 625.521 323.376C623.105 323.376 621.393 325.344 621.393 327.776V327.808C621.393 330.416 623.297 332.192 625.729 332.192ZM623.313 327.184C623.489 325.856 624.305 324.96 625.505 324.96C626.785 324.96 627.521 325.952 627.649 327.184H623.313ZM630.997 332H632.949V327.232C632.949 325.904 633.717 325.136 634.853 325.136C636.005 325.136 636.661 325.872 636.661 327.2V332H638.597V326.608C638.597 324.64 637.509 323.376 635.589 323.376C634.261 323.376 633.509 324.064 632.949 324.848V323.552H630.997V332Z" fill="black"></path><defs><linearGradient id="paint0_linear_2561_14207" x1="524.5" y1="0" x2="524.5" y2="598" gradientUnits="userSpaceOnUse"><stop stop-color="white"></stop><stop offset="1" stop-color="white" stop-opacity="0"></stop></linearGradient><linearGradient id="paint1_linear_2561_14207" x1="885" y1="494" x2="885" y2="542" gradientUnits="userSpaceOnUse"><stop stop-color="white"></stop><stop offset="1" stop-color="white" stop-opacity="0"></stop></linearGradient><linearGradient id="paint2_linear_2561_14207" x1="886.5" y1="275" x2="886.5" y2="323" gradientUnits="userSpaceOnUse"><stop stop-color="white"></stop><stop offset="1" stop-color="white" stop-opacity="0"></stop></linearGradient><linearGradient id="paint3_linear_2561_14207" x1="163" y1="275" x2="163" y2="323" gradientUnits="userSpaceOnUse"><stop stop-color="white"></stop><stop offset="1" stop-color="white" stop-opacity="0"></stop></linearGradient><linearGradient id="paint4_linear_2561_14207" x1="885.5" y1="56" x2="885.5" y2="104" gradientUnits="userSpaceOnUse"><stop stop-color="white"></stop><stop offset="1" stop-color="white" stop-opacity="0"></stop></linearGradient></defs></svg> 