<?xml version="1.0" encoding="UTF-8"?> <svg xmlns="http://www.w3.org/2000/svg" width="1049" height="273" viewBox="0 0 1049 273" fill="none"><rect width="1049" height="273" fill="white"></rect><rect width="1049" height="273" fill="url(#paint0_linear_2561_14148)"></rect><rect x="754.5" y="88.5" width="261" height="95" rx="6.5" fill="#CDA113" stroke="#CDA113" stroke-width="3"></rect><path d="M814.71 143H817.17V131.28H821.63V129H810.25V131.28H814.71V143ZM826.175 143.24C829.435 143.24 831.835 140.72 831.835 137.74V137.7C831.835 134.68 829.475 132.22 826.215 132.22C822.975 132.22 820.575 134.72 820.575 137.74V137.78C820.575 140.78 822.955 143.24 826.175 143.24ZM826.215 141.12C824.355 141.12 822.995 139.58 822.995 137.74V137.7C822.995 135.86 824.235 134.34 826.175 134.34C828.075 134.34 829.415 135.88 829.415 137.74V137.78C829.415 139.6 828.195 141.12 826.215 141.12ZM833.779 143H836.219V139.98L837.719 138.42L840.839 143H843.679L839.339 136.74L843.539 132.44H840.599L836.219 137.12V128.4H833.779V143ZM849.272 143.24C851.212 143.24 852.572 142.46 853.592 141.26L852.172 140C851.312 140.82 850.512 141.26 849.312 141.26C847.732 141.26 846.532 140.32 846.272 138.58H854.032C854.052 138.34 854.072 138.12 854.072 137.9C854.072 134.86 852.372 132.22 849.012 132.22C845.992 132.22 843.852 134.68 843.852 137.72V137.76C843.852 141.02 846.232 143.24 849.272 143.24ZM846.252 136.98C846.472 135.32 847.492 134.2 848.992 134.2C850.592 134.2 851.512 135.44 851.672 136.98H846.252ZM855.982 143H858.422V137.04C858.422 135.38 859.382 134.42 860.802 134.42C862.242 134.42 863.062 135.34 863.062 137V143H865.482V136.26C865.482 133.8 864.122 132.22 861.722 132.22C860.062 132.22 859.122 133.08 858.422 134.06V132.44H855.982V143ZM873.681 143H884.161V140.8H876.141V137.06H883.161V134.84H876.141V131.2H884.061V129H873.681V143ZM886.279 143H888.719V137.04C888.719 135.38 889.679 134.42 891.099 134.42C892.539 134.42 893.359 135.34 893.359 137V143H895.779V136.26C895.779 133.8 894.419 132.22 892.019 132.22C890.359 132.22 889.419 133.08 888.719 134.06V132.44H886.279V143ZM902.562 143.22C904.262 143.22 905.382 142.34 906.162 141.24V143H908.582V128.4H906.162V134.08C905.422 133.08 904.282 132.22 902.562 132.22C900.042 132.22 897.662 134.18 897.662 137.7V137.74C897.662 141.26 900.082 143.22 902.562 143.22ZM903.142 141.12C901.482 141.12 900.102 139.78 900.102 137.74V137.7C900.102 135.62 901.482 134.32 903.142 134.32C904.762 134.32 906.202 135.66 906.202 137.7V137.74C906.202 139.76 904.762 141.12 903.142 141.12ZM911.1 146.2H913.54V141.36C914.28 142.34 915.38 143.22 917.14 143.22C919.64 143.22 922.04 141.26 922.04 137.74V137.7C922.04 134.18 919.62 132.22 917.14 132.22C915.4 132.22 914.32 133.1 913.54 134.2V132.44H911.1V146.2ZM916.56 141.12C914.9 141.12 913.48 139.76 913.48 137.74V137.7C913.48 135.68 914.9 134.32 916.56 134.32C918.18 134.32 919.58 135.66 919.58 137.7V137.74C919.58 139.82 918.22 141.12 916.56 141.12ZM929.058 143.24C932.318 143.24 934.718 140.72 934.718 137.74V137.7C934.718 134.68 932.358 132.22 929.098 132.22C925.858 132.22 923.458 134.72 923.458 137.74V137.78C923.458 140.78 925.838 143.24 929.058 143.24ZM929.098 141.12C927.238 141.12 925.878 139.58 925.878 137.74V137.7C925.878 135.86 927.118 134.34 929.058 134.34C930.958 134.34 932.298 135.88 932.298 137.74V137.78C932.298 139.6 931.078 141.12 929.098 141.12ZM936.722 130.82H939.322V128.52H936.722V130.82ZM936.802 143H939.242V132.44H936.802V143ZM941.885 143H944.325V137.04C944.325 135.38 945.285 134.42 946.705 134.42C948.145 134.42 948.965 135.34 948.965 137V143H951.385V136.26C951.385 133.8 950.025 132.22 947.625 132.22C945.965 132.22 945.025 133.08 944.325 134.06V132.44H941.885V143ZM957.347 143.18C958.287 143.18 958.907 142.98 959.527 142.64V140.66C959.047 140.9 958.547 141.02 958.027 141.02C957.207 141.02 956.727 140.64 956.727 139.7V134.52H959.567V132.44H956.727V129.54H954.307V132.44H952.967V134.52H954.307V140.08C954.307 142.4 955.567 143.18 957.347 143.18Z" fill="white"></path><path d="M814.71 143H817.17V131.28H821.63V129H810.25V131.28H814.71V143ZM826.175 143.24C829.435 143.24 831.835 140.72 831.835 137.74V137.7C831.835 134.68 829.475 132.22 826.215 132.22C822.975 132.22 820.575 134.72 820.575 137.74V137.78C820.575 140.78 822.955 143.24 826.175 143.24ZM826.215 141.12C824.355 141.12 822.995 139.58 822.995 137.74V137.7C822.995 135.86 824.235 134.34 826.175 134.34C828.075 134.34 829.415 135.88 829.415 137.74V137.78C829.415 139.6 828.195 141.12 826.215 141.12ZM833.779 143H836.219V139.98L837.719 138.42L840.839 143H843.679L839.339 136.74L843.539 132.44H840.599L836.219 137.12V128.4H833.779V143ZM849.272 143.24C851.212 143.24 852.572 142.46 853.592 141.26L852.172 140C851.312 140.82 850.512 141.26 849.312 141.26C847.732 141.26 846.532 140.32 846.272 138.58H854.032C854.052 138.34 854.072 138.12 854.072 137.9C854.072 134.86 852.372 132.22 849.012 132.22C845.992 132.22 843.852 134.68 843.852 137.72V137.76C843.852 141.02 846.232 143.24 849.272 143.24ZM846.252 136.98C846.472 135.32 847.492 134.2 848.992 134.2C850.592 134.2 851.512 135.44 851.672 136.98H846.252ZM855.982 143H858.422V137.04C858.422 135.38 859.382 134.42 860.802 134.42C862.242 134.42 863.062 135.34 863.062 137V143H865.482V136.26C865.482 133.8 864.122 132.22 861.722 132.22C860.062 132.22 859.122 133.08 858.422 134.06V132.44H855.982V143ZM873.681 143H884.161V140.8H876.141V137.06H883.161V134.84H876.141V131.2H884.061V129H873.681V143ZM886.279 143H888.719V137.04C888.719 135.38 889.679 134.42 891.099 134.42C892.539 134.42 893.359 135.34 893.359 137V143H895.779V136.26C895.779 133.8 894.419 132.22 892.019 132.22C890.359 132.22 889.419 133.08 888.719 134.06V132.44H886.279V143ZM902.562 143.22C904.262 143.22 905.382 142.34 906.162 141.24V143H908.582V128.4H906.162V134.08C905.422 133.08 904.282 132.22 902.562 132.22C900.042 132.22 897.662 134.18 897.662 137.7V137.74C897.662 141.26 900.082 143.22 902.562 143.22ZM903.142 141.12C901.482 141.12 900.102 139.78 900.102 137.74V137.7C900.102 135.62 901.482 134.32 903.142 134.32C904.762 134.32 906.202 135.66 906.202 137.7V137.74C906.202 139.76 904.762 141.12 903.142 141.12ZM911.1 146.2H913.54V141.36C914.28 142.34 915.38 143.22 917.14 143.22C919.64 143.22 922.04 141.26 922.04 137.74V137.7C922.04 134.18 919.62 132.22 917.14 132.22C915.4 132.22 914.32 133.1 913.54 134.2V132.44H911.1V146.2ZM916.56 141.12C914.9 141.12 913.48 139.76 913.48 137.74V137.7C913.48 135.68 914.9 134.32 916.56 134.32C918.18 134.32 919.58 135.66 919.58 137.7V137.74C919.58 139.82 918.22 141.12 916.56 141.12ZM929.058 143.24C932.318 143.24 934.718 140.72 934.718 137.74V137.7C934.718 134.68 932.358 132.22 929.098 132.22C925.858 132.22 923.458 134.72 923.458 137.74V137.78C923.458 140.78 925.838 143.24 929.058 143.24ZM929.098 141.12C927.238 141.12 925.878 139.58 925.878 137.74V137.7C925.878 135.86 927.118 134.34 929.058 134.34C930.958 134.34 932.298 135.88 932.298 137.74V137.78C932.298 139.6 931.078 141.12 929.098 141.12ZM936.722 130.82H939.322V128.52H936.722V130.82ZM936.802 143H939.242V132.44H936.802V143ZM941.885 143H944.325V137.04C944.325 135.38 945.285 134.42 946.705 134.42C948.145 134.42 948.965 135.34 948.965 137V143H951.385V136.26C951.385 133.8 950.025 132.22 947.625 132.22C945.965 132.22 945.025 133.08 944.325 134.06V132.44H941.885V143ZM957.347 143.18C958.287 143.18 958.907 142.98 959.527 142.64V140.66C959.047 140.9 958.547 141.02 958.027 141.02C957.207 141.02 956.727 140.64 956.727 139.7V134.52H959.567V132.44H956.727V129.54H954.307V132.44H952.967V134.52H954.307V140.08C954.307 142.4 955.567 143.18 957.347 143.18Z" fill="url(#paint1_linear_2561_14148)"></path><path d="M324 107H442V109H324V107Z" fill="black"></path><path d="M714 96L712.333 97.6667L721.333 106.833H608V109.167H721.333L712.333 118.333L714 120L726 108L714 96Z" fill="black"></path><path d="M472.784 114H474.752V110.096H477.216L479.968 114H482.304L479.28 109.76C480.832 109.312 481.936 108.208 481.936 106.368V106.336C481.936 105.36 481.6 104.544 481.008 103.92C480.288 103.216 479.184 102.8 477.776 102.8H472.784V114ZM474.752 108.352V104.592H477.616C479.088 104.592 479.936 105.232 479.936 106.448V106.48C479.936 107.632 479.04 108.352 477.632 108.352H474.752ZM487.338 114.192C488.89 114.192 489.978 113.568 490.794 112.608L489.658 111.6C488.97 112.256 488.33 112.608 487.37 112.608C486.106 112.608 485.146 111.856 484.938 110.464H491.146C491.162 110.272 491.178 110.096 491.178 109.92C491.178 107.488 489.818 105.376 487.13 105.376C484.714 105.376 483.002 107.344 483.002 109.776V109.808C483.002 112.416 484.906 114.192 487.338 114.192ZM484.922 109.184C485.098 107.856 485.914 106.96 487.114 106.96C488.394 106.96 489.13 107.952 489.258 109.184H484.922ZM493.054 114H494.99V107.216H497.198V105.616H494.958V105.152C494.958 104.304 495.326 103.872 496.078 103.872C496.51 103.872 496.83 103.952 497.214 104.08V102.448C496.782 102.32 496.318 102.224 495.63 102.224C494.814 102.224 494.19 102.448 493.742 102.896C493.278 103.36 493.054 104.048 493.054 104.976V105.6H491.982V107.216H493.054V114ZM498.122 114H500.074V110.784C500.074 108.544 501.242 107.44 502.954 107.44H503.066V105.392C501.578 105.328 500.602 106.176 500.074 107.456V105.552H498.122V114ZM507.838 114.192C509.39 114.192 510.478 113.568 511.294 112.608L510.158 111.6C509.47 112.256 508.83 112.608 507.87 112.608C506.606 112.608 505.646 111.856 505.438 110.464H511.646C511.662 110.272 511.678 110.096 511.678 109.92C511.678 107.488 510.318 105.376 507.63 105.376C505.214 105.376 503.502 107.344 503.502 109.776V109.808C503.502 112.416 505.406 114.192 507.838 114.192ZM505.422 109.184C505.598 107.856 506.414 106.96 507.614 106.96C508.894 106.96 509.63 107.952 509.758 109.184H505.422ZM516.018 114.16C517.778 114.16 519.154 113.28 519.154 111.504V111.472C519.154 109.952 517.746 109.392 516.53 109.008C515.538 108.704 514.626 108.416 514.626 107.808V107.776C514.626 107.312 515.058 106.944 515.81 106.944C516.514 106.944 517.378 107.248 518.194 107.744L518.962 106.368C518.066 105.776 516.93 105.408 515.858 105.408C514.178 105.408 512.85 106.384 512.85 108V108.032C512.85 109.632 514.258 110.16 515.49 110.496C516.482 110.8 517.378 111.04 517.378 111.68V111.712C517.378 112.272 516.898 112.624 516.066 112.624C515.186 112.624 514.242 112.272 513.298 111.584L512.434 112.896C513.506 113.744 514.802 114.16 516.018 114.16ZM520.622 114H522.574V109.232C522.574 107.904 523.342 107.136 524.478 107.136C525.63 107.136 526.286 107.872 526.286 109.2V114H528.222V108.608C528.222 106.64 527.134 105.376 525.214 105.376C523.886 105.376 523.134 106.064 522.574 106.848V102.32H520.622V114ZM537.317 114H539.285V104.624H542.853V102.8H533.749V104.624H537.317V114ZM546.388 114.192C548.996 114.192 550.916 112.176 550.916 109.792V109.76C550.916 107.344 549.028 105.376 546.42 105.376C543.828 105.376 541.908 107.376 541.908 109.792V109.824C541.908 112.224 543.812 114.192 546.388 114.192ZM546.42 112.496C544.932 112.496 543.844 111.264 543.844 109.792V109.76C543.844 108.288 544.836 107.072 546.388 107.072C547.908 107.072 548.98 108.304 548.98 109.792V109.824C548.98 111.28 548.004 112.496 546.42 112.496ZM552.372 114H554.324V111.584L555.524 110.336L558.02 114H560.292L556.82 108.992L560.18 105.552H557.828L554.324 109.296V102.32H552.372V114ZM564.666 114.192C566.218 114.192 567.306 113.568 568.122 112.608L566.986 111.6C566.298 112.256 565.658 112.608 564.698 112.608C563.434 112.608 562.474 111.856 562.266 110.464H568.474C568.49 110.272 568.506 110.096 568.506 109.92C568.506 107.488 567.146 105.376 564.458 105.376C562.042 105.376 560.33 107.344 560.33 109.776V109.808C560.33 112.416 562.234 114.192 564.666 114.192ZM562.25 109.184C562.426 107.856 563.242 106.96 564.442 106.96C565.722 106.96 566.458 107.952 566.586 109.184H562.25ZM569.934 114H571.886V109.232C571.886 107.904 572.654 107.136 573.79 107.136C574.942 107.136 575.598 107.872 575.598 109.2V114H577.534V108.608C577.534 106.64 576.446 105.376 574.526 105.376C573.198 105.376 572.446 106.064 571.886 106.848V105.552H569.934V114Z" fill="black"></path><path d="M726 163H666V165H726V163Z" fill="black"></path><path d="M334 152L335.667 153.667L326.667 162.833H383V165.167H326.667L335.667 174.333L334 176L322 164L334 152Z" fill="black"></path><path d="M410.761 170H412.777L413.929 167.296H419.225L420.361 170H422.441L417.513 158.72H415.689L410.761 170ZM414.649 165.552L416.569 161.072L418.505 165.552H414.649ZM427.136 170.192C428.784 170.192 429.76 169.552 430.592 168.608L429.424 167.456C428.8 168.08 428.144 168.496 427.232 168.496C425.744 168.496 424.704 167.296 424.704 165.792V165.76C424.704 164.288 425.744 163.072 427.152 163.072C428.112 163.072 428.736 163.504 429.328 164.128L430.544 162.832C429.728 161.968 428.752 161.376 427.168 161.376C424.624 161.376 422.768 163.392 422.768 165.792V165.824C422.768 168.224 424.624 170.192 427.136 170.192ZM435.542 170.192C437.19 170.192 438.166 169.552 438.998 168.608L437.83 167.456C437.206 168.08 436.55 168.496 435.638 168.496C434.15 168.496 433.11 167.296 433.11 165.792V165.76C433.11 164.288 434.15 163.072 435.558 163.072C436.518 163.072 437.142 163.504 437.734 164.128L438.95 162.832C438.134 161.968 437.158 161.376 435.574 161.376C433.03 161.376 431.174 163.392 431.174 165.792V165.824C431.174 168.224 433.03 170.192 435.542 170.192ZM443.916 170.192C445.468 170.192 446.556 169.568 447.372 168.608L446.236 167.6C445.548 168.256 444.908 168.608 443.948 168.608C442.684 168.608 441.724 167.856 441.516 166.464H447.724C447.74 166.272 447.756 166.096 447.756 165.92C447.756 163.488 446.396 161.376 443.708 161.376C441.292 161.376 439.58 163.344 439.58 165.776V165.808C439.58 168.416 441.484 170.192 443.916 170.192ZM441.5 165.184C441.676 163.856 442.492 162.96 443.692 162.96C444.972 162.96 445.708 163.952 445.836 165.184H441.5ZM452.096 170.16C453.856 170.16 455.232 169.28 455.232 167.504V167.472C455.232 165.952 453.824 165.392 452.608 165.008C451.616 164.704 450.704 164.416 450.704 163.808V163.776C450.704 163.312 451.136 162.944 451.888 162.944C452.592 162.944 453.456 163.248 454.272 163.744L455.04 162.368C454.144 161.776 453.008 161.408 451.936 161.408C450.256 161.408 448.928 162.384 448.928 164V164.032C448.928 165.632 450.336 166.16 451.568 166.496C452.56 166.8 453.456 167.04 453.456 167.68V167.712C453.456 168.272 452.976 168.624 452.144 168.624C451.264 168.624 450.32 168.272 449.376 167.584L448.512 168.896C449.584 169.744 450.88 170.16 452.096 170.16ZM459.456 170.16C461.216 170.16 462.592 169.28 462.592 167.504V167.472C462.592 165.952 461.184 165.392 459.968 165.008C458.976 164.704 458.064 164.416 458.064 163.808V163.776C458.064 163.312 458.496 162.944 459.248 162.944C459.952 162.944 460.816 163.248 461.632 163.744L462.4 162.368C461.504 161.776 460.368 161.408 459.296 161.408C457.616 161.408 456.288 162.384 456.288 164V164.032C456.288 165.632 457.696 166.16 458.928 166.496C459.92 166.8 460.816 167.04 460.816 167.68V167.712C460.816 168.272 460.336 168.624 459.504 168.624C458.624 168.624 457.68 168.272 456.736 167.584L455.872 168.896C456.944 169.744 458.24 170.16 459.456 170.16ZM471.332 170H473.3V160.624H476.868V158.8H467.764V160.624H471.332V170ZM480.404 170.192C483.012 170.192 484.932 168.176 484.932 165.792V165.76C484.932 163.344 483.044 161.376 480.436 161.376C477.844 161.376 475.924 163.376 475.924 165.792V165.824C475.924 168.224 477.828 170.192 480.404 170.192ZM480.436 168.496C478.948 168.496 477.86 167.264 477.86 165.792V165.76C477.86 164.288 478.852 163.072 480.404 163.072C481.924 163.072 482.996 164.304 482.996 165.792V165.824C482.996 167.28 482.02 168.496 480.436 168.496ZM486.388 170H488.34V167.584L489.54 166.336L492.036 170H494.308L490.836 164.992L494.196 161.552H491.844L488.34 165.296V158.32H486.388V170ZM498.682 170.192C500.234 170.192 501.322 169.568 502.138 168.608L501.002 167.6C500.314 168.256 499.674 168.608 498.714 168.608C497.45 168.608 496.49 167.856 496.282 166.464H502.49C502.506 166.272 502.522 166.096 502.522 165.92C502.522 163.488 501.162 161.376 498.474 161.376C496.058 161.376 494.346 163.344 494.346 165.776V165.808C494.346 168.416 496.25 170.192 498.682 170.192ZM496.266 165.184C496.442 163.856 497.258 162.96 498.458 162.96C499.738 162.96 500.474 163.952 500.602 165.184H496.266ZM503.95 170H505.902V165.232C505.902 163.904 506.67 163.136 507.806 163.136C508.958 163.136 509.614 163.872 509.614 165.2V170H511.55V164.608C511.55 162.64 510.462 161.376 508.542 161.376C507.214 161.376 506.462 162.064 505.902 162.848V161.552H503.95V170ZM525.669 170.224L527.141 169.168L525.365 167.376C525.941 166.608 526.437 165.728 526.885 164.832L525.397 164.048C525.029 164.832 524.629 165.568 524.197 166.208L522.277 164.256C523.765 163.696 524.741 162.816 524.741 161.344V161.312C524.741 159.808 523.541 158.608 521.765 158.608C519.781 158.608 518.549 159.92 518.549 161.44V161.472C518.549 162.288 518.837 162.976 519.477 163.808C517.941 164.448 517.077 165.472 517.077 166.928V166.96C517.077 168.896 518.661 170.16 520.757 170.16C522.101 170.16 523.221 169.6 524.181 168.704L525.669 170.224ZM521.237 163.2C520.613 162.512 520.389 162.096 520.389 161.536V161.504C520.389 160.736 520.917 160.16 521.733 160.16C522.485 160.16 522.997 160.672 522.997 161.424V161.456C522.997 162.272 522.389 162.768 521.237 163.2ZM520.949 168.528C519.861 168.528 519.077 167.856 519.077 166.896V166.864C519.077 166.144 519.525 165.456 520.565 165.008L523.061 167.552C522.421 168.176 521.717 168.528 520.949 168.528ZM532.846 170H534.814V166.096H537.278L540.03 170H542.366L539.342 165.76C540.894 165.312 541.998 164.208 541.998 162.368V162.336C541.998 161.36 541.662 160.544 541.07 159.92C540.35 159.216 539.246 158.8 537.838 158.8H532.846V170ZM534.814 164.352V160.592H537.678C539.15 160.592 539.998 161.232 539.998 162.448V162.48C539.998 163.632 539.102 164.352 537.694 164.352H534.814ZM547.401 170.192C548.953 170.192 550.041 169.568 550.857 168.608L549.721 167.6C549.033 168.256 548.393 168.608 547.433 168.608C546.169 168.608 545.209 167.856 545.001 166.464H551.209C551.225 166.272 551.241 166.096 551.241 165.92C551.241 163.488 549.881 161.376 547.193 161.376C544.777 161.376 543.065 163.344 543.065 165.776V165.808C543.065 168.416 544.969 170.192 547.401 170.192ZM544.985 165.184C545.161 163.856 545.977 162.96 547.177 162.96C548.457 162.96 549.193 163.952 549.321 165.184H544.985ZM553.117 170H555.053V163.216H557.261V161.616H555.021V161.152C555.021 160.304 555.389 159.872 556.141 159.872C556.573 159.872 556.893 159.952 557.277 160.08V158.448C556.845 158.32 556.381 158.224 555.693 158.224C554.877 158.224 554.253 158.448 553.805 158.896C553.341 159.36 553.117 160.048 553.117 160.976V161.6H552.045V163.216H553.117V170ZM558.184 170H560.136V166.784C560.136 164.544 561.304 163.44 563.016 163.44H563.128V161.392C561.64 161.328 560.664 162.176 560.136 163.456V161.552H558.184V170ZM567.901 170.192C569.453 170.192 570.541 169.568 571.357 168.608L570.221 167.6C569.533 168.256 568.893 168.608 567.933 168.608C566.669 168.608 565.709 167.856 565.501 166.464H571.709C571.725 166.272 571.741 166.096 571.741 165.92C571.741 163.488 570.381 161.376 567.693 161.376C565.277 161.376 563.565 163.344 563.565 165.776V165.808C563.565 168.416 565.469 170.192 567.901 170.192ZM565.485 165.184C565.661 163.856 566.477 162.96 567.677 162.96C568.957 162.96 569.693 163.952 569.821 165.184H565.485ZM576.081 170.16C577.841 170.16 579.217 169.28 579.217 167.504V167.472C579.217 165.952 577.809 165.392 576.593 165.008C575.601 164.704 574.689 164.416 574.689 163.808V163.776C574.689 163.312 575.121 162.944 575.873 162.944C576.577 162.944 577.441 163.248 578.257 163.744L579.025 162.368C578.129 161.776 576.993 161.408 575.921 161.408C574.241 161.408 572.913 162.384 572.913 164V164.032C572.913 165.632 574.321 166.16 575.553 166.496C576.545 166.8 577.441 167.04 577.441 167.68V167.712C577.441 168.272 576.961 168.624 576.129 168.624C575.249 168.624 574.305 168.272 573.361 167.584L572.497 168.896C573.569 169.744 574.865 170.16 576.081 170.16ZM580.684 170H582.636V165.232C582.636 163.904 583.404 163.136 584.54 163.136C585.692 163.136 586.348 163.872 586.348 165.2V170H588.284V164.608C588.284 162.64 587.196 161.376 585.276 161.376C583.948 161.376 583.196 162.064 582.636 162.848V158.32H580.684V170ZM597.379 170H599.347V160.624H602.915V158.8H593.811V160.624H597.379V170ZM606.451 170.192C609.059 170.192 610.979 168.176 610.979 165.792V165.76C610.979 163.344 609.091 161.376 606.483 161.376C603.891 161.376 601.971 163.376 601.971 165.792V165.824C601.971 168.224 603.875 170.192 606.451 170.192ZM606.483 168.496C604.995 168.496 603.907 167.264 603.907 165.792V165.76C603.907 164.288 604.899 163.072 606.451 163.072C607.971 163.072 609.043 164.304 609.043 165.792V165.824C609.043 167.28 608.067 168.496 606.483 168.496ZM612.434 170H614.386V167.584L615.586 166.336L618.082 170H620.354L616.882 164.992L620.242 161.552H617.89L614.386 165.296V158.32H612.434V170ZM624.729 170.192C626.281 170.192 627.369 169.568 628.185 168.608L627.049 167.6C626.361 168.256 625.721 168.608 624.761 168.608C623.497 168.608 622.537 167.856 622.329 166.464H628.537C628.553 166.272 628.569 166.096 628.569 165.92C628.569 163.488 627.209 161.376 624.521 161.376C622.105 161.376 620.393 163.344 620.393 165.776V165.808C620.393 168.416 622.297 170.192 624.729 170.192ZM622.313 165.184C622.489 163.856 623.305 162.96 624.505 162.96C625.785 162.96 626.521 163.952 626.649 165.184H622.313ZM629.997 170H631.949V165.232C631.949 163.904 632.717 163.136 633.853 163.136C635.005 163.136 635.661 163.872 635.661 165.2V170H637.597V164.608C637.597 162.64 636.509 161.376 634.589 161.376C633.261 161.376 632.509 162.064 631.949 162.848V161.552H629.997V170Z" fill="black"></path><rect x="32.5" y="88.5" width="261" height="95" rx="6.5" fill="#475715" stroke="#475715" stroke-width="3"></rect><path d="M87.3927 143H89.8727V137.42L95.4327 129H92.6127L88.6527 135.18L84.7527 129H81.8327L87.3927 137.48V143ZM99.622 143.24C102.882 143.24 105.282 140.72 105.282 137.74V137.7C105.282 134.68 102.922 132.22 99.662 132.22C96.422 132.22 94.022 134.72 94.022 137.74V137.78C94.022 140.78 96.402 143.24 99.622 143.24ZM99.662 141.12C97.802 141.12 96.442 139.58 96.442 137.74V137.7C96.442 135.86 97.682 134.34 99.622 134.34C101.522 134.34 102.862 135.88 102.862 137.74V137.78C102.862 139.6 101.642 141.12 99.662 141.12ZM110.887 143.22C112.507 143.22 113.487 142.38 114.187 141.36V143H116.627V132.44H114.187V138.4C114.187 140.06 113.227 141 111.807 141C110.367 141 109.547 140.1 109.547 138.44V132.44H107.127V139.16C107.127 141.64 108.487 143.22 110.887 143.22ZM119.129 143H121.569V138.98C121.569 136.18 123.029 134.8 125.169 134.8H125.309V132.24C123.449 132.16 122.229 133.22 121.569 134.82V132.44H119.129V143ZM131.487 143H134.007L135.447 139.62H142.067L143.487 143H146.087L139.927 128.9H137.647L131.487 143ZM136.347 137.44L138.747 131.84L141.167 137.44H136.347ZM147.688 146.2H150.128V141.36C150.868 142.34 151.968 143.22 153.728 143.22C156.228 143.22 158.628 141.26 158.628 137.74V137.7C158.628 134.18 156.208 132.22 153.728 132.22C151.988 132.22 150.908 133.1 150.128 134.2V132.44H147.688V146.2ZM153.148 141.12C151.488 141.12 150.068 139.76 150.068 137.74V137.7C150.068 135.68 151.488 134.32 153.148 134.32C154.768 134.32 156.168 135.66 156.168 137.7V137.74C156.168 139.82 154.808 141.12 153.148 141.12ZM160.605 146.2H163.045V141.36C163.785 142.34 164.885 143.22 166.645 143.22C169.145 143.22 171.545 141.26 171.545 137.74V137.7C171.545 134.18 169.125 132.22 166.645 132.22C164.905 132.22 163.825 133.1 163.045 134.2V132.44H160.605V146.2ZM166.065 141.12C164.405 141.12 162.985 139.76 162.985 137.74V137.7C162.985 135.68 164.405 134.32 166.065 134.32C167.685 134.32 169.085 135.66 169.085 137.7V137.74C169.085 139.82 167.725 141.12 166.065 141.12ZM173.663 143H176.103V128.4H173.663V143ZM178.806 130.82H181.406V128.52H178.806V130.82ZM178.886 143H181.326V132.44H178.886V143ZM188.869 143.24C190.929 143.24 192.149 142.44 193.189 141.26L191.729 139.82C190.949 140.6 190.129 141.12 188.989 141.12C187.129 141.12 185.829 139.62 185.829 137.74V137.7C185.829 135.86 187.129 134.34 188.889 134.34C190.089 134.34 190.869 134.88 191.609 135.66L193.129 134.04C192.109 132.96 190.889 132.22 188.909 132.22C185.729 132.22 183.409 134.74 183.409 137.74V137.78C183.409 140.78 185.729 143.24 188.869 143.24ZM197.955 143.22C199.575 143.22 200.675 142.54 201.395 141.68V143H203.755V136.74C203.755 135.36 203.395 134.26 202.615 133.48C201.855 132.7 200.695 132.3 199.115 132.3C197.435 132.3 196.295 132.66 195.115 133.16L195.775 135.06C196.735 134.66 197.595 134.4 198.795 134.4C200.495 134.4 201.415 135.18 201.415 136.7V136.96C200.595 136.7 199.775 136.52 198.575 136.52C195.995 136.52 194.195 137.62 194.195 139.92V139.96C194.195 142.1 195.975 143.22 197.955 143.22ZM198.635 141.46C197.455 141.46 196.575 140.88 196.575 139.86V139.82C196.575 138.7 197.475 138.06 199.055 138.06C200.015 138.06 200.835 138.24 201.455 138.48V139.2C201.455 140.56 200.235 141.46 198.635 141.46ZM209.595 143.18C210.535 143.18 211.155 142.98 211.775 142.64V140.66C211.295 140.9 210.795 141.02 210.275 141.02C209.455 141.02 208.975 140.64 208.975 139.7V134.52H211.815V132.44H208.975V129.54H206.555V132.44H205.215V134.52H206.555V140.08C206.555 142.4 207.815 143.18 209.595 143.18ZM213.818 130.82H216.418V128.52H213.818V130.82ZM213.898 143H216.338V132.44H213.898V143ZM224.02 143.24C227.28 143.24 229.68 140.72 229.68 137.74V137.7C229.68 134.68 227.32 132.22 224.06 132.22C220.82 132.22 218.42 134.72 218.42 137.74V137.78C218.42 140.78 220.8 143.24 224.02 143.24ZM224.06 141.12C222.2 141.12 220.84 139.58 220.84 137.74V137.7C220.84 135.86 222.08 134.34 224.02 134.34C225.92 134.34 227.26 135.88 227.26 137.74V137.78C227.26 139.6 226.04 141.12 224.06 141.12ZM231.625 143H234.065V137.04C234.065 135.38 235.025 134.42 236.445 134.42C237.885 134.42 238.705 135.34 238.705 137V143H241.125V136.26C241.125 133.8 239.765 132.22 237.365 132.22C235.705 132.22 234.765 133.08 234.065 134.06V132.44H231.625V143Z" fill="white"></path><path d="M87.3927 143H89.8727V137.42L95.4327 129H92.6127L88.6527 135.18L84.7527 129H81.8327L87.3927 137.48V143ZM99.622 143.24C102.882 143.24 105.282 140.72 105.282 137.74V137.7C105.282 134.68 102.922 132.22 99.662 132.22C96.422 132.22 94.022 134.72 94.022 137.74V137.78C94.022 140.78 96.402 143.24 99.622 143.24ZM99.662 141.12C97.802 141.12 96.442 139.58 96.442 137.74V137.7C96.442 135.86 97.682 134.34 99.622 134.34C101.522 134.34 102.862 135.88 102.862 137.74V137.78C102.862 139.6 101.642 141.12 99.662 141.12ZM110.887 143.22C112.507 143.22 113.487 142.38 114.187 141.36V143H116.627V132.44H114.187V138.4C114.187 140.06 113.227 141 111.807 141C110.367 141 109.547 140.1 109.547 138.44V132.44H107.127V139.16C107.127 141.64 108.487 143.22 110.887 143.22ZM119.129 143H121.569V138.98C121.569 136.18 123.029 134.8 125.169 134.8H125.309V132.24C123.449 132.16 122.229 133.22 121.569 134.82V132.44H119.129V143ZM131.487 143H134.007L135.447 139.62H142.067L143.487 143H146.087L139.927 128.9H137.647L131.487 143ZM136.347 137.44L138.747 131.84L141.167 137.44H136.347ZM147.688 146.2H150.128V141.36C150.868 142.34 151.968 143.22 153.728 143.22C156.228 143.22 158.628 141.26 158.628 137.74V137.7C158.628 134.18 156.208 132.22 153.728 132.22C151.988 132.22 150.908 133.1 150.128 134.2V132.44H147.688V146.2ZM153.148 141.12C151.488 141.12 150.068 139.76 150.068 137.74V137.7C150.068 135.68 151.488 134.32 153.148 134.32C154.768 134.32 156.168 135.66 156.168 137.7V137.74C156.168 139.82 154.808 141.12 153.148 141.12ZM160.605 146.2H163.045V141.36C163.785 142.34 164.885 143.22 166.645 143.22C169.145 143.22 171.545 141.26 171.545 137.74V137.7C171.545 134.18 169.125 132.22 166.645 132.22C164.905 132.22 163.825 133.1 163.045 134.2V132.44H160.605V146.2ZM166.065 141.12C164.405 141.12 162.985 139.76 162.985 137.74V137.7C162.985 135.68 164.405 134.32 166.065 134.32C167.685 134.32 169.085 135.66 169.085 137.7V137.74C169.085 139.82 167.725 141.12 166.065 141.12ZM173.663 143H176.103V128.4H173.663V143ZM178.806 130.82H181.406V128.52H178.806V130.82ZM178.886 143H181.326V132.44H178.886V143ZM188.869 143.24C190.929 143.24 192.149 142.44 193.189 141.26L191.729 139.82C190.949 140.6 190.129 141.12 188.989 141.12C187.129 141.12 185.829 139.62 185.829 137.74V137.7C185.829 135.86 187.129 134.34 188.889 134.34C190.089 134.34 190.869 134.88 191.609 135.66L193.129 134.04C192.109 132.96 190.889 132.22 188.909 132.22C185.729 132.22 183.409 134.74 183.409 137.74V137.78C183.409 140.78 185.729 143.24 188.869 143.24ZM197.955 143.22C199.575 143.22 200.675 142.54 201.395 141.68V143H203.755V136.74C203.755 135.36 203.395 134.26 202.615 133.48C201.855 132.7 200.695 132.3 199.115 132.3C197.435 132.3 196.295 132.66 195.115 133.16L195.775 135.06C196.735 134.66 197.595 134.4 198.795 134.4C200.495 134.4 201.415 135.18 201.415 136.7V136.96C200.595 136.7 199.775 136.52 198.575 136.52C195.995 136.52 194.195 137.62 194.195 139.92V139.96C194.195 142.1 195.975 143.22 197.955 143.22ZM198.635 141.46C197.455 141.46 196.575 140.88 196.575 139.86V139.82C196.575 138.7 197.475 138.06 199.055 138.06C200.015 138.06 200.835 138.24 201.455 138.48V139.2C201.455 140.56 200.235 141.46 198.635 141.46ZM209.595 143.18C210.535 143.18 211.155 142.98 211.775 142.64V140.66C211.295 140.9 210.795 141.02 210.275 141.02C209.455 141.02 208.975 140.64 208.975 139.7V134.52H211.815V132.44H208.975V129.54H206.555V132.44H205.215V134.52H206.555V140.08C206.555 142.4 207.815 143.18 209.595 143.18ZM213.818 130.82H216.418V128.52H213.818V130.82ZM213.898 143H216.338V132.44H213.898V143ZM224.02 143.24C227.28 143.24 229.68 140.72 229.68 137.74V137.7C229.68 134.68 227.32 132.22 224.06 132.22C220.82 132.22 218.42 134.72 218.42 137.74V137.78C218.42 140.78 220.8 143.24 224.02 143.24ZM224.06 141.12C222.2 141.12 220.84 139.58 220.84 137.74V137.7C220.84 135.86 222.08 134.34 224.02 134.34C225.92 134.34 227.26 135.88 227.26 137.74V137.78C227.26 139.6 226.04 141.12 224.06 141.12ZM231.625 143H234.065V137.04C234.065 135.38 235.025 134.42 236.445 134.42C237.885 134.42 238.705 135.34 238.705 137V143H241.125V136.26C241.125 133.8 239.765 132.22 237.365 132.22C235.705 132.22 234.765 133.08 234.065 134.06V132.44H231.625V143Z" fill="url(#paint2_linear_2561_14148)"></path><defs><linearGradient id="paint0_linear_2561_14148" x1="524.5" y1="0" x2="524.5" y2="273" gradientUnits="userSpaceOnUse"><stop stop-color="white"></stop><stop offset="1" stop-color="white" stop-opacity="0"></stop></linearGradient><linearGradient id="paint1_linear_2561_14148" x1="885" y1="124" x2="885" y2="148" gradientUnits="userSpaceOnUse"><stop stop-color="white"></stop><stop offset="1" stop-color="white" stop-opacity="0"></stop></linearGradient><linearGradient id="paint2_linear_2561_14148" x1="162" y1="124" x2="162" y2="148" gradientUnits="userSpaceOnUse"><stop stop-color="white"></stop><stop offset="1" stop-color="white" stop-opacity="0"></stop></linearGradient></defs></svg> 