<?xml version="1.0" encoding="UTF-8"?> <svg xmlns="http://www.w3.org/2000/svg" width="831" height="273" viewBox="0 0 831 273" fill="none"><rect width="831" height="273" fill="white"></rect><rect width="831" height="273" fill="url(#paint0_linear_2556_14079)"></rect><path d="M134.015 63H136.475V58.5H139.255C142.355 58.5 144.855 56.84 144.855 53.72V53.68C144.855 50.86 142.815 49 139.535 49H134.015V63ZM136.475 56.28V51.24H139.335C141.175 51.24 142.355 52.08 142.355 53.74V53.78C142.355 55.24 141.195 56.28 139.335 56.28H136.475ZM150.254 63.22C151.874 63.22 152.854 62.38 153.554 61.36V63H155.994V52.44H153.554V58.4C153.554 60.06 152.594 61 151.174 61C149.734 61 148.914 60.1 148.914 58.44V52.44H146.494V59.16C146.494 61.64 147.854 63.22 150.254 63.22ZM164.536 63.22C167.036 63.22 169.436 61.26 169.436 57.74V57.7C169.436 54.18 167.016 52.22 164.536 52.22C162.796 52.22 161.716 53.1 160.936 54.2V48.4H158.496V63H160.936V61.36C161.676 62.34 162.776 63.22 164.536 63.22ZM163.956 61.12C162.296 61.12 160.876 59.76 160.876 57.74V57.7C160.876 55.68 162.296 54.32 163.956 54.32C165.576 54.32 166.976 55.66 166.976 57.7V57.74C166.976 59.82 165.616 61.12 163.956 61.12ZM171.554 63H173.994V48.4H171.554V63ZM176.697 50.82H179.297V48.52H176.697V50.82ZM176.777 63H179.217V52.44H176.777V63ZM186.759 63.24C188.819 63.24 190.039 62.44 191.079 61.26L189.619 59.82C188.839 60.6 188.019 61.12 186.879 61.12C185.019 61.12 183.719 59.62 183.719 57.74V57.7C183.719 55.86 185.019 54.34 186.779 54.34C187.979 54.34 188.759 54.88 189.499 55.66L191.019 54.04C189.999 52.96 188.779 52.22 186.799 52.22C183.619 52.22 181.299 54.74 181.299 57.74V57.78C181.299 60.78 183.619 63.24 186.759 63.24ZM67.1315 88.2C64.2715 86.3 62.9515 84.24 62.9515 81.28V81.26C62.9515 78.24 64.2915 76.24 67.1315 74.32L66.0715 72.7C62.4115 74.7 60.5315 77.48 60.5315 81.24V81.26C60.5315 85.08 62.4115 87.82 66.0715 89.82L67.1315 88.2ZM75.2941 87.24C77.8941 87.24 79.5541 86.3 80.9741 84.76L79.3941 83.16C78.1941 84.28 77.0741 84.96 75.3741 84.96C72.6941 84.96 70.7541 82.74 70.7541 80V79.96C70.7541 77.22 72.7141 75.04 75.3541 75.04C76.9741 75.04 78.1541 75.72 79.2941 76.76L80.8741 74.94C79.5341 73.66 77.9741 72.76 75.3741 72.76C71.1541 72.76 68.1741 76.02 68.1741 80V80.04C68.1741 84.06 71.2141 87.24 75.2941 87.24ZM82.9193 87H85.3593V72.4H82.9193V87ZM88.062 74.82H90.662V72.52H88.062V74.82ZM88.142 87H90.582V76.44H88.142V87ZM98.0846 87.24C100.025 87.24 101.385 86.46 102.405 85.26L100.985 84C100.125 84.82 99.3246 85.26 98.1246 85.26C96.5446 85.26 95.3446 84.32 95.0846 82.58H102.845C102.865 82.34 102.885 82.12 102.885 81.9C102.885 78.86 101.185 76.22 97.8246 76.22C94.8046 76.22 92.6646 78.68 92.6646 81.72V81.76C92.6646 85.02 95.0446 87.24 98.0846 87.24ZM95.0646 80.98C95.2846 79.32 96.3046 78.2 97.8046 78.2C99.4046 78.2 100.325 79.44 100.485 80.98H95.0646ZM104.795 87H107.235V81.04C107.235 79.38 108.195 78.42 109.615 78.42C111.055 78.42 111.875 79.34 111.875 81V87H114.295V80.26C114.295 77.8 112.935 76.22 110.535 76.22C108.875 76.22 107.935 77.08 107.235 78.06V76.44H104.795V87ZM120.257 87.18C121.197 87.18 121.817 86.98 122.437 86.64V84.66C121.957 84.9 121.457 85.02 120.937 85.02C120.117 85.02 119.637 84.64 119.637 83.7V78.52H122.477V76.44H119.637V73.54H117.217V76.44H115.877V78.52H117.217V84.08C117.217 86.4 118.477 87.18 120.257 87.18ZM130.356 87H132.816V73H130.356V87ZM140.144 87.22C141.844 87.22 142.964 86.34 143.744 85.24V87H146.164V72.4H143.744V78.08C143.004 77.08 141.864 76.22 140.144 76.22C137.624 76.22 135.244 78.18 135.244 81.7V81.74C135.244 85.26 137.664 87.22 140.144 87.22ZM140.724 85.12C139.064 85.12 137.684 83.78 137.684 81.74V81.7C137.684 79.62 139.064 78.32 140.724 78.32C142.344 78.32 143.784 79.66 143.784 81.7V81.74C143.784 83.76 142.344 85.12 140.724 85.12ZM153.542 87.24C155.482 87.24 156.842 86.46 157.862 85.26L156.442 84C155.582 84.82 154.782 85.26 153.582 85.26C152.002 85.26 150.802 84.32 150.542 82.58H158.302C158.322 82.34 158.342 82.12 158.342 81.9C158.342 78.86 156.642 76.22 153.282 76.22C150.262 76.22 148.122 78.68 148.122 81.72V81.76C148.122 85.02 150.502 87.24 153.542 87.24ZM150.522 80.98C150.742 79.32 151.762 78.2 153.262 78.2C154.862 78.2 155.782 79.44 155.942 80.98H150.522ZM160.252 87H162.692V81.04C162.692 79.38 163.652 78.42 165.072 78.42C166.512 78.42 167.332 79.34 167.332 81V87H169.752V80.26C169.752 77.8 168.392 76.22 165.992 76.22C164.332 76.22 163.392 77.08 162.692 78.06V76.44H160.252V87ZM175.714 87.18C176.654 87.18 177.274 86.98 177.894 86.64V84.66C177.414 84.9 176.914 85.02 176.394 85.02C175.574 85.02 175.094 84.64 175.094 83.7V78.52H177.934V76.44H175.094V73.54H172.674V76.44H171.334V78.52H172.674V84.08C172.674 86.4 173.934 87.18 175.714 87.18ZM179.937 74.82H182.537V72.52H179.937V74.82ZM180.017 87H182.457V76.44H180.017V87ZM185.66 87H188.08V78.52H190.84V76.52H188.04V75.94C188.04 74.88 188.5 74.34 189.44 74.34C189.98 74.34 190.38 74.44 190.86 74.6V72.56C190.32 72.4 189.74 72.28 188.88 72.28C187.86 72.28 187.08 72.56 186.52 73.12C185.94 73.7 185.66 74.56 185.66 75.72V76.5H184.32V78.52H185.66V87ZM192.76 87H195.2V76.44H192.76V87ZM192.68 74.82H195.28V72.52H192.68V74.82ZM202.742 87.24C204.802 87.24 206.022 86.44 207.062 85.26L205.602 83.82C204.822 84.6 204.002 85.12 202.862 85.12C201.002 85.12 199.702 83.62 199.702 81.74V81.7C199.702 79.86 201.002 78.34 202.762 78.34C203.962 78.34 204.742 78.88 205.482 79.66L207.002 78.04C205.982 76.96 204.762 76.22 202.782 76.22C199.602 76.22 197.282 78.74 197.282 81.74V81.78C197.282 84.78 199.602 87.24 202.742 87.24ZM211.828 87.22C213.448 87.22 214.548 86.54 215.268 85.68V87H217.628V80.74C217.628 79.36 217.268 78.26 216.488 77.48C215.728 76.7 214.568 76.3 212.988 76.3C211.308 76.3 210.168 76.66 208.988 77.16L209.648 79.06C210.608 78.66 211.468 78.4 212.668 78.4C214.368 78.4 215.288 79.18 215.288 80.7V80.96C214.468 80.7 213.648 80.52 212.448 80.52C209.868 80.52 208.068 81.62 208.068 83.92V83.96C208.068 86.1 209.848 87.22 211.828 87.22ZM212.508 85.46C211.328 85.46 210.448 84.88 210.448 83.86V83.82C210.448 82.7 211.348 82.06 212.928 82.06C213.888 82.06 214.708 82.24 215.328 82.48V83.2C215.328 84.56 214.108 85.46 212.508 85.46ZM223.468 87.18C224.408 87.18 225.028 86.98 225.648 86.64V84.66C225.168 84.9 224.668 85.02 224.148 85.02C223.328 85.02 222.848 84.64 222.848 83.7V78.52H225.688V76.44H222.848V73.54H220.428V76.44H219.088V78.52H220.428V84.08C220.428 86.4 221.688 87.18 223.468 87.18ZM227.691 74.82H230.291V72.52H227.691V74.82ZM227.771 87H230.211V76.44H227.771V87ZM237.894 87.24C241.154 87.24 243.554 84.72 243.554 81.74V81.7C243.554 78.68 241.194 76.22 237.934 76.22C234.694 76.22 232.294 78.72 232.294 81.74V81.78C232.294 84.78 234.674 87.24 237.894 87.24ZM237.934 85.12C236.074 85.12 234.714 83.58 234.714 81.74V81.7C234.714 79.86 235.954 78.34 237.894 78.34C239.794 78.34 241.134 79.88 241.134 81.74V81.78C241.134 83.6 239.914 85.12 237.934 85.12ZM245.498 87H247.938V81.04C247.938 79.38 248.898 78.42 250.318 78.42C251.758 78.42 252.578 79.34 252.578 81V87H254.998V80.26C254.998 77.8 253.638 76.22 251.238 76.22C249.578 76.22 248.638 77.08 247.938 78.06V76.44H245.498V87ZM257.92 89.82C261.58 87.82 263.46 85.04 263.46 81.28V81.26C263.46 77.44 261.58 74.7 257.92 72.7L256.86 74.32C259.72 76.22 261.04 78.28 261.04 81.24V81.26C261.04 84.28 259.7 86.28 256.86 88.2L257.92 89.82Z" fill="#4995CD"></path><path d="M546.962 63.24C549.562 63.24 551.222 62.3 552.642 60.76L551.062 59.16C549.862 60.28 548.742 60.96 547.042 60.96C544.362 60.96 542.422 58.74 542.422 56V55.96C542.422 53.22 544.382 51.04 547.022 51.04C548.642 51.04 549.822 51.72 550.962 52.76L552.542 50.94C551.202 49.66 549.642 48.76 547.042 48.76C542.822 48.76 539.842 52.02 539.842 56V56.04C539.842 60.06 542.882 63.24 546.962 63.24ZM559.292 63.24C562.552 63.24 564.952 60.72 564.952 57.74V57.7C564.952 54.68 562.592 52.22 559.332 52.22C556.092 52.22 553.692 54.72 553.692 57.74V57.78C553.692 60.78 556.072 63.24 559.292 63.24ZM559.332 61.12C557.472 61.12 556.112 59.58 556.112 57.74V57.7C556.112 55.86 557.352 54.34 559.292 54.34C561.192 54.34 562.532 55.88 562.532 57.74V57.78C562.532 59.6 561.312 61.12 559.332 61.12ZM566.896 63H569.336V57.04C569.336 55.38 570.296 54.42 571.716 54.42C573.156 54.42 573.976 55.34 573.976 57V63H576.396V56.26C576.396 53.8 575.036 52.22 572.636 52.22C570.976 52.22 570.036 53.08 569.336 54.06V52.44H566.896V63ZM579.359 63H581.779V54.52H584.539V52.52H581.739V51.94C581.739 50.88 582.199 50.34 583.139 50.34C583.679 50.34 584.079 50.44 584.559 50.6V48.56C584.019 48.4 583.439 48.28 582.579 48.28C581.559 48.28 580.779 48.56 580.219 49.12C579.639 49.7 579.359 50.56 579.359 51.72V52.5H578.019V54.52H579.359V63ZM586.459 63H588.899V52.44H586.459V63ZM586.379 50.82H588.979V48.52H586.379V50.82ZM595.921 63.22C597.621 63.22 598.741 62.34 599.521 61.24V63H601.941V48.4H599.521V54.08C598.781 53.08 597.641 52.22 595.921 52.22C593.401 52.22 591.021 54.18 591.021 57.7V57.74C591.021 61.26 593.441 63.22 595.921 63.22ZM596.501 61.12C594.841 61.12 593.461 59.78 593.461 57.74V57.7C593.461 55.62 594.841 54.32 596.501 54.32C598.121 54.32 599.561 55.66 599.561 57.7V57.74C599.561 59.76 598.121 61.12 596.501 61.12ZM609.319 63.24C611.259 63.24 612.619 62.46 613.639 61.26L612.219 60C611.359 60.82 610.559 61.26 609.359 61.26C607.779 61.26 606.579 60.32 606.319 58.58H614.079C614.099 58.34 614.119 58.12 614.119 57.9C614.119 54.86 612.419 52.22 609.059 52.22C606.039 52.22 603.899 54.68 603.899 57.72V57.76C603.899 61.02 606.279 63.24 609.319 63.24ZM606.299 56.98C606.519 55.32 607.539 54.2 609.039 54.2C610.639 54.2 611.559 55.44 611.719 56.98H606.299ZM616.029 63H618.469V57.04C618.469 55.38 619.429 54.42 620.849 54.42C622.289 54.42 623.109 55.34 623.109 57V63H625.529V56.26C625.529 53.8 624.169 52.22 621.769 52.22C620.109 52.22 619.169 53.08 618.469 54.06V52.44H616.029V63ZM631.492 63.18C632.432 63.18 633.052 62.98 633.672 62.64V60.66C633.192 60.9 632.692 61.02 632.172 61.02C631.352 61.02 630.872 60.64 630.872 59.7V54.52H633.712V52.44H630.872V49.54H628.452V52.44H627.112V54.52H628.452V60.08C628.452 62.4 629.712 63.18 631.492 63.18ZM635.714 50.82H638.314V48.52H635.714V50.82ZM635.794 63H638.234V52.44H635.794V63ZM643.937 63.22C645.557 63.22 646.657 62.54 647.377 61.68V63H649.737V56.74C649.737 55.36 649.377 54.26 648.597 53.48C647.837 52.7 646.677 52.3 645.097 52.3C643.417 52.3 642.277 52.66 641.097 53.16L641.757 55.06C642.717 54.66 643.577 54.4 644.777 54.4C646.477 54.4 647.397 55.18 647.397 56.7V56.96C646.577 56.7 645.757 56.52 644.557 56.52C641.977 56.52 640.177 57.62 640.177 59.92V59.96C640.177 62.1 641.957 63.22 643.937 63.22ZM644.617 61.46C643.437 61.46 642.557 60.88 642.557 59.86V59.82C642.557 58.7 643.457 58.06 645.037 58.06C645.997 58.06 646.817 58.24 647.437 58.48V59.2C647.437 60.56 646.217 61.46 644.617 61.46ZM652.255 63H654.695V48.4H652.255V63ZM495.069 88.2C492.209 86.3 490.889 84.24 490.889 81.28V81.26C490.889 78.24 492.229 76.24 495.069 74.32L494.009 72.7C490.349 74.7 488.469 77.48 488.469 81.24V81.26C488.469 85.08 490.349 87.82 494.009 89.82L495.069 88.2ZM503.232 87.24C505.832 87.24 507.492 86.3 508.912 84.76L507.332 83.16C506.132 84.28 505.012 84.96 503.312 84.96C500.632 84.96 498.692 82.74 498.692 80V79.96C498.692 77.22 500.652 75.04 503.292 75.04C504.912 75.04 506.092 75.72 507.232 76.76L508.812 74.94C507.472 73.66 505.912 72.76 503.312 72.76C499.092 72.76 496.112 76.02 496.112 80V80.04C496.112 84.06 499.152 87.24 503.232 87.24ZM510.857 87H513.297V72.4H510.857V87ZM515.999 74.82H518.599V72.52H515.999V74.82ZM516.079 87H518.519V76.44H516.079V87ZM526.022 87.24C527.962 87.24 529.322 86.46 530.342 85.26L528.922 84C528.062 84.82 527.262 85.26 526.062 85.26C524.482 85.26 523.282 84.32 523.022 82.58H530.782C530.802 82.34 530.822 82.12 530.822 81.9C530.822 78.86 529.122 76.22 525.762 76.22C522.742 76.22 520.602 78.68 520.602 81.72V81.76C520.602 85.02 522.982 87.24 526.022 87.24ZM523.002 80.98C523.222 79.32 524.242 78.2 525.742 78.2C527.342 78.2 528.262 79.44 528.422 80.98H523.002ZM532.732 87H535.172V81.04C535.172 79.38 536.132 78.42 537.552 78.42C538.992 78.42 539.812 79.34 539.812 81V87H542.232V80.26C542.232 77.8 540.872 76.22 538.472 76.22C536.812 76.22 535.872 77.08 535.172 78.06V76.44H532.732V87ZM548.195 87.18C549.135 87.18 549.755 86.98 550.375 86.64V84.66C549.895 84.9 549.395 85.02 548.875 85.02C548.055 85.02 547.575 84.64 547.575 83.7V78.52H550.415V76.44H547.575V73.54H545.155V76.44H543.815V78.52H545.155V84.08C545.155 86.4 546.415 87.18 548.195 87.18ZM556.954 87H559.474L560.914 83.62H567.534L568.954 87H571.554L565.394 72.9H563.114L556.954 87ZM561.814 81.44L564.214 75.84L566.634 81.44H561.814ZM576.619 87.22C578.239 87.22 579.219 86.38 579.919 85.36V87H582.359V76.44H579.919V82.4C579.919 84.06 578.959 85 577.539 85C576.099 85 575.279 84.1 575.279 82.44V76.44H572.859V83.16C572.859 85.64 574.219 87.22 576.619 87.22ZM588.421 87.18C589.361 87.18 589.981 86.98 590.601 86.64V84.66C590.121 84.9 589.621 85.02 589.101 85.02C588.281 85.02 587.801 84.64 587.801 83.7V78.52H590.641V76.44H587.801V73.54H585.381V76.44H584.041V78.52H585.381V84.08C585.381 86.4 586.641 87.18 588.421 87.18ZM592.584 87H595.024V81.04C595.024 79.38 595.984 78.42 597.404 78.42C598.844 78.42 599.664 79.34 599.664 81V87H602.084V80.26C602.084 77.8 600.724 76.22 598.324 76.22C596.664 76.22 595.724 77.08 595.024 78.06V72.4H592.584V87ZM609.346 87.24C611.286 87.24 612.646 86.46 613.666 85.26L612.246 84C611.386 84.82 610.586 85.26 609.386 85.26C607.806 85.26 606.606 84.32 606.346 82.58H614.106C614.126 82.34 614.146 82.12 614.146 81.9C614.146 78.86 612.446 76.22 609.086 76.22C606.066 76.22 603.926 78.68 603.926 81.72V81.76C603.926 85.02 606.306 87.24 609.346 87.24ZM606.326 80.98C606.546 79.32 607.566 78.2 609.066 78.2C610.666 78.2 611.586 79.44 611.746 80.98H606.326ZM616.057 87H618.497V81.04C618.497 79.38 619.457 78.42 620.877 78.42C622.317 78.42 623.137 79.34 623.137 81V87H625.557V80.26C625.557 77.8 624.197 76.22 621.797 76.22C620.137 76.22 619.197 77.08 618.497 78.06V76.44H616.057V87ZM631.519 87.18C632.459 87.18 633.079 86.98 633.699 86.64V84.66C633.219 84.9 632.719 85.02 632.199 85.02C631.379 85.02 630.899 84.64 630.899 83.7V78.52H633.739V76.44H630.899V73.54H628.479V76.44H627.139V78.52H628.479V84.08C628.479 86.4 629.739 87.18 631.519 87.18ZM635.742 74.82H638.342V72.52H635.742V74.82ZM635.822 87H638.262V76.44H635.822V87ZM645.804 87.24C647.864 87.24 649.084 86.44 650.124 85.26L648.664 83.82C647.884 84.6 647.064 85.12 645.924 85.12C644.064 85.12 642.764 83.62 642.764 81.74V81.7C642.764 79.86 644.064 78.34 645.824 78.34C647.024 78.34 647.804 78.88 648.544 79.66L650.064 78.04C649.044 76.96 647.824 76.22 645.844 76.22C642.664 76.22 640.344 78.74 640.344 81.74V81.78C640.344 84.78 642.664 87.24 645.804 87.24ZM654.89 87.22C656.51 87.22 657.61 86.54 658.33 85.68V87H660.69V80.74C660.69 79.36 660.33 78.26 659.55 77.48C658.79 76.7 657.63 76.3 656.05 76.3C654.37 76.3 653.23 76.66 652.05 77.16L652.71 79.06C653.67 78.66 654.53 78.4 655.73 78.4C657.43 78.4 658.35 79.18 658.35 80.7V80.96C657.53 80.7 656.71 80.52 655.51 80.52C652.93 80.52 651.13 81.62 651.13 83.92V83.96C651.13 86.1 652.91 87.22 654.89 87.22ZM655.57 85.46C654.39 85.46 653.51 84.88 653.51 83.86V83.82C653.51 82.7 654.41 82.06 655.99 82.06C656.95 82.06 657.77 82.24 658.39 82.48V83.2C658.39 84.56 657.17 85.46 655.57 85.46ZM666.531 87.18C667.471 87.18 668.091 86.98 668.711 86.64V84.66C668.231 84.9 667.731 85.02 667.211 85.02C666.391 85.02 665.911 84.64 665.911 83.7V78.52H668.751V76.44H665.911V73.54H663.491V76.44H662.151V78.52H663.491V84.08C663.491 86.4 664.751 87.18 666.531 87.18ZM670.753 74.82H673.353V72.52H670.753V74.82ZM670.833 87H673.273V76.44H670.833V87ZM680.956 87.24C684.216 87.24 686.616 84.72 686.616 81.74V81.7C686.616 78.68 684.256 76.22 680.996 76.22C677.756 76.22 675.356 78.72 675.356 81.74V81.78C675.356 84.78 677.736 87.24 680.956 87.24ZM680.996 85.12C679.136 85.12 677.776 83.58 677.776 81.74V81.7C677.776 79.86 679.016 78.34 680.956 78.34C682.856 78.34 684.196 79.88 684.196 81.74V81.78C684.196 83.6 682.976 85.12 680.996 85.12ZM688.561 87H691.001V81.04C691.001 79.38 691.961 78.42 693.381 78.42C694.821 78.42 695.641 79.34 695.641 81V87H698.061V80.26C698.061 77.8 696.701 76.22 694.301 76.22C692.641 76.22 691.701 77.08 691.001 78.06V76.44H688.561V87ZM700.983 89.82C704.643 87.82 706.523 85.04 706.523 81.28V81.26C706.523 77.44 704.643 74.7 700.983 72.7L699.923 74.32C702.783 76.22 704.103 78.28 704.103 81.24V81.26C704.103 84.28 702.763 86.28 699.923 88.2L700.983 89.82Z" fill="#CA7228"></path><path d="M441.75 176.969H432.875C431.698 176.969 430.569 177.436 429.737 178.268C428.905 179.101 428.438 180.229 428.438 181.406V208.031H432.875V196.938H441.75V208.031H446.188V181.406C446.188 180.229 445.72 179.101 444.888 178.268C444.056 177.436 442.927 176.969 441.75 176.969ZM432.875 192.5V181.406H441.75V192.5H432.875Z" fill="#CA7228"></path><path d="M472.812 181.406H479.469V203.594H472.812V208.031H490.562V203.594H483.906V181.406H490.562V176.969H472.812V181.406Z" fill="#CA7228"></path><path d="M455.062 208.031H450.625V176.969H463.938C465.114 176.969 466.243 177.436 467.075 178.268C467.907 179.101 468.375 180.229 468.375 181.406V192.5C468.375 193.677 467.907 194.806 467.075 195.638C466.243 196.47 465.114 196.938 463.938 196.938H455.062V208.031ZM455.062 192.5H463.938V181.406H455.062V192.5Z" fill="#CA7228"></path><path d="M347.25 205.75C346.093 205.756 344.96 206.074 343.969 206.671L337.771 200.473C338.654 199.149 339.125 197.592 339.125 196C339.125 194.408 338.654 192.851 337.771 191.527L341.91 187.388C342.957 187.892 344.149 188.009 345.275 187.719C346.4 187.429 347.387 186.75 348.059 185.802C348.732 184.854 349.047 183.699 348.95 182.541C348.852 181.382 348.348 180.296 347.526 179.474C346.704 178.652 345.618 178.148 344.459 178.05C343.301 177.953 342.146 178.268 341.198 178.941C340.25 179.613 339.571 180.6 339.281 181.725C338.991 182.851 339.108 184.043 339.613 185.09L335.474 189.229C334.149 188.346 332.592 187.875 331 187.875C329.408 187.875 327.852 188.346 326.527 189.229L320.329 183.031C320.926 182.04 321.244 180.907 321.25 179.75C321.25 178.464 320.869 177.208 320.155 176.139C319.44 175.07 318.425 174.237 317.237 173.745C316.05 173.253 314.743 173.124 313.482 173.375C312.221 173.626 311.063 174.245 310.154 175.154C309.245 176.063 308.626 177.221 308.375 178.482C308.124 179.743 308.253 181.05 308.745 182.237C309.237 183.425 310.07 184.44 311.139 185.155C312.208 185.869 313.464 186.25 314.75 186.25C315.907 186.244 317.04 185.926 318.031 185.329L324.229 191.527C323.346 192.851 322.875 194.408 322.875 196C322.875 197.592 323.346 199.149 324.229 200.473L318.031 206.671C317.04 206.074 315.907 205.756 314.75 205.75C313.464 205.75 312.208 206.131 311.139 206.845C310.07 207.56 309.237 208.575 308.745 209.763C308.253 210.95 308.124 212.257 308.375 213.518C308.626 214.779 309.245 215.937 310.154 216.846C311.063 217.755 312.221 218.374 313.482 218.625C314.743 218.876 316.05 218.747 317.237 218.255C318.425 217.763 319.44 216.93 320.155 215.861C320.869 214.792 321.25 213.536 321.25 212.25C321.244 211.093 320.926 209.96 320.329 208.969L326.527 202.771C327.391 203.347 328.358 203.751 329.375 203.961V209.299C328.291 209.682 327.377 210.436 326.795 211.428C326.213 212.42 326.001 213.586 326.195 214.719C326.39 215.853 326.979 216.881 327.858 217.622C328.737 218.363 329.85 218.77 331 218.77C332.15 218.77 333.263 218.363 334.142 217.622C335.021 216.881 335.61 215.853 335.805 214.719C335.999 213.586 335.787 212.42 335.205 211.428C334.623 210.436 333.709 209.682 332.625 209.299V203.961C333.642 203.751 334.609 203.347 335.473 202.771L341.671 208.969C341.074 209.96 340.756 211.093 340.75 212.25C340.75 213.536 341.131 214.792 341.845 215.861C342.56 216.93 343.575 217.763 344.763 218.255C345.95 218.747 347.257 218.876 348.518 218.625C349.779 218.374 350.937 217.755 351.846 216.846C352.755 215.937 353.374 214.779 353.625 213.518C353.876 212.257 353.747 210.95 353.255 209.763C352.763 208.575 351.93 207.56 350.861 206.845C349.792 206.131 348.536 205.75 347.25 205.75ZM331 191.125C331.964 191.125 332.907 191.411 333.708 191.947C334.51 192.482 335.135 193.244 335.504 194.134C335.873 195.025 335.969 196.005 335.781 196.951C335.593 197.897 335.129 198.765 334.447 199.447C333.765 200.129 332.897 200.593 331.951 200.781C331.005 200.969 330.025 200.873 329.134 200.504C328.244 200.135 327.482 199.51 326.947 198.708C326.411 197.907 326.125 196.964 326.125 196C326.126 194.708 326.64 193.468 327.554 192.554C328.468 191.64 329.708 191.126 331 191.125V191.125ZM311.5 179.75C311.5 179.107 311.691 178.479 312.048 177.944C312.405 177.41 312.912 176.993 313.506 176.747C314.1 176.501 314.754 176.437 315.384 176.562C316.014 176.688 316.594 176.997 317.048 177.452C317.503 177.906 317.812 178.486 317.938 179.116C318.063 179.746 317.999 180.4 317.753 180.994C317.507 181.588 317.09 182.095 316.556 182.452C316.021 182.809 315.393 183 314.75 183C313.888 182.999 313.062 182.656 312.453 182.047C311.844 181.438 311.501 180.612 311.5 179.75V179.75ZM314.75 215.5C314.107 215.5 313.479 215.309 312.944 214.952C312.41 214.595 311.993 214.088 311.747 213.494C311.501 212.9 311.437 212.246 311.562 211.616C311.688 210.986 311.997 210.406 312.452 209.952C312.906 209.497 313.486 209.188 314.116 209.062C314.746 208.937 315.4 209.001 315.994 209.247C316.588 209.493 317.095 209.91 317.452 210.444C317.809 210.979 318 211.607 318 212.25C317.999 213.112 317.656 213.938 317.047 214.547C316.438 215.156 315.612 215.499 314.75 215.5ZM347.25 215.5C346.607 215.5 345.979 215.309 345.444 214.952C344.91 214.595 344.493 214.088 344.247 213.494C344.001 212.9 343.937 212.246 344.062 211.616C344.188 210.986 344.497 210.406 344.952 209.952C345.406 209.497 345.986 209.188 346.616 209.062C347.246 208.937 347.9 209.001 348.494 209.247C349.088 209.493 349.595 209.91 349.952 210.444C350.309 210.979 350.5 211.607 350.5 212.25C350.499 213.112 350.156 213.938 349.547 214.547C348.938 215.156 348.112 215.499 347.25 215.5V215.5Z" fill="#475715"></path><path d="M120.5 173H73.75C72.6228 173 71.5418 173.448 70.7448 174.245C69.9478 175.042 69.5 176.123 69.5 177.25V190H73.75V177.25H120.5V207H90.75V211.25H95V219.75H90.75V224H109.875V219.75H99.25V211.25H120.5C121.627 211.25 122.708 210.802 123.505 210.005C124.302 209.208 124.75 208.127 124.75 207V177.25C124.75 176.123 124.302 175.042 123.505 174.245C122.708 173.448 121.627 173 120.5 173Z" fill="#4995CD"></path><path d="M70.5 193.5C67.0388 193.5 63.6554 194.526 60.7775 196.449C57.8997 198.372 55.6566 201.105 54.3321 204.303C53.0076 207.501 52.661 211.019 53.3363 214.414C54.0115 217.809 55.6782 220.927 58.1256 223.374C60.5731 225.822 63.6913 227.488 67.0859 228.164C70.4806 228.839 73.9993 228.492 77.197 227.168C80.3947 225.843 83.1278 223.6 85.0507 220.722C86.9736 217.845 88 214.461 88 211C88 206.359 86.1563 201.908 82.8744 198.626C79.5925 195.344 75.1413 193.5 70.5 193.5V193.5ZM85.5 209.75H78C77.8541 205.146 76.6614 200.636 74.5125 196.562C77.4732 197.372 80.1142 199.071 82.079 201.429C84.0438 203.787 85.2379 206.692 85.5 209.75V209.75ZM70.5 226C70.2212 226.019 69.9414 226.019 69.6625 226C67.0729 221.87 65.6356 217.123 65.5 212.25H75.5C75.3756 217.119 73.9515 221.866 71.375 226C71.0837 226.02 70.7913 226.02 70.5 226ZM65.5 209.75C65.6244 204.881 67.0486 200.134 69.625 196C70.1816 195.937 70.7434 195.937 71.3 196C73.9028 200.126 75.3531 204.874 75.5 209.75H65.5ZM66.45 196.562C64.3141 200.64 63.1343 205.149 63 209.75H55.5C55.7621 206.692 56.9562 203.787 58.921 201.429C60.8858 199.071 63.5268 197.372 66.4875 196.562H66.45ZM55.5625 212.25H63.0625C63.193 216.85 64.3685 221.359 66.5 225.437C63.5486 224.619 60.9185 222.916 58.9632 220.559C57.0079 218.201 55.8212 215.302 55.5625 212.25V212.25ZM74.5125 225.437C76.6614 221.364 77.8541 216.854 78 212.25H85.5C85.2379 215.308 84.0438 218.212 82.079 220.571C80.1142 222.929 77.4732 224.628 74.5125 225.437Z" fill="#4995CD"></path><path d="M210.594 220.5C212.406 220.5 213.875 219.031 213.875 217.219C213.875 215.407 212.406 213.938 210.594 213.938C208.782 213.938 207.312 215.407 207.312 217.219C207.312 219.031 208.782 220.5 210.594 220.5Z" fill="#4995CD"></path><path d="M224.812 229.25H196.375C195.215 229.249 194.103 228.787 193.283 227.967C192.463 227.147 192.001 226.035 192 224.875V172.375C192.001 171.215 192.463 170.103 193.283 169.283C194.103 168.463 195.215 168.001 196.375 168H224.812V172.375H196.375V224.875H224.812V216.125H229.188V224.875C229.186 226.035 228.725 227.147 227.905 227.967C227.084 228.787 225.972 229.249 224.812 229.25V229.25Z" fill="#4995CD"></path><path d="M222.787 196.614H210.143C209.472 196.614 208.829 196.347 208.355 195.873C207.881 195.399 207.614 194.755 207.614 194.085V181.441C207.614 180.77 207.881 180.127 208.355 179.653C208.829 179.179 209.472 178.912 210.143 178.912H222.787C223.457 178.912 224.101 179.179 224.575 179.653C225.049 180.127 225.315 180.77 225.315 181.441V194.085C225.315 194.755 225.049 195.399 224.575 195.873C224.101 196.347 223.457 196.614 222.787 196.614V196.614ZM210.143 181.441V194.085H222.787V181.441H210.143Z" fill="#4995CD"></path><path d="M234.97 188.769V193.999H230.143V188.769H234.97ZM234.97 186.154H230.143C229.503 186.154 228.889 186.429 228.436 186.92C227.983 187.41 227.729 188.075 227.729 188.769V193.999C227.729 194.692 227.983 195.357 228.436 195.848C228.889 196.338 229.503 196.614 230.143 196.614H234.97C235.611 196.614 236.225 196.338 236.677 195.848C237.13 195.357 237.384 194.692 237.384 193.999V188.769C237.384 188.075 237.13 187.41 236.677 186.92C236.225 186.429 235.611 186.154 234.97 186.154Z" fill="#4995CD"></path><path d="M234.97 201.441V206.269H230.143V201.441H234.97ZM234.97 199.027H230.143C229.503 199.027 228.889 199.282 228.436 199.734C227.983 200.187 227.729 200.801 227.729 201.441V206.269C227.729 206.909 227.983 207.523 228.436 207.976C228.889 208.428 229.503 208.683 230.143 208.683H234.97C235.611 208.683 236.225 208.428 236.677 207.976C237.13 207.523 237.384 206.909 237.384 206.269V201.441C237.384 200.801 237.13 200.187 236.677 199.734C236.225 199.282 235.611 199.027 234.97 199.027Z" fill="#4995CD"></path><path d="M222.7 201.441V206.269H217.47V201.441H222.7ZM222.7 199.027H217.47C216.777 199.027 216.112 199.282 215.621 199.734C215.131 200.187 214.855 200.801 214.855 201.441V206.269C214.855 206.909 215.131 207.523 215.621 207.976C216.112 208.428 216.777 208.683 217.47 208.683H222.7C223.394 208.683 224.059 208.428 224.549 207.976C225.04 207.523 225.315 206.909 225.315 206.269V201.441C225.315 200.801 225.04 200.187 224.549 199.734C224.059 199.282 223.394 199.027 222.7 199.027V199.027Z" fill="#4995CD"></path><path d="M757.922 185.92C756.914 180.712 754.125 176.016 750.034 172.639C745.943 169.261 740.805 167.412 735.5 167.407V171.969C739.744 171.975 743.855 173.455 747.127 176.158C750.4 178.86 752.633 182.616 753.442 186.782L754.033 189.852L757.11 190.409C760.193 190.965 762.957 192.654 764.859 195.144C766.76 197.635 767.661 200.746 767.385 203.867C767.109 206.988 765.676 209.893 763.367 212.011C761.059 214.129 758.041 215.306 754.908 215.313H735.5V219.875H754.908C759.18 219.869 763.296 218.264 766.446 215.378C769.595 212.491 771.551 208.53 771.929 204.275C772.307 200.019 771.079 195.776 768.487 192.379C765.895 188.983 762.127 186.679 757.922 185.92V185.92Z" fill="#CA7228"></path><path d="M730.938 210.75H717.25V215.312H730.938V210.75Z" fill="#CA7228"></path><path d="M712.688 210.75H708.125V215.312H712.688V210.75Z" fill="#CA7228"></path><path d="M730.938 201.625H712.688V206.188H730.938V201.625Z" fill="#CA7228"></path><path d="M708.125 201.625H703.562V206.188H708.125V201.625Z" fill="#CA7228"></path><path d="M730.938 192.5H717.25V197.062H730.938V192.5Z" fill="#CA7228"></path><path d="M712.688 192.5H708.125V197.062H712.688V192.5Z" fill="#CA7228"></path><path d="M730.938 183.375H721.812V187.938H730.938V183.375Z" fill="#CA7228"></path><path d="M717.25 183.375H712.688V187.938H717.25V183.375Z" fill="#CA7228"></path><path d="M730.938 174.25H726.375V178.812H730.938V174.25Z" fill="#CA7228"></path><path d="M623.25 167.75H570.75C569.59 167.75 568.477 168.211 567.656 169.031C566.836 169.852 566.375 170.965 566.375 172.125V207.125C566.375 208.285 566.836 209.398 567.656 210.219C568.477 211.039 569.59 211.5 570.75 211.5H588.25V220.25H579.5V224.625H614.5V220.25H605.75V211.5H623.25C624.41 211.5 625.523 211.039 626.344 210.219C627.164 209.398 627.625 208.285 627.625 207.125V172.125C627.625 170.965 627.164 169.852 626.344 169.031C625.523 168.211 624.41 167.75 623.25 167.75V167.75ZM601.375 220.25H592.625V211.5H601.375V220.25ZM623.25 207.125H570.75V172.125H623.25V207.125Z" fill="#CA7228"></path><path d="M590.75 201.312H587.375C586.927 201.312 586.498 201.135 586.182 200.818C585.865 200.502 585.688 200.073 585.688 199.625V196.25C585.688 195.802 585.865 195.373 586.182 195.057C586.498 194.74 586.927 194.562 587.375 194.562H590.75C591.198 194.562 591.627 194.74 591.943 195.057C592.26 195.373 592.438 195.802 592.438 196.25V199.625C592.438 200.073 592.26 200.502 591.943 200.818C591.627 201.135 591.198 201.312 590.75 201.312ZM587.375 196.25V199.625H590.75V196.25H587.375Z" fill="#CA7228"></path><path d="M599.188 201.312H595.812C595.365 201.312 594.936 201.135 594.619 200.818C594.303 200.502 594.125 200.073 594.125 199.625V196.25C594.125 195.802 594.303 195.373 594.619 195.057C594.936 194.74 595.365 194.562 595.812 194.562H599.188C599.635 194.562 600.064 194.74 600.381 195.057C600.697 195.373 600.875 195.802 600.875 196.25V199.625C600.875 200.073 600.697 200.502 600.381 200.818C600.064 201.135 599.635 201.312 599.188 201.312ZM595.812 196.25V199.625H599.188V196.25H595.812Z" fill="#CA7228"></path><path d="M607.625 201.312H604.25C603.802 201.312 603.373 201.135 603.057 200.818C602.74 200.502 602.562 200.073 602.562 199.625V196.25C602.562 195.802 602.74 195.373 603.057 195.057C603.373 194.74 603.802 194.562 604.25 194.562H607.625C608.073 194.562 608.502 194.74 608.818 195.057C609.135 195.373 609.312 195.802 609.312 196.25V199.625C609.312 200.073 609.135 200.502 608.818 200.818C608.502 201.135 608.073 201.312 607.625 201.312ZM604.25 196.25V199.625H607.625V196.25H604.25Z" fill="#CA7228"></path><path d="M590.75 192.875H587.375C586.927 192.875 586.498 192.697 586.182 192.381C585.865 192.064 585.688 191.635 585.688 191.188V187.812C585.688 187.365 585.865 186.936 586.182 186.619C586.498 186.303 586.927 186.125 587.375 186.125H590.75C591.198 186.125 591.627 186.303 591.943 186.619C592.26 186.936 592.438 187.365 592.438 187.812V191.188C592.438 191.635 592.26 192.064 591.943 192.381C591.627 192.697 591.198 192.875 590.75 192.875ZM587.375 187.812V191.188H590.75V187.812H587.375Z" fill="#CA7228"></path><path d="M599.188 192.875H595.812C595.365 192.875 594.936 192.697 594.619 192.381C594.303 192.064 594.125 191.635 594.125 191.188V187.812C594.125 187.365 594.303 186.936 594.619 186.619C594.936 186.303 595.365 186.125 595.812 186.125H599.188C599.635 186.125 600.064 186.303 600.381 186.619C600.697 186.936 600.875 187.365 600.875 187.812V191.188C600.875 191.635 600.697 192.064 600.381 192.381C600.064 192.697 599.635 192.875 599.188 192.875ZM595.812 187.812V191.188H599.188V187.812H595.812Z" fill="#CA7228"></path><path d="M607.625 192.875H604.25C603.802 192.875 603.373 192.697 603.057 192.381C602.74 192.064 602.562 191.635 602.562 191.188V187.812C602.562 187.365 602.74 186.936 603.057 186.619C603.373 186.303 603.802 186.125 604.25 186.125H607.625C608.073 186.125 608.502 186.303 608.818 186.619C609.135 186.936 609.312 187.365 609.312 187.812V191.188C609.312 191.635 609.135 192.064 608.818 192.381C608.502 192.697 608.073 192.875 607.625 192.875ZM604.25 187.812V191.188H607.625V187.812H604.25Z" fill="#CA7228"></path><path d="M590.75 184.438H587.375C586.927 184.438 586.498 184.26 586.182 183.943C585.865 183.627 585.688 183.198 585.688 182.75V179.375C585.688 178.927 585.865 178.498 586.182 178.182C586.498 177.865 586.927 177.688 587.375 177.688H590.75C591.198 177.688 591.627 177.865 591.943 178.182C592.26 178.498 592.438 178.927 592.438 179.375V182.75C592.438 183.198 592.26 183.627 591.943 183.943C591.627 184.26 591.198 184.438 590.75 184.438ZM587.375 179.375V182.75H590.75V179.375H587.375Z" fill="#CA7228"></path><path d="M599.188 184.438H595.812C595.365 184.438 594.936 184.26 594.619 183.943C594.303 183.627 594.125 183.198 594.125 182.75V179.375C594.125 178.927 594.303 178.498 594.619 178.182C594.936 177.865 595.365 177.688 595.812 177.688H599.188C599.635 177.688 600.064 177.865 600.381 178.182C600.697 178.498 600.875 178.927 600.875 179.375V182.75C600.875 183.198 600.697 183.627 600.381 183.943C600.064 184.26 599.635 184.438 599.188 184.438ZM595.812 179.375V182.75H599.188V179.375H595.812Z" fill="#CA7228"></path><path d="M607.625 184.438H604.25C603.802 184.438 603.373 184.26 603.057 183.943C602.74 183.627 602.562 183.198 602.562 182.75V179.375C602.562 178.927 602.74 178.498 603.057 178.182C603.373 177.865 603.802 177.688 604.25 177.688H607.625C608.073 177.688 608.502 177.865 608.818 178.182C609.135 178.498 609.312 178.927 609.312 179.375V182.75C609.312 183.198 609.135 183.627 608.818 183.943C608.502 184.26 608.073 184.438 607.625 184.438ZM604.25 179.375V182.75H607.625V179.375H604.25Z" fill="#CA7228"></path><path d="M53 155V141C53 134.373 58.3726 129 65 129H319C325.627 129 331 134.373 331 141V155" stroke="#4995CD" stroke-width="3"></path><path d="M331 155V141C331 134.373 336.373 129 343 129H766C772.627 129 778 134.373 778 141V155" stroke="#CA7228" stroke-width="3"></path><path d="M156.5 129V101.5" stroke="#4995CD" stroke-width="3"></path><path d="M597 129V101" stroke="#CA7228" stroke-width="3"></path><defs><linearGradient id="paint0_linear_2556_14079" x1="415.5" y1="0" x2="415.5" y2="273" gradientUnits="userSpaceOnUse"><stop stop-color="white"></stop><stop offset="1" stop-color="white" stop-opacity="0"></stop></linearGradient></defs></svg> 