<?xml version="1.0" encoding="UTF-8"?> <svg xmlns="http://www.w3.org/2000/svg" width="1049" height="273" viewBox="0 0 1049 273" fill="none"><rect width="1049" height="273" fill="white"></rect><rect width="1049" height="273" fill="url(#paint0_linear_2561_14147)"></rect><rect x="754.5" y="67.5" width="261" height="137" rx="6.5" fill="#CA7228" stroke="#CA7228" stroke-width="3"></rect><path d="M822.099 141H824.559V136.5H827.339C830.439 136.5 832.939 134.84 832.939 131.72V131.68C832.939 128.86 830.899 127 827.619 127H822.099V141ZM824.559 134.28V129.24H827.419C829.259 129.24 830.439 130.08 830.439 131.74V131.78C830.439 133.24 829.279 134.28 827.419 134.28H824.559ZM838.338 141.22C839.958 141.22 840.938 140.38 841.638 139.36V141H844.078V130.44H841.638V136.4C841.638 138.06 840.678 139 839.258 139C837.818 139 836.998 138.1 836.998 136.44V130.44H834.578V137.16C834.578 139.64 835.938 141.22 838.338 141.22ZM846.58 141H849.02V136.98C849.02 134.18 850.48 132.8 852.62 132.8H852.76V130.24C850.9 130.16 849.68 131.22 849.02 132.82V130.44H846.58V141ZM858.85 141.24C860.79 141.24 862.15 140.46 863.17 139.26L861.75 138C860.89 138.82 860.09 139.26 858.89 139.26C857.31 139.26 856.11 138.32 855.85 136.58H863.61C863.63 136.34 863.65 136.12 863.65 135.9C863.65 132.86 861.95 130.22 858.59 130.22C855.57 130.22 853.43 132.68 853.43 135.72V135.76C853.43 139.02 855.81 141.24 858.85 141.24ZM855.83 134.98C856.05 133.32 857.07 132.2 858.57 132.2C860.17 132.2 861.09 133.44 861.25 134.98H855.83ZM871.357 141H873.817V135.3H880.877V133.06H873.817V129.24H881.777V127H871.357V141ZM886.234 141.22C887.854 141.22 888.954 140.54 889.674 139.68V141H892.034V134.74C892.034 133.36 891.674 132.26 890.894 131.48C890.134 130.7 888.974 130.3 887.394 130.3C885.714 130.3 884.574 130.66 883.394 131.16L884.054 133.06C885.014 132.66 885.874 132.4 887.074 132.4C888.774 132.4 889.694 133.18 889.694 134.7V134.96C888.874 134.7 888.054 134.52 886.854 134.52C884.274 134.52 882.474 135.62 882.474 137.92V137.96C882.474 140.1 884.254 141.22 886.234 141.22ZM886.914 139.46C885.734 139.46 884.854 138.88 884.854 137.86V137.82C884.854 136.7 885.754 136.06 887.334 136.06C888.294 136.06 889.114 136.24 889.734 136.48V137.2C889.734 138.56 888.514 139.46 886.914 139.46ZM894.412 141H896.852V136.98C896.852 134.18 898.312 132.8 900.452 132.8H900.592V130.24C898.732 130.16 897.512 131.22 896.852 132.82V130.44H894.412V141ZM902.174 141H904.614V135.04C904.614 133.42 905.514 132.42 906.874 132.42C908.234 132.42 909.014 133.32 909.014 134.98V141H911.434V135.04C911.434 133.34 912.354 132.42 913.694 132.42C915.054 132.42 915.834 133.32 915.834 135V141H918.254V134.26C918.254 131.68 916.874 130.22 914.554 130.22C912.954 130.22 911.854 130.96 910.994 132.08C910.434 130.96 909.354 130.22 907.834 130.22C906.214 130.22 905.294 131.1 904.614 132.04V130.44H902.174V141ZM920.718 128.82H923.318V126.52H920.718V128.82ZM920.798 141H923.238V130.44H920.798V141ZM925.881 141H928.321V135.04C928.321 133.38 929.281 132.42 930.701 132.42C932.141 132.42 932.961 133.34 932.961 135V141H935.381V134.26C935.381 131.8 934.021 130.22 931.621 130.22C929.961 130.22 929.021 131.08 928.321 132.06V130.44H925.881V141ZM942.503 144.24C944.423 144.24 945.883 143.78 946.843 142.82C947.743 141.92 948.183 140.6 948.183 138.84V130.44H945.763V132.02C944.943 131.04 943.843 130.22 942.063 130.22C939.583 130.22 937.263 132.06 937.263 135.18V135.22C937.263 138.32 939.563 140.16 942.063 140.16C943.803 140.16 944.903 139.36 945.783 138.24V139.04C945.783 141.18 944.603 142.26 942.443 142.26C941.003 142.26 939.823 141.86 938.683 141.16L937.783 142.98C939.163 143.82 940.743 144.24 942.503 144.24ZM942.703 138.1C941.043 138.1 939.703 136.92 939.703 135.2V135.16C939.703 133.42 941.023 132.28 942.703 132.28C944.383 132.28 945.803 133.46 945.803 135.16V135.2C945.803 136.92 944.383 138.1 942.703 138.1Z" fill="white"></path><path d="M822.099 141H824.559V136.5H827.339C830.439 136.5 832.939 134.84 832.939 131.72V131.68C832.939 128.86 830.899 127 827.619 127H822.099V141ZM824.559 134.28V129.24H827.419C829.259 129.24 830.439 130.08 830.439 131.74V131.78C830.439 133.24 829.279 134.28 827.419 134.28H824.559ZM838.338 141.22C839.958 141.22 840.938 140.38 841.638 139.36V141H844.078V130.44H841.638V136.4C841.638 138.06 840.678 139 839.258 139C837.818 139 836.998 138.1 836.998 136.44V130.44H834.578V137.16C834.578 139.64 835.938 141.22 838.338 141.22ZM846.58 141H849.02V136.98C849.02 134.18 850.48 132.8 852.62 132.8H852.76V130.24C850.9 130.16 849.68 131.22 849.02 132.82V130.44H846.58V141ZM858.85 141.24C860.79 141.24 862.15 140.46 863.17 139.26L861.75 138C860.89 138.82 860.09 139.26 858.89 139.26C857.31 139.26 856.11 138.32 855.85 136.58H863.61C863.63 136.34 863.65 136.12 863.65 135.9C863.65 132.86 861.95 130.22 858.59 130.22C855.57 130.22 853.43 132.68 853.43 135.72V135.76C853.43 139.02 855.81 141.24 858.85 141.24ZM855.83 134.98C856.05 133.32 857.07 132.2 858.57 132.2C860.17 132.2 861.09 133.44 861.25 134.98H855.83ZM871.357 141H873.817V135.3H880.877V133.06H873.817V129.24H881.777V127H871.357V141ZM886.234 141.22C887.854 141.22 888.954 140.54 889.674 139.68V141H892.034V134.74C892.034 133.36 891.674 132.26 890.894 131.48C890.134 130.7 888.974 130.3 887.394 130.3C885.714 130.3 884.574 130.66 883.394 131.16L884.054 133.06C885.014 132.66 885.874 132.4 887.074 132.4C888.774 132.4 889.694 133.18 889.694 134.7V134.96C888.874 134.7 888.054 134.52 886.854 134.52C884.274 134.52 882.474 135.62 882.474 137.92V137.96C882.474 140.1 884.254 141.22 886.234 141.22ZM886.914 139.46C885.734 139.46 884.854 138.88 884.854 137.86V137.82C884.854 136.7 885.754 136.06 887.334 136.06C888.294 136.06 889.114 136.24 889.734 136.48V137.2C889.734 138.56 888.514 139.46 886.914 139.46ZM894.412 141H896.852V136.98C896.852 134.18 898.312 132.8 900.452 132.8H900.592V130.24C898.732 130.16 897.512 131.22 896.852 132.82V130.44H894.412V141ZM902.174 141H904.614V135.04C904.614 133.42 905.514 132.42 906.874 132.42C908.234 132.42 909.014 133.32 909.014 134.98V141H911.434V135.04C911.434 133.34 912.354 132.42 913.694 132.42C915.054 132.42 915.834 133.32 915.834 135V141H918.254V134.26C918.254 131.68 916.874 130.22 914.554 130.22C912.954 130.22 911.854 130.96 910.994 132.08C910.434 130.96 909.354 130.22 907.834 130.22C906.214 130.22 905.294 131.1 904.614 132.04V130.44H902.174V141ZM920.718 128.82H923.318V126.52H920.718V128.82ZM920.798 141H923.238V130.44H920.798V141ZM925.881 141H928.321V135.04C928.321 133.38 929.281 132.42 930.701 132.42C932.141 132.42 932.961 133.34 932.961 135V141H935.381V134.26C935.381 131.8 934.021 130.22 931.621 130.22C929.961 130.22 929.021 131.08 928.321 132.06V130.44H925.881V141ZM942.503 144.24C944.423 144.24 945.883 143.78 946.843 142.82C947.743 141.92 948.183 140.6 948.183 138.84V130.44H945.763V132.02C944.943 131.04 943.843 130.22 942.063 130.22C939.583 130.22 937.263 132.06 937.263 135.18V135.22C937.263 138.32 939.563 140.16 942.063 140.16C943.803 140.16 944.903 139.36 945.783 138.24V139.04C945.783 141.18 944.603 142.26 942.443 142.26C941.003 142.26 939.823 141.86 938.683 141.16L937.783 142.98C939.163 143.82 940.743 144.24 942.503 144.24ZM942.703 138.1C941.043 138.1 939.703 136.92 939.703 135.2V135.16C939.703 133.42 941.023 132.28 942.703 132.28C944.383 132.28 945.803 133.46 945.803 135.16V135.2C945.803 136.92 944.383 138.1 942.703 138.1Z" fill="url(#paint1_linear_2561_14147)"></path><path d="M322 86H469V88H322V86Z" fill="black"></path><path d="M714 75L712.333 76.6667L721.333 85.8333H579.5V88.1667H721.333L712.333 97.3333L714 99L726 87L714 75Z" fill="black"></path><path d="M505.713 93H514.097V91.24H507.681V88.248H513.297V86.472H507.681V83.56H514.017V81.8H505.713V93ZM515.692 93H517.644V88.232C517.644 86.936 518.364 86.136 519.452 86.136C520.54 86.136 521.164 86.856 521.164 88.184V93H523.1V88.232C523.1 86.872 523.836 86.136 524.908 86.136C525.996 86.136 526.62 86.856 526.62 88.2V93H528.556V87.608C528.556 85.544 527.452 84.376 525.596 84.376C524.316 84.376 523.436 84.968 522.748 85.864C522.3 84.968 521.436 84.376 520.22 84.376C518.924 84.376 518.188 85.08 517.644 85.832V84.552H515.692V93ZM532.828 93.176C534.124 93.176 535.004 92.632 535.58 91.944V93H537.468V87.992C537.468 86.888 537.18 86.008 536.556 85.384C535.948 84.76 535.02 84.44 533.756 84.44C532.412 84.44 531.5 84.728 530.556 85.128L531.084 86.648C531.852 86.328 532.54 86.12 533.5 86.12C534.86 86.12 535.596 86.744 535.596 87.96V88.168C534.94 87.96 534.284 87.816 533.324 87.816C531.26 87.816 529.82 88.696 529.82 90.536V90.568C529.82 92.28 531.244 93.176 532.828 93.176ZM533.372 91.768C532.428 91.768 531.724 91.304 531.724 90.488V90.456C531.724 89.56 532.444 89.048 533.708 89.048C534.476 89.048 535.132 89.192 535.628 89.384V89.96C535.628 91.048 534.652 91.768 533.372 91.768ZM539.318 83.256H541.398V81.416H539.318V83.256ZM539.382 93H541.334V84.552H539.382V93ZM543.46 93H545.412V81.32H543.46V93Z" fill="black"></path><path d="M726 158H636V160H726V158Z" fill="black"></path><path d="M334 147L335.667 148.667L326.667 157.833H413V160.167H326.667L335.667 169.333L334 171L322 159L334 147Z" fill="black"></path><path d="M439.742 165.192C441.822 165.192 443.15 164.44 444.286 163.208L443.022 161.928C442.062 162.824 441.166 163.368 439.806 163.368C437.662 163.368 436.11 161.592 436.11 159.4V159.368C436.11 157.176 437.678 155.432 439.79 155.432C441.086 155.432 442.03 155.976 442.942 156.808L444.206 155.352C443.134 154.328 441.886 153.608 439.806 153.608C436.43 153.608 434.046 156.216 434.046 159.4V159.432C434.046 162.648 436.478 165.192 439.742 165.192ZM445.742 165H447.694V153.32H445.742V165ZM449.756 155.256H451.836V153.416H449.756V155.256ZM449.82 165H451.772V156.552H449.82V165ZM457.674 165.192C459.226 165.192 460.314 164.568 461.13 163.608L459.994 162.6C459.306 163.256 458.666 163.608 457.706 163.608C456.442 163.608 455.482 162.856 455.274 161.464H461.482C461.498 161.272 461.514 161.096 461.514 160.92C461.514 158.488 460.154 156.376 457.466 156.376C455.05 156.376 453.338 158.344 453.338 160.776V160.808C453.338 163.416 455.242 165.192 457.674 165.192ZM455.258 160.184C455.434 158.856 456.25 157.96 457.45 157.96C458.73 157.96 459.466 158.952 459.594 160.184H455.258ZM462.942 165H464.894V160.232C464.894 158.904 465.662 158.136 466.798 158.136C467.95 158.136 468.606 158.872 468.606 160.2V165H470.542V159.608C470.542 157.64 469.454 156.376 467.534 156.376C466.206 156.376 465.454 157.064 464.894 157.848V156.552H462.942V165ZM475.212 165.144C475.964 165.144 476.46 164.984 476.956 164.712V163.128C476.572 163.32 476.172 163.416 475.756 163.416C475.1 163.416 474.716 163.112 474.716 162.36V158.216H476.988V156.552H474.716V154.232H472.78V156.552H471.708V158.216H472.78V162.664C472.78 164.52 473.788 165.144 475.212 165.144ZM483.091 165H485.059V153.8H483.091V165ZM487.557 165H491.733C495.253 165 497.685 162.552 497.685 159.4V159.368C497.685 156.216 495.253 153.8 491.733 153.8H487.557V165ZM491.733 155.592C494.085 155.592 495.621 157.208 495.621 159.4V159.432C495.621 161.624 494.085 163.208 491.733 163.208H489.525V155.592H491.733ZM511.63 165.224L513.102 164.168L511.326 162.376C511.902 161.608 512.398 160.728 512.846 159.832L511.358 159.048C510.99 159.832 510.59 160.568 510.158 161.208L508.238 159.256C509.726 158.696 510.702 157.816 510.702 156.344V156.312C510.702 154.808 509.502 153.608 507.726 153.608C505.742 153.608 504.51 154.92 504.51 156.44V156.472C504.51 157.288 504.798 157.976 505.438 158.808C503.902 159.448 503.038 160.472 503.038 161.928V161.96C503.038 163.896 504.622 165.16 506.718 165.16C508.062 165.16 509.182 164.6 510.142 163.704L511.63 165.224ZM507.198 158.2C506.574 157.512 506.35 157.096 506.35 156.536V156.504C506.35 155.736 506.878 155.16 507.694 155.16C508.446 155.16 508.958 155.672 508.958 156.424V156.456C508.958 157.272 508.35 157.768 507.198 158.2ZM506.91 163.528C505.822 163.528 505.038 162.856 505.038 161.896V161.864C505.038 161.144 505.486 160.456 506.526 160.008L509.022 162.552C508.382 163.176 507.678 163.528 506.91 163.528ZM524.007 165.192C526.087 165.192 527.415 164.44 528.551 163.208L527.287 161.928C526.327 162.824 525.431 163.368 524.071 163.368C521.927 163.368 520.375 161.592 520.375 159.4V159.368C520.375 157.176 521.943 155.432 524.055 155.432C525.351 155.432 526.295 155.976 527.207 156.808L528.471 155.352C527.399 154.328 526.151 153.608 524.071 153.608C520.695 153.608 518.311 156.216 518.311 159.4V159.432C518.311 162.648 520.743 165.192 524.007 165.192ZM530.007 165H531.959V153.32H530.007V165ZM534.021 155.256H536.101V153.416H534.021V155.256ZM534.085 165H536.037V156.552H534.085V165ZM541.94 165.192C543.492 165.192 544.58 164.568 545.396 163.608L544.26 162.6C543.572 163.256 542.932 163.608 541.972 163.608C540.708 163.608 539.748 162.856 539.54 161.464H545.748C545.764 161.272 545.78 161.096 545.78 160.92C545.78 158.488 544.42 156.376 541.732 156.376C539.316 156.376 537.604 158.344 537.604 160.776V160.808C537.604 163.416 539.508 165.192 541.94 165.192ZM539.524 160.184C539.7 158.856 540.516 157.96 541.716 157.96C542.996 157.96 543.732 158.952 543.86 160.184H539.524ZM547.208 165H549.16V160.232C549.16 158.904 549.928 158.136 551.064 158.136C552.216 158.136 552.872 158.872 552.872 160.2V165H554.808V159.608C554.808 157.64 553.72 156.376 551.8 156.376C550.472 156.376 549.72 157.064 549.16 157.848V156.552H547.208V165ZM559.478 165.144C560.23 165.144 560.726 164.984 561.222 164.712V163.128C560.838 163.32 560.438 163.416 560.022 163.416C559.366 163.416 558.982 163.112 558.982 162.36V158.216H561.254V156.552H558.982V154.232H557.046V156.552H555.974V158.216H557.046V162.664C557.046 164.52 558.054 165.144 559.478 165.144ZM571.165 165.16C573.517 165.16 575.165 163.928 575.165 161.816V161.784C575.165 159.912 573.933 159.112 571.581 158.504C569.421 157.992 568.909 157.608 568.909 156.744V156.712C568.909 155.96 569.581 155.384 570.733 155.384C571.757 155.384 572.749 155.784 573.773 156.536L574.829 155.048C573.677 154.136 572.413 153.64 570.765 153.64C568.541 153.64 566.941 154.968 566.941 156.888V156.92C566.941 158.968 568.285 159.704 570.669 160.264C572.749 160.728 573.197 161.192 573.197 161.976V162.008C573.197 162.84 572.429 163.416 571.213 163.416C569.821 163.416 568.765 162.904 567.677 161.96L566.493 163.368C567.837 164.584 569.437 165.16 571.165 165.16ZM580.627 165.192C582.179 165.192 583.267 164.568 584.083 163.608L582.947 162.6C582.259 163.256 581.619 163.608 580.659 163.608C579.395 163.608 578.435 162.856 578.227 161.464H584.435C584.451 161.272 584.467 161.096 584.467 160.92C584.467 158.488 583.107 156.376 580.419 156.376C578.003 156.376 576.291 158.344 576.291 160.776V160.808C576.291 163.416 578.195 165.192 580.627 165.192ZM578.211 160.184C578.387 158.856 579.203 157.96 580.403 157.96C581.683 157.96 582.419 158.952 582.547 160.184H578.211ZM589.815 165.192C591.463 165.192 592.439 164.552 593.271 163.608L592.103 162.456C591.479 163.08 590.823 163.496 589.911 163.496C588.423 163.496 587.383 162.296 587.383 160.792V160.76C587.383 159.288 588.423 158.072 589.831 158.072C590.791 158.072 591.415 158.504 592.007 159.128L593.223 157.832C592.407 156.968 591.431 156.376 589.847 156.376C587.303 156.376 585.447 158.392 585.447 160.792V160.824C585.447 163.224 587.303 165.192 589.815 165.192ZM594.536 165H596.488V161.784C596.488 159.544 597.656 158.44 599.368 158.44H599.48V156.392C597.992 156.328 597.016 157.176 596.488 158.456V156.552H594.536V165ZM604.252 165.192C605.804 165.192 606.892 164.568 607.708 163.608L606.572 162.6C605.884 163.256 605.244 163.608 604.284 163.608C603.02 163.608 602.06 162.856 601.852 161.464H608.06C608.076 161.272 608.092 161.096 608.092 160.92C608.092 158.488 606.732 156.376 604.044 156.376C601.628 156.376 599.916 158.344 599.916 160.776V160.808C599.916 163.416 601.82 165.192 604.252 165.192ZM601.836 160.184C602.012 158.856 602.828 157.96 604.028 157.96C605.308 157.96 606.044 158.952 606.172 160.184H601.836ZM612.368 165.144C613.12 165.144 613.616 164.984 614.112 164.712V163.128C613.728 163.32 613.328 163.416 612.912 163.416C612.256 163.416 611.872 163.112 611.872 162.36V158.216H614.144V156.552H611.872V154.232H609.936V156.552H608.864V158.216H609.936V162.664C609.936 164.52 610.944 165.144 612.368 165.144Z" fill="black"></path><rect x="32.5" y="67.5" width="261" height="137" rx="6.5" fill="#4995CD" stroke="#4995CD" stroke-width="3"></rect><path d="M54.6497 119H57.1097V107.28H61.5697V105H50.1897V107.28H54.6497V119ZM63.1641 119H65.6041V113.04C65.6041 111.38 66.5641 110.42 67.9841 110.42C69.4241 110.42 70.2441 111.34 70.2441 113V119H72.6641V112.26C72.6641 109.8 71.3041 108.22 68.9041 108.22C67.2441 108.22 66.3041 109.08 65.6041 110.06V104.4H63.1641V119ZM75.1264 106.82H77.7264V104.52H75.1264V106.82ZM75.2064 119H77.6464V108.44H75.2064V119ZM80.2891 119H82.7291V114.98C82.7291 112.18 84.1891 110.8 86.3291 110.8H86.4691V108.24C84.6091 108.16 83.3891 109.22 82.7291 110.82V108.44H80.2891V119ZM92.1573 119.22C93.8573 119.22 94.9773 118.34 95.7573 117.24V119H98.1773V104.4H95.7573V110.08C95.0173 109.08 93.8773 108.22 92.1573 108.22C89.6373 108.22 87.2573 110.18 87.2573 113.7V113.74C87.2573 117.26 89.6773 119.22 92.1573 119.22ZM92.7373 117.12C91.0773 117.12 89.6973 115.78 89.6973 113.74V113.7C89.6973 111.62 91.0773 110.32 92.7373 110.32C94.3573 110.32 95.7973 111.66 95.7973 113.7V113.74C95.7973 115.76 94.3573 117.12 92.7373 117.12ZM100.315 114.06H106.235V111.68H100.315V114.06ZM108.659 119H111.119V114.5H113.899C116.999 114.5 119.499 112.84 119.499 109.72V109.68C119.499 106.86 117.459 105 114.179 105H108.659V119ZM111.119 112.28V107.24H113.979C115.819 107.24 116.999 108.08 116.999 109.74V109.78C116.999 111.24 115.839 112.28 113.979 112.28H111.119ZM124.083 119.22C125.703 119.22 126.803 118.54 127.523 117.68V119H129.883V112.74C129.883 111.36 129.523 110.26 128.743 109.48C127.983 108.7 126.823 108.3 125.243 108.3C123.563 108.3 122.423 108.66 121.243 109.16L121.903 111.06C122.863 110.66 123.723 110.4 124.923 110.4C126.623 110.4 127.543 111.18 127.543 112.7V112.96C126.723 112.7 125.903 112.52 124.703 112.52C122.123 112.52 120.323 113.62 120.323 115.92V115.96C120.323 118.1 122.103 119.22 124.083 119.22ZM124.763 117.46C123.583 117.46 122.703 116.88 122.703 115.86V115.82C122.703 114.7 123.603 114.06 125.183 114.06C126.143 114.06 126.963 114.24 127.583 114.48V115.2C127.583 116.56 126.363 117.46 124.763 117.46ZM132.262 119H134.702V114.98C134.702 112.18 136.162 110.8 138.302 110.8H138.442V108.24C136.582 108.16 135.362 109.22 134.702 110.82V108.44H132.262V119ZM143.583 119.18C144.523 119.18 145.143 118.98 145.763 118.64V116.66C145.283 116.9 144.783 117.02 144.263 117.02C143.443 117.02 142.963 116.64 142.963 115.7V110.52H145.803V108.44H142.963V105.54H140.543V108.44H139.203V110.52H140.543V116.08C140.543 118.4 141.803 119.18 143.583 119.18ZM152.326 116.28L149.366 108.44H146.766L151.166 119.02C150.766 119.92 150.366 120.22 149.666 120.22C149.166 120.22 148.706 120.06 148.246 119.82L147.426 121.6C148.166 122.02 148.906 122.26 149.926 122.26C151.626 122.26 152.546 121.46 153.406 119.28L157.606 108.44H155.086L152.326 116.28ZM164.956 119H171.436C174.556 119 176.616 117.66 176.616 115.16V115.12C176.616 113.2 175.496 112.3 173.836 111.72C174.876 111.18 175.836 110.3 175.836 108.6V108.56C175.836 107.64 175.516 106.86 174.896 106.24C174.076 105.42 172.856 105 171.236 105H164.956V119ZM173.376 109C173.376 110.28 172.336 110.9 170.736 110.9H167.376V107.18H170.916C172.516 107.18 173.376 107.84 173.376 108.96V109ZM174.156 114.9C174.156 116.18 173.136 116.82 171.456 116.82H167.376V112.98H171.276C173.216 112.98 174.156 113.66 174.156 114.86V114.9ZM182.25 119.22C183.87 119.22 184.85 118.38 185.55 117.36V119H187.99V108.44H185.55V114.4C185.55 116.06 184.59 117 183.17 117C181.73 117 180.91 116.1 180.91 114.44V108.44H178.49V115.16C178.49 117.64 179.85 119.22 182.25 119.22ZM194.132 119.2C196.332 119.2 198.052 118.1 198.052 115.88V115.84C198.052 113.94 196.292 113.24 194.772 112.76C193.532 112.38 192.392 112.02 192.392 111.26V111.22C192.392 110.64 192.932 110.18 193.872 110.18C194.752 110.18 195.832 110.56 196.852 111.18L197.812 109.46C196.692 108.72 195.272 108.26 193.932 108.26C191.832 108.26 190.172 109.48 190.172 111.5V111.54C190.172 113.54 191.932 114.2 193.472 114.62C194.712 115 195.832 115.3 195.832 116.1V116.14C195.832 116.84 195.232 117.28 194.192 117.28C193.092 117.28 191.912 116.84 190.732 115.98L189.652 117.62C190.992 118.68 192.612 119.2 194.132 119.2ZM200.072 106.82H202.672V104.52H200.072V106.82ZM200.152 119H202.592V108.44H200.152V119ZM205.234 119H207.674V113.04C207.674 111.38 208.634 110.42 210.054 110.42C211.494 110.42 212.314 111.34 212.314 113V119H214.734V112.26C214.734 109.8 213.374 108.22 210.974 108.22C209.314 108.22 208.374 109.08 207.674 110.06V108.44H205.234V119ZM221.997 119.24C223.937 119.24 225.297 118.46 226.317 117.26L224.897 116C224.037 116.82 223.237 117.26 222.037 117.26C220.457 117.26 219.257 116.32 218.997 114.58H226.757C226.777 114.34 226.797 114.12 226.797 113.9C226.797 110.86 225.097 108.22 221.737 108.22C218.717 108.22 216.577 110.68 216.577 113.72V113.76C216.577 117.02 218.957 119.24 221.997 119.24ZM218.977 112.98C219.197 111.32 220.217 110.2 221.717 110.2C223.317 110.2 224.237 111.44 224.397 112.98H218.977ZM232.347 119.2C234.547 119.2 236.267 118.1 236.267 115.88V115.84C236.267 113.94 234.507 113.24 232.987 112.76C231.747 112.38 230.607 112.02 230.607 111.26V111.22C230.607 110.64 231.147 110.18 232.087 110.18C232.967 110.18 234.047 110.56 235.067 111.18L236.027 109.46C234.907 108.72 233.487 108.26 232.147 108.26C230.047 108.26 228.387 109.48 228.387 111.5V111.54C228.387 113.54 230.147 114.2 231.687 114.62C232.927 115 234.047 115.3 234.047 116.1V116.14C234.047 116.84 233.447 117.28 232.407 117.28C231.307 117.28 230.127 116.84 228.947 115.98L227.867 117.62C229.207 118.68 230.827 119.2 232.347 119.2ZM241.671 119.2C243.871 119.2 245.591 118.1 245.591 115.88V115.84C245.591 113.94 243.831 113.24 242.311 112.76C241.071 112.38 239.931 112.02 239.931 111.26V111.22C239.931 110.64 240.471 110.18 241.411 110.18C242.291 110.18 243.371 110.56 244.391 111.18L245.351 109.46C244.231 108.72 242.811 108.26 241.471 108.26C239.371 108.26 237.711 109.48 237.711 111.5V111.54C237.711 113.54 239.471 114.2 241.011 114.62C242.251 115 243.371 115.3 243.371 116.1V116.14C243.371 116.84 242.771 117.28 241.731 117.28C240.631 117.28 239.451 116.84 238.271 115.98L237.191 117.62C238.531 118.68 240.151 119.2 241.671 119.2ZM252.411 119.24C254.351 119.24 255.711 118.46 256.731 117.26L255.311 116C254.451 116.82 253.651 117.26 252.451 117.26C250.871 117.26 249.671 116.32 249.411 114.58H257.171C257.191 114.34 257.211 114.12 257.211 113.9C257.211 110.86 255.511 108.22 252.151 108.22C249.131 108.22 246.991 110.68 246.991 113.72V113.76C246.991 117.02 249.371 119.24 252.411 119.24ZM249.391 112.98C249.611 111.32 250.631 110.2 252.131 110.2C253.731 110.2 254.651 111.44 254.811 112.98H249.391ZM262.761 119.2C264.961 119.2 266.681 118.1 266.681 115.88V115.84C266.681 113.94 264.921 113.24 263.401 112.76C262.161 112.38 261.021 112.02 261.021 111.26V111.22C261.021 110.64 261.561 110.18 262.501 110.18C263.381 110.18 264.461 110.56 265.481 111.18L266.441 109.46C265.321 108.72 263.901 108.26 262.561 108.26C260.461 108.26 258.801 109.48 258.801 111.5V111.54C258.801 113.54 260.561 114.2 262.101 114.62C263.341 115 264.461 115.3 264.461 116.1V116.14C264.461 116.84 263.861 117.28 262.821 117.28C261.721 117.28 260.541 116.84 259.361 115.98L258.281 117.62C259.621 118.68 261.241 119.2 262.761 119.2ZM266.641 121.56H268.741L277.781 103.04H275.681L266.641 121.56ZM53.2884 147H55.7484V135.28H60.2084V133H48.8284V135.28H53.2884V147ZM61.8027 147H64.2427V141.04C64.2427 139.38 65.2027 138.42 66.6227 138.42C68.0627 138.42 68.8827 139.34 68.8827 141V147H71.3027V140.26C71.3027 137.8 69.9427 136.22 67.5427 136.22C65.8827 136.22 64.9427 137.08 64.2427 138.06V132.4H61.8027V147ZM73.7651 134.82H76.3651V132.52H73.7651V134.82ZM73.8451 147H76.2851V136.44H73.8451V147ZM78.9277 147H81.3677V142.98C81.3677 140.18 82.8277 138.8 84.9677 138.8H85.1077V136.24C83.2477 136.16 82.0277 137.22 81.3677 138.82V136.44H78.9277V147ZM90.796 147.22C92.496 147.22 93.616 146.34 94.396 145.24V147H96.816V132.4H94.396V138.08C93.656 137.08 92.516 136.22 90.796 136.22C88.276 136.22 85.896 138.18 85.896 141.7V141.74C85.896 145.26 88.316 147.22 90.796 147.22ZM91.376 145.12C89.716 145.12 88.336 143.78 88.336 141.74V141.7C88.336 139.62 89.716 138.32 91.376 138.32C92.996 138.32 94.436 139.66 94.436 141.7V141.74C94.436 143.76 92.996 145.12 91.376 145.12ZM98.954 142.06H104.874V139.68H98.954V142.06ZM107.298 147H109.758V142.5H112.538C115.638 142.5 118.138 140.84 118.138 137.72V137.68C118.138 134.86 116.098 133 112.818 133H107.298V147ZM109.758 140.28V135.24H112.618C114.458 135.24 115.638 136.08 115.638 137.74V137.78C115.638 139.24 114.478 140.28 112.618 140.28H109.758ZM122.722 147.22C124.342 147.22 125.442 146.54 126.162 145.68V147H128.522V140.74C128.522 139.36 128.162 138.26 127.382 137.48C126.622 136.7 125.462 136.3 123.882 136.3C122.202 136.3 121.062 136.66 119.882 137.16L120.542 139.06C121.502 138.66 122.362 138.4 123.562 138.4C125.262 138.4 126.182 139.18 126.182 140.7V140.96C125.362 140.7 124.542 140.52 123.342 140.52C120.762 140.52 118.962 141.62 118.962 143.92V143.96C118.962 146.1 120.742 147.22 122.722 147.22ZM123.402 145.46C122.222 145.46 121.342 144.88 121.342 143.86V143.82C121.342 142.7 122.242 142.06 123.822 142.06C124.782 142.06 125.602 142.24 126.222 142.48V143.2C126.222 144.56 125.002 145.46 123.402 145.46ZM130.9 147H133.34V142.98C133.34 140.18 134.8 138.8 136.94 138.8H137.08V136.24C135.22 136.16 134 137.22 133.34 138.82V136.44H130.9V147ZM142.222 147.18C143.162 147.18 143.782 146.98 144.402 146.64V144.66C143.922 144.9 143.422 145.02 142.902 145.02C142.082 145.02 141.602 144.64 141.602 143.7V138.52H144.442V136.44H141.602V133.54H139.182V136.44H137.842V138.52H139.182V144.08C139.182 146.4 140.442 147.18 142.222 147.18ZM150.965 144.28L148.005 136.44H145.405L149.805 147.02C149.405 147.92 149.005 148.22 148.305 148.22C147.805 148.22 147.345 148.06 146.885 147.82L146.065 149.6C146.805 150.02 147.545 150.26 148.565 150.26C150.265 150.26 151.185 149.46 152.045 147.28L156.245 136.44H153.725L150.965 144.28ZM162.395 147H164.915L166.355 143.62H172.975L174.395 147H176.995L170.835 132.9H168.555L162.395 147ZM167.255 141.44L169.655 135.84L172.075 141.44H167.255ZM178.596 150.2H181.036V145.36C181.776 146.34 182.876 147.22 184.636 147.22C187.136 147.22 189.536 145.26 189.536 141.74V141.7C189.536 138.18 187.116 136.22 184.636 136.22C182.896 136.22 181.816 137.1 181.036 138.2V136.44H178.596V150.2ZM184.056 145.12C182.396 145.12 180.976 143.76 180.976 141.74V141.7C180.976 139.68 182.396 138.32 184.056 138.32C185.676 138.32 187.076 139.66 187.076 141.7V141.74C187.076 143.82 185.716 145.12 184.056 145.12ZM191.514 150.2H193.954V145.36C194.694 146.34 195.794 147.22 197.554 147.22C200.054 147.22 202.454 145.26 202.454 141.74V141.7C202.454 138.18 200.034 136.22 197.554 136.22C195.814 136.22 194.734 137.1 193.954 138.2V136.44H191.514V150.2ZM196.974 145.12C195.314 145.12 193.894 143.76 193.894 141.74V141.7C193.894 139.68 195.314 138.32 196.974 138.32C198.594 138.32 199.994 139.66 199.994 141.7V141.74C199.994 143.82 198.634 145.12 196.974 145.12ZM204.572 147H207.012V132.4H204.572V147ZM209.714 134.82H212.314V132.52H209.714V134.82ZM209.794 147H212.234V136.44H209.794V147ZM219.777 147.24C221.837 147.24 223.057 146.44 224.097 145.26L222.637 143.82C221.857 144.6 221.037 145.12 219.897 145.12C218.037 145.12 216.737 143.62 216.737 141.74V141.7C216.737 139.86 218.037 138.34 219.797 138.34C220.997 138.34 221.777 138.88 222.517 139.66L224.037 138.04C223.017 136.96 221.797 136.22 219.817 136.22C216.637 136.22 214.317 138.74 214.317 141.74V141.78C214.317 144.78 216.637 147.24 219.777 147.24ZM228.863 147.22C230.483 147.22 231.583 146.54 232.303 145.68V147H234.663V140.74C234.663 139.36 234.303 138.26 233.523 137.48C232.763 136.7 231.603 136.3 230.023 136.3C228.343 136.3 227.203 136.66 226.023 137.16L226.683 139.06C227.643 138.66 228.503 138.4 229.703 138.4C231.403 138.4 232.323 139.18 232.323 140.7V140.96C231.503 140.7 230.683 140.52 229.483 140.52C226.903 140.52 225.103 141.62 225.103 143.92V143.96C225.103 146.1 226.883 147.22 228.863 147.22ZM229.543 145.46C228.363 145.46 227.483 144.88 227.483 143.86V143.82C227.483 142.7 228.383 142.06 229.963 142.06C230.923 142.06 231.743 142.24 232.363 142.48V143.2C232.363 144.56 231.143 145.46 229.543 145.46ZM240.503 147.18C241.443 147.18 242.063 146.98 242.683 146.64V144.66C242.203 144.9 241.703 145.02 241.183 145.02C240.363 145.02 239.883 144.64 239.883 143.7V138.52H242.723V136.44H239.883V133.54H237.463V136.44H236.123V138.52H237.463V144.08C237.463 146.4 238.723 147.18 240.503 147.18ZM244.726 134.82H247.326V132.52H244.726V134.82ZM244.806 147H247.246V136.44H244.806V147ZM254.929 147.24C258.189 147.24 260.589 144.72 260.589 141.74V141.7C260.589 138.68 258.229 136.22 254.969 136.22C251.729 136.22 249.329 138.72 249.329 141.74V141.78C249.329 144.78 251.709 147.24 254.929 147.24ZM254.969 145.12C253.109 145.12 251.749 143.58 251.749 141.74V141.7C251.749 139.86 252.989 138.34 254.929 138.34C256.829 138.34 258.169 139.88 258.169 141.74V141.78C258.169 143.6 256.949 145.12 254.969 145.12ZM262.533 147H264.973V141.04C264.973 139.38 265.933 138.42 267.353 138.42C268.793 138.42 269.613 139.34 269.613 141V147H272.033V140.26C272.033 137.8 270.673 136.22 268.273 136.22C266.613 136.22 265.673 137.08 264.973 138.06V136.44H262.533V147ZM110.948 175H116.168C120.568 175 123.608 171.94 123.608 168V167.96C123.608 164.02 120.568 161 116.168 161H110.948V175ZM116.168 163.24C119.108 163.24 121.028 165.26 121.028 168V168.04C121.028 170.78 119.108 172.76 116.168 172.76H113.408V163.24H116.168ZM130.653 175.24C132.593 175.24 133.953 174.46 134.973 173.26L133.553 172C132.693 172.82 131.893 173.26 130.693 173.26C129.113 173.26 127.913 172.32 127.653 170.58H135.413C135.433 170.34 135.453 170.12 135.453 169.9C135.453 166.86 133.753 164.22 130.393 164.22C127.373 164.22 125.233 166.68 125.233 169.72V169.76C125.233 173.02 127.613 175.24 130.653 175.24ZM127.633 168.98C127.853 167.32 128.873 166.2 130.373 166.2C131.973 166.2 132.893 167.44 133.053 168.98H127.633ZM140.215 175.08H142.395L146.715 164.44H144.175L141.315 172.2L138.475 164.44H135.875L140.215 175.08ZM152.505 175.24C154.445 175.24 155.805 174.46 156.825 173.26L155.405 172C154.545 172.82 153.745 173.26 152.545 173.26C150.965 173.26 149.765 172.32 149.505 170.58H157.265C157.285 170.34 157.305 170.12 157.305 169.9C157.305 166.86 155.605 164.22 152.245 164.22C149.225 164.22 147.085 166.68 147.085 169.72V169.76C147.085 173.02 149.465 175.24 152.505 175.24ZM149.485 168.98C149.705 167.32 150.725 166.2 152.225 166.2C153.825 166.2 154.745 167.44 154.905 168.98H149.485ZM159.355 175H161.795V160.4H159.355V175ZM169.478 175.24C172.738 175.24 175.138 172.72 175.138 169.74V169.7C175.138 166.68 172.778 164.22 169.518 164.22C166.278 164.22 163.878 166.72 163.878 169.74V169.78C163.878 172.78 166.258 175.24 169.478 175.24ZM169.518 173.12C167.658 173.12 166.298 171.58 166.298 169.74V169.7C166.298 167.86 167.538 166.34 169.478 166.34C171.378 166.34 172.718 167.88 172.718 169.74V169.78C172.718 171.6 171.498 173.12 169.518 173.12ZM177.082 178.2H179.522V173.36C180.262 174.34 181.362 175.22 183.122 175.22C185.622 175.22 188.022 173.26 188.022 169.74V169.7C188.022 166.18 185.602 164.22 183.122 164.22C181.382 164.22 180.302 165.1 179.522 166.2V164.44H177.082V178.2ZM182.542 173.12C180.882 173.12 179.462 171.76 179.462 169.74V169.7C179.462 167.68 180.882 166.32 182.542 166.32C184.162 166.32 185.562 167.66 185.562 169.7V169.74C185.562 171.82 184.202 173.12 182.542 173.12ZM194.86 175.24C196.8 175.24 198.16 174.46 199.18 173.26L197.76 172C196.9 172.82 196.1 173.26 194.9 173.26C193.32 173.26 192.12 172.32 191.86 170.58H199.62C199.64 170.34 199.66 170.12 199.66 169.9C199.66 166.86 197.96 164.22 194.6 164.22C191.58 164.22 189.44 166.68 189.44 169.72V169.76C189.44 173.02 191.82 175.24 194.86 175.24ZM191.84 168.98C192.06 167.32 193.08 166.2 194.58 166.2C196.18 166.2 197.1 167.44 197.26 168.98H191.84ZM201.57 175H204.01V170.98C204.01 168.18 205.47 166.8 207.61 166.8H207.75V164.24C205.89 164.16 204.67 165.22 204.01 166.82V164.44H201.57V175ZM212.972 175.2C215.172 175.2 216.892 174.1 216.892 171.88V171.84C216.892 169.94 215.132 169.24 213.612 168.76C212.372 168.38 211.232 168.02 211.232 167.26V167.22C211.232 166.64 211.772 166.18 212.712 166.18C213.592 166.18 214.672 166.56 215.692 167.18L216.652 165.46C215.532 164.72 214.112 164.26 212.772 164.26C210.672 164.26 209.012 165.48 209.012 167.5V167.54C209.012 169.54 210.772 170.2 212.312 170.62C213.552 171 214.672 171.3 214.672 172.1V172.14C214.672 172.84 214.072 173.28 213.032 173.28C211.932 173.28 210.752 172.84 209.572 171.98L208.492 173.62C209.832 174.68 211.452 175.2 212.972 175.2Z" fill="white"></path><path d="M54.6497 119H57.1097V107.28H61.5697V105H50.1897V107.28H54.6497V119ZM63.1641 119H65.6041V113.04C65.6041 111.38 66.5641 110.42 67.9841 110.42C69.4241 110.42 70.2441 111.34 70.2441 113V119H72.6641V112.26C72.6641 109.8 71.3041 108.22 68.9041 108.22C67.2441 108.22 66.3041 109.08 65.6041 110.06V104.4H63.1641V119ZM75.1264 106.82H77.7264V104.52H75.1264V106.82ZM75.2064 119H77.6464V108.44H75.2064V119ZM80.2891 119H82.7291V114.98C82.7291 112.18 84.1891 110.8 86.3291 110.8H86.4691V108.24C84.6091 108.16 83.3891 109.22 82.7291 110.82V108.44H80.2891V119ZM92.1573 119.22C93.8573 119.22 94.9773 118.34 95.7573 117.24V119H98.1773V104.4H95.7573V110.08C95.0173 109.08 93.8773 108.22 92.1573 108.22C89.6373 108.22 87.2573 110.18 87.2573 113.7V113.74C87.2573 117.26 89.6773 119.22 92.1573 119.22ZM92.7373 117.12C91.0773 117.12 89.6973 115.78 89.6973 113.74V113.7C89.6973 111.62 91.0773 110.32 92.7373 110.32C94.3573 110.32 95.7973 111.66 95.7973 113.7V113.74C95.7973 115.76 94.3573 117.12 92.7373 117.12ZM100.315 114.06H106.235V111.68H100.315V114.06ZM108.659 119H111.119V114.5H113.899C116.999 114.5 119.499 112.84 119.499 109.72V109.68C119.499 106.86 117.459 105 114.179 105H108.659V119ZM111.119 112.28V107.24H113.979C115.819 107.24 116.999 108.08 116.999 109.74V109.78C116.999 111.24 115.839 112.28 113.979 112.28H111.119ZM124.083 119.22C125.703 119.22 126.803 118.54 127.523 117.68V119H129.883V112.74C129.883 111.36 129.523 110.26 128.743 109.48C127.983 108.7 126.823 108.3 125.243 108.3C123.563 108.3 122.423 108.66 121.243 109.16L121.903 111.06C122.863 110.66 123.723 110.4 124.923 110.4C126.623 110.4 127.543 111.18 127.543 112.7V112.96C126.723 112.7 125.903 112.52 124.703 112.52C122.123 112.52 120.323 113.62 120.323 115.92V115.96C120.323 118.1 122.103 119.22 124.083 119.22ZM124.763 117.46C123.583 117.46 122.703 116.88 122.703 115.86V115.82C122.703 114.7 123.603 114.06 125.183 114.06C126.143 114.06 126.963 114.24 127.583 114.48V115.2C127.583 116.56 126.363 117.46 124.763 117.46ZM132.262 119H134.702V114.98C134.702 112.18 136.162 110.8 138.302 110.8H138.442V108.24C136.582 108.16 135.362 109.22 134.702 110.82V108.44H132.262V119ZM143.583 119.18C144.523 119.18 145.143 118.98 145.763 118.64V116.66C145.283 116.9 144.783 117.02 144.263 117.02C143.443 117.02 142.963 116.64 142.963 115.7V110.52H145.803V108.44H142.963V105.54H140.543V108.44H139.203V110.52H140.543V116.08C140.543 118.4 141.803 119.18 143.583 119.18ZM152.326 116.28L149.366 108.44H146.766L151.166 119.02C150.766 119.92 150.366 120.22 149.666 120.22C149.166 120.22 148.706 120.06 148.246 119.82L147.426 121.6C148.166 122.02 148.906 122.26 149.926 122.26C151.626 122.26 152.546 121.46 153.406 119.28L157.606 108.44H155.086L152.326 116.28ZM164.956 119H171.436C174.556 119 176.616 117.66 176.616 115.16V115.12C176.616 113.2 175.496 112.3 173.836 111.72C174.876 111.18 175.836 110.3 175.836 108.6V108.56C175.836 107.64 175.516 106.86 174.896 106.24C174.076 105.42 172.856 105 171.236 105H164.956V119ZM173.376 109C173.376 110.28 172.336 110.9 170.736 110.9H167.376V107.18H170.916C172.516 107.18 173.376 107.84 173.376 108.96V109ZM174.156 114.9C174.156 116.18 173.136 116.82 171.456 116.82H167.376V112.98H171.276C173.216 112.98 174.156 113.66 174.156 114.86V114.9ZM182.25 119.22C183.87 119.22 184.85 118.38 185.55 117.36V119H187.99V108.44H185.55V114.4C185.55 116.06 184.59 117 183.17 117C181.73 117 180.91 116.1 180.91 114.44V108.44H178.49V115.16C178.49 117.64 179.85 119.22 182.25 119.22ZM194.132 119.2C196.332 119.2 198.052 118.1 198.052 115.88V115.84C198.052 113.94 196.292 113.24 194.772 112.76C193.532 112.38 192.392 112.02 192.392 111.26V111.22C192.392 110.64 192.932 110.18 193.872 110.18C194.752 110.18 195.832 110.56 196.852 111.18L197.812 109.46C196.692 108.72 195.272 108.26 193.932 108.26C191.832 108.26 190.172 109.48 190.172 111.5V111.54C190.172 113.54 191.932 114.2 193.472 114.62C194.712 115 195.832 115.3 195.832 116.1V116.14C195.832 116.84 195.232 117.28 194.192 117.28C193.092 117.28 191.912 116.84 190.732 115.98L189.652 117.62C190.992 118.68 192.612 119.2 194.132 119.2ZM200.072 106.82H202.672V104.52H200.072V106.82ZM200.152 119H202.592V108.44H200.152V119ZM205.234 119H207.674V113.04C207.674 111.38 208.634 110.42 210.054 110.42C211.494 110.42 212.314 111.34 212.314 113V119H214.734V112.26C214.734 109.8 213.374 108.22 210.974 108.22C209.314 108.22 208.374 109.08 207.674 110.06V108.44H205.234V119ZM221.997 119.24C223.937 119.24 225.297 118.46 226.317 117.26L224.897 116C224.037 116.82 223.237 117.26 222.037 117.26C220.457 117.26 219.257 116.32 218.997 114.58H226.757C226.777 114.34 226.797 114.12 226.797 113.9C226.797 110.86 225.097 108.22 221.737 108.22C218.717 108.22 216.577 110.68 216.577 113.72V113.76C216.577 117.02 218.957 119.24 221.997 119.24ZM218.977 112.98C219.197 111.32 220.217 110.2 221.717 110.2C223.317 110.2 224.237 111.44 224.397 112.98H218.977ZM232.347 119.2C234.547 119.2 236.267 118.1 236.267 115.88V115.84C236.267 113.94 234.507 113.24 232.987 112.76C231.747 112.38 230.607 112.02 230.607 111.26V111.22C230.607 110.64 231.147 110.18 232.087 110.18C232.967 110.18 234.047 110.56 235.067 111.18L236.027 109.46C234.907 108.72 233.487 108.26 232.147 108.26C230.047 108.26 228.387 109.48 228.387 111.5V111.54C228.387 113.54 230.147 114.2 231.687 114.62C232.927 115 234.047 115.3 234.047 116.1V116.14C234.047 116.84 233.447 117.28 232.407 117.28C231.307 117.28 230.127 116.84 228.947 115.98L227.867 117.62C229.207 118.68 230.827 119.2 232.347 119.2ZM241.671 119.2C243.871 119.2 245.591 118.1 245.591 115.88V115.84C245.591 113.94 243.831 113.24 242.311 112.76C241.071 112.38 239.931 112.02 239.931 111.26V111.22C239.931 110.64 240.471 110.18 241.411 110.18C242.291 110.18 243.371 110.56 244.391 111.18L245.351 109.46C244.231 108.72 242.811 108.26 241.471 108.26C239.371 108.26 237.711 109.48 237.711 111.5V111.54C237.711 113.54 239.471 114.2 241.011 114.62C242.251 115 243.371 115.3 243.371 116.1V116.14C243.371 116.84 242.771 117.28 241.731 117.28C240.631 117.28 239.451 116.84 238.271 115.98L237.191 117.62C238.531 118.68 240.151 119.2 241.671 119.2ZM252.411 119.24C254.351 119.24 255.711 118.46 256.731 117.26L255.311 116C254.451 116.82 253.651 117.26 252.451 117.26C250.871 117.26 249.671 116.32 249.411 114.58H257.171C257.191 114.34 257.211 114.12 257.211 113.9C257.211 110.86 255.511 108.22 252.151 108.22C249.131 108.22 246.991 110.68 246.991 113.72V113.76C246.991 117.02 249.371 119.24 252.411 119.24ZM249.391 112.98C249.611 111.32 250.631 110.2 252.131 110.2C253.731 110.2 254.651 111.44 254.811 112.98H249.391ZM262.761 119.2C264.961 119.2 266.681 118.1 266.681 115.88V115.84C266.681 113.94 264.921 113.24 263.401 112.76C262.161 112.38 261.021 112.02 261.021 111.26V111.22C261.021 110.64 261.561 110.18 262.501 110.18C263.381 110.18 264.461 110.56 265.481 111.18L266.441 109.46C265.321 108.72 263.901 108.26 262.561 108.26C260.461 108.26 258.801 109.48 258.801 111.5V111.54C258.801 113.54 260.561 114.2 262.101 114.62C263.341 115 264.461 115.3 264.461 116.1V116.14C264.461 116.84 263.861 117.28 262.821 117.28C261.721 117.28 260.541 116.84 259.361 115.98L258.281 117.62C259.621 118.68 261.241 119.2 262.761 119.2ZM266.641 121.56H268.741L277.781 103.04H275.681L266.641 121.56ZM53.2884 147H55.7484V135.28H60.2084V133H48.8284V135.28H53.2884V147ZM61.8027 147H64.2427V141.04C64.2427 139.38 65.2027 138.42 66.6227 138.42C68.0627 138.42 68.8827 139.34 68.8827 141V147H71.3027V140.26C71.3027 137.8 69.9427 136.22 67.5427 136.22C65.8827 136.22 64.9427 137.08 64.2427 138.06V132.4H61.8027V147ZM73.7651 134.82H76.3651V132.52H73.7651V134.82ZM73.8451 147H76.2851V136.44H73.8451V147ZM78.9277 147H81.3677V142.98C81.3677 140.18 82.8277 138.8 84.9677 138.8H85.1077V136.24C83.2477 136.16 82.0277 137.22 81.3677 138.82V136.44H78.9277V147ZM90.796 147.22C92.496 147.22 93.616 146.34 94.396 145.24V147H96.816V132.4H94.396V138.08C93.656 137.08 92.516 136.22 90.796 136.22C88.276 136.22 85.896 138.18 85.896 141.7V141.74C85.896 145.26 88.316 147.22 90.796 147.22ZM91.376 145.12C89.716 145.12 88.336 143.78 88.336 141.74V141.7C88.336 139.62 89.716 138.32 91.376 138.32C92.996 138.32 94.436 139.66 94.436 141.7V141.74C94.436 143.76 92.996 145.12 91.376 145.12ZM98.954 142.06H104.874V139.68H98.954V142.06ZM107.298 147H109.758V142.5H112.538C115.638 142.5 118.138 140.84 118.138 137.72V137.68C118.138 134.86 116.098 133 112.818 133H107.298V147ZM109.758 140.28V135.24H112.618C114.458 135.24 115.638 136.08 115.638 137.74V137.78C115.638 139.24 114.478 140.28 112.618 140.28H109.758ZM122.722 147.22C124.342 147.22 125.442 146.54 126.162 145.68V147H128.522V140.74C128.522 139.36 128.162 138.26 127.382 137.48C126.622 136.7 125.462 136.3 123.882 136.3C122.202 136.3 121.062 136.66 119.882 137.16L120.542 139.06C121.502 138.66 122.362 138.4 123.562 138.4C125.262 138.4 126.182 139.18 126.182 140.7V140.96C125.362 140.7 124.542 140.52 123.342 140.52C120.762 140.52 118.962 141.62 118.962 143.92V143.96C118.962 146.1 120.742 147.22 122.722 147.22ZM123.402 145.46C122.222 145.46 121.342 144.88 121.342 143.86V143.82C121.342 142.7 122.242 142.06 123.822 142.06C124.782 142.06 125.602 142.24 126.222 142.48V143.2C126.222 144.56 125.002 145.46 123.402 145.46ZM130.9 147H133.34V142.98C133.34 140.18 134.8 138.8 136.94 138.8H137.08V136.24C135.22 136.16 134 137.22 133.34 138.82V136.44H130.9V147ZM142.222 147.18C143.162 147.18 143.782 146.98 144.402 146.64V144.66C143.922 144.9 143.422 145.02 142.902 145.02C142.082 145.02 141.602 144.64 141.602 143.7V138.52H144.442V136.44H141.602V133.54H139.182V136.44H137.842V138.52H139.182V144.08C139.182 146.4 140.442 147.18 142.222 147.18ZM150.965 144.28L148.005 136.44H145.405L149.805 147.02C149.405 147.92 149.005 148.22 148.305 148.22C147.805 148.22 147.345 148.06 146.885 147.82L146.065 149.6C146.805 150.02 147.545 150.26 148.565 150.26C150.265 150.26 151.185 149.46 152.045 147.28L156.245 136.44H153.725L150.965 144.28ZM162.395 147H164.915L166.355 143.62H172.975L174.395 147H176.995L170.835 132.9H168.555L162.395 147ZM167.255 141.44L169.655 135.84L172.075 141.44H167.255ZM178.596 150.2H181.036V145.36C181.776 146.34 182.876 147.22 184.636 147.22C187.136 147.22 189.536 145.26 189.536 141.74V141.7C189.536 138.18 187.116 136.22 184.636 136.22C182.896 136.22 181.816 137.1 181.036 138.2V136.44H178.596V150.2ZM184.056 145.12C182.396 145.12 180.976 143.76 180.976 141.74V141.7C180.976 139.68 182.396 138.32 184.056 138.32C185.676 138.32 187.076 139.66 187.076 141.7V141.74C187.076 143.82 185.716 145.12 184.056 145.12ZM191.514 150.2H193.954V145.36C194.694 146.34 195.794 147.22 197.554 147.22C200.054 147.22 202.454 145.26 202.454 141.74V141.7C202.454 138.18 200.034 136.22 197.554 136.22C195.814 136.22 194.734 137.1 193.954 138.2V136.44H191.514V150.2ZM196.974 145.12C195.314 145.12 193.894 143.76 193.894 141.74V141.7C193.894 139.68 195.314 138.32 196.974 138.32C198.594 138.32 199.994 139.66 199.994 141.7V141.74C199.994 143.82 198.634 145.12 196.974 145.12ZM204.572 147H207.012V132.4H204.572V147ZM209.714 134.82H212.314V132.52H209.714V134.82ZM209.794 147H212.234V136.44H209.794V147ZM219.777 147.24C221.837 147.24 223.057 146.44 224.097 145.26L222.637 143.82C221.857 144.6 221.037 145.12 219.897 145.12C218.037 145.12 216.737 143.62 216.737 141.74V141.7C216.737 139.86 218.037 138.34 219.797 138.34C220.997 138.34 221.777 138.88 222.517 139.66L224.037 138.04C223.017 136.96 221.797 136.22 219.817 136.22C216.637 136.22 214.317 138.74 214.317 141.74V141.78C214.317 144.78 216.637 147.24 219.777 147.24ZM228.863 147.22C230.483 147.22 231.583 146.54 232.303 145.68V147H234.663V140.74C234.663 139.36 234.303 138.26 233.523 137.48C232.763 136.7 231.603 136.3 230.023 136.3C228.343 136.3 227.203 136.66 226.023 137.16L226.683 139.06C227.643 138.66 228.503 138.4 229.703 138.4C231.403 138.4 232.323 139.18 232.323 140.7V140.96C231.503 140.7 230.683 140.52 229.483 140.52C226.903 140.52 225.103 141.62 225.103 143.92V143.96C225.103 146.1 226.883 147.22 228.863 147.22ZM229.543 145.46C228.363 145.46 227.483 144.88 227.483 143.86V143.82C227.483 142.7 228.383 142.06 229.963 142.06C230.923 142.06 231.743 142.24 232.363 142.48V143.2C232.363 144.56 231.143 145.46 229.543 145.46ZM240.503 147.18C241.443 147.18 242.063 146.98 242.683 146.64V144.66C242.203 144.9 241.703 145.02 241.183 145.02C240.363 145.02 239.883 144.64 239.883 143.7V138.52H242.723V136.44H239.883V133.54H237.463V136.44H236.123V138.52H237.463V144.08C237.463 146.4 238.723 147.18 240.503 147.18ZM244.726 134.82H247.326V132.52H244.726V134.82ZM244.806 147H247.246V136.44H244.806V147ZM254.929 147.24C258.189 147.24 260.589 144.72 260.589 141.74V141.7C260.589 138.68 258.229 136.22 254.969 136.22C251.729 136.22 249.329 138.72 249.329 141.74V141.78C249.329 144.78 251.709 147.24 254.929 147.24ZM254.969 145.12C253.109 145.12 251.749 143.58 251.749 141.74V141.7C251.749 139.86 252.989 138.34 254.929 138.34C256.829 138.34 258.169 139.88 258.169 141.74V141.78C258.169 143.6 256.949 145.12 254.969 145.12ZM262.533 147H264.973V141.04C264.973 139.38 265.933 138.42 267.353 138.42C268.793 138.42 269.613 139.34 269.613 141V147H272.033V140.26C272.033 137.8 270.673 136.22 268.273 136.22C266.613 136.22 265.673 137.08 264.973 138.06V136.44H262.533V147ZM110.948 175H116.168C120.568 175 123.608 171.94 123.608 168V167.96C123.608 164.02 120.568 161 116.168 161H110.948V175ZM116.168 163.24C119.108 163.24 121.028 165.26 121.028 168V168.04C121.028 170.78 119.108 172.76 116.168 172.76H113.408V163.24H116.168ZM130.653 175.24C132.593 175.24 133.953 174.46 134.973 173.26L133.553 172C132.693 172.82 131.893 173.26 130.693 173.26C129.113 173.26 127.913 172.32 127.653 170.58H135.413C135.433 170.34 135.453 170.12 135.453 169.9C135.453 166.86 133.753 164.22 130.393 164.22C127.373 164.22 125.233 166.68 125.233 169.72V169.76C125.233 173.02 127.613 175.24 130.653 175.24ZM127.633 168.98C127.853 167.32 128.873 166.2 130.373 166.2C131.973 166.2 132.893 167.44 133.053 168.98H127.633ZM140.215 175.08H142.395L146.715 164.44H144.175L141.315 172.2L138.475 164.44H135.875L140.215 175.08ZM152.505 175.24C154.445 175.24 155.805 174.46 156.825 173.26L155.405 172C154.545 172.82 153.745 173.26 152.545 173.26C150.965 173.26 149.765 172.32 149.505 170.58H157.265C157.285 170.34 157.305 170.12 157.305 169.9C157.305 166.86 155.605 164.22 152.245 164.22C149.225 164.22 147.085 166.68 147.085 169.72V169.76C147.085 173.02 149.465 175.24 152.505 175.24ZM149.485 168.98C149.705 167.32 150.725 166.2 152.225 166.2C153.825 166.2 154.745 167.44 154.905 168.98H149.485ZM159.355 175H161.795V160.4H159.355V175ZM169.478 175.24C172.738 175.24 175.138 172.72 175.138 169.74V169.7C175.138 166.68 172.778 164.22 169.518 164.22C166.278 164.22 163.878 166.72 163.878 169.74V169.78C163.878 172.78 166.258 175.24 169.478 175.24ZM169.518 173.12C167.658 173.12 166.298 171.58 166.298 169.74V169.7C166.298 167.86 167.538 166.34 169.478 166.34C171.378 166.34 172.718 167.88 172.718 169.74V169.78C172.718 171.6 171.498 173.12 169.518 173.12ZM177.082 178.2H179.522V173.36C180.262 174.34 181.362 175.22 183.122 175.22C185.622 175.22 188.022 173.26 188.022 169.74V169.7C188.022 166.18 185.602 164.22 183.122 164.22C181.382 164.22 180.302 165.1 179.522 166.2V164.44H177.082V178.2ZM182.542 173.12C180.882 173.12 179.462 171.76 179.462 169.74V169.7C179.462 167.68 180.882 166.32 182.542 166.32C184.162 166.32 185.562 167.66 185.562 169.7V169.74C185.562 171.82 184.202 173.12 182.542 173.12ZM194.86 175.24C196.8 175.24 198.16 174.46 199.18 173.26L197.76 172C196.9 172.82 196.1 173.26 194.9 173.26C193.32 173.26 192.12 172.32 191.86 170.58H199.62C199.64 170.34 199.66 170.12 199.66 169.9C199.66 166.86 197.96 164.22 194.6 164.22C191.58 164.22 189.44 166.68 189.44 169.72V169.76C189.44 173.02 191.82 175.24 194.86 175.24ZM191.84 168.98C192.06 167.32 193.08 166.2 194.58 166.2C196.18 166.2 197.1 167.44 197.26 168.98H191.84ZM201.57 175H204.01V170.98C204.01 168.18 205.47 166.8 207.61 166.8H207.75V164.24C205.89 164.16 204.67 165.22 204.01 166.82V164.44H201.57V175ZM212.972 175.2C215.172 175.2 216.892 174.1 216.892 171.88V171.84C216.892 169.94 215.132 169.24 213.612 168.76C212.372 168.38 211.232 168.02 211.232 167.26V167.22C211.232 166.64 211.772 166.18 212.712 166.18C213.592 166.18 214.672 166.56 215.692 167.18L216.652 165.46C215.532 164.72 214.112 164.26 212.772 164.26C210.672 164.26 209.012 165.48 209.012 167.5V167.54C209.012 169.54 210.772 170.2 212.312 170.62C213.552 171 214.672 171.3 214.672 172.1V172.14C214.672 172.84 214.072 173.28 213.032 173.28C211.932 173.28 210.752 172.84 209.572 171.98L208.492 173.62C209.832 174.68 211.452 175.2 212.972 175.2Z" fill="url(#paint2_linear_2561_14147)"></path><defs><linearGradient id="paint0_linear_2561_14147" x1="524.5" y1="0" x2="524.5" y2="273" gradientUnits="userSpaceOnUse"><stop stop-color="white"></stop><stop offset="1" stop-color="white" stop-opacity="0"></stop></linearGradient><linearGradient id="paint1_linear_2561_14147" x1="885" y1="122" x2="885" y2="156.286" gradientUnits="userSpaceOnUse"><stop stop-color="white"></stop><stop offset="1" stop-color="white" stop-opacity="0"></stop></linearGradient><linearGradient id="paint2_linear_2561_14147" x1="163.5" y1="100" x2="163.5" y2="180" gradientUnits="userSpaceOnUse"><stop stop-color="white"></stop><stop offset="1" stop-color="white" stop-opacity="0"></stop></linearGradient></defs></svg> 