<?xml version="1.0" encoding="UTF-8"?> <svg xmlns="http://www.w3.org/2000/svg" width="1049" height="598" viewBox="0 0 1049 598" fill="none"><rect width="1049" height="598" fill="white"></rect><rect width="1049" height="598" fill="url(#paint0_linear_2556_14111)"></rect><path d="M328 50.8333H406.833V53.1666H328V50.8333Z" fill="black"></path><path d="M328 269.833H406.833V272.167H328V269.833Z" fill="black"></path><path d="M328 488.833H406.833V491.167H328V488.833Z" fill="black"></path><path d="M721.834 106.833H643.001V109.167H721.834V106.833Z" fill="black"></path><path d="M721.834 325.833H643.001V328.167H721.834V325.833Z" fill="black"></path><path d="M721.834 544.833H643.001V547.167H721.834V544.833Z" fill="black"></path><path d="M714.5 40L712.833 41.6667L721.833 50.8333H643V53.1667H721.833L712.833 62.3333L714.5 64L726.5 52L714.5 40Z" fill="black"></path><path d="M714.5 259L712.833 260.667L721.833 269.833H643V272.167H721.833L712.833 281.333L714.5 283L726.5 271L714.5 259Z" fill="black"></path><path d="M714.5 478L712.833 479.667L721.833 488.833H643V491.167H721.833L712.833 500.333L714.5 502L726.5 490L714.5 478Z" fill="black"></path><path d="M335 96L336.667 97.6667L327.667 106.833H406.5V109.167H327.667L336.667 118.333L335 120L323 108L335 96Z" fill="black"></path><path d="M335 315L336.667 316.667L327.667 325.833H406.5V328.167H327.667L336.667 337.333L335 339L323 327L335 315Z" fill="black"></path><path d="M335 534L336.667 535.667L327.667 544.833H406.5V547.167H327.667L336.667 556.333L335 558L323 546L335 534Z" fill="black"></path><rect x="755.5" y="470.5" width="261" height="95" rx="6.5" fill="#CDA113" stroke="#CDA113" stroke-width="3"></rect><path d="M820.057 513H822.577L824.017 509.62H830.637L832.057 513H834.657L828.497 498.9H826.217L820.057 513ZM824.917 507.44L827.317 501.84L829.737 507.44H824.917ZM839.723 513.22C841.343 513.22 842.323 512.38 843.023 511.36V513H845.463V502.44H843.023V508.4C843.023 510.06 842.063 511 840.643 511C839.203 511 838.383 510.1 838.383 508.44V502.44H835.963V509.16C835.963 511.64 837.323 513.22 839.723 513.22ZM851.525 513.18C852.465 513.18 853.085 512.98 853.705 512.64V510.66C853.225 510.9 852.725 511.02 852.205 511.02C851.385 511.02 850.905 510.64 850.905 509.7V504.52H853.745V502.44H850.905V499.54H848.485V502.44H847.145V504.52H848.485V510.08C848.485 512.4 849.745 513.18 851.525 513.18ZM855.688 513H858.128V507.04C858.128 505.38 859.088 504.42 860.508 504.42C861.948 504.42 862.768 505.34 862.768 507V513H865.188V506.26C865.188 503.8 863.828 502.22 861.428 502.22C859.768 502.22 858.828 503.08 858.128 504.06V498.4H855.688V513ZM872.63 513.24C875.89 513.24 878.29 510.72 878.29 507.74V507.7C878.29 504.68 875.93 502.22 872.67 502.22C869.43 502.22 867.03 504.72 867.03 507.74V507.78C867.03 510.78 869.41 513.24 872.63 513.24ZM872.67 511.12C870.81 511.12 869.45 509.58 869.45 507.74V507.7C869.45 505.86 870.69 504.34 872.63 504.34C874.53 504.34 875.87 505.88 875.87 507.74V507.78C875.87 509.6 874.65 511.12 872.67 511.12ZM880.234 513H882.674V508.98C882.674 506.18 884.134 504.8 886.274 504.8H886.414V502.24C884.554 502.16 883.334 503.22 882.674 504.82V502.44H880.234V513ZM888.056 500.82H890.656V498.52H888.056V500.82ZM888.136 513H890.576V502.44H888.136V513ZM892.759 513H901.939V511.02H895.839L901.939 504.1V502.44H892.979V504.42H898.859L892.759 511.34V513ZM906.97 513.22C908.59 513.22 909.69 512.54 910.41 511.68V513H912.77V506.74C912.77 505.36 912.41 504.26 911.63 503.48C910.87 502.7 909.71 502.3 908.13 502.3C906.45 502.3 905.31 502.66 904.13 503.16L904.79 505.06C905.75 504.66 906.61 504.4 907.81 504.4C909.51 504.4 910.43 505.18 910.43 506.7V506.96C909.61 506.7 908.79 506.52 907.59 506.52C905.01 506.52 903.21 507.62 903.21 509.92V509.96C903.21 512.1 904.99 513.22 906.97 513.22ZM907.65 511.46C906.47 511.46 905.59 510.88 905.59 509.86V509.82C905.59 508.7 906.49 508.06 908.07 508.06C909.03 508.06 909.85 508.24 910.47 508.48V509.2C910.47 510.56 909.25 511.46 907.65 511.46ZM918.611 513.18C919.551 513.18 920.171 512.98 920.791 512.64V510.66C920.311 510.9 919.811 511.02 919.291 511.02C918.471 511.02 917.991 510.64 917.991 509.7V504.52H920.831V502.44H917.991V499.54H915.571V502.44H914.231V504.52H915.571V510.08C915.571 512.4 916.831 513.18 918.611 513.18ZM922.833 500.82H925.433V498.52H922.833V500.82ZM922.913 513H925.353V502.44H922.913V513ZM933.036 513.24C936.296 513.24 938.696 510.72 938.696 507.74V507.7C938.696 504.68 936.336 502.22 933.076 502.22C929.836 502.22 927.436 504.72 927.436 507.74V507.78C927.436 510.78 929.816 513.24 933.036 513.24ZM933.076 511.12C931.216 511.12 929.856 509.58 929.856 507.74V507.7C929.856 505.86 931.096 504.34 933.036 504.34C934.936 504.34 936.276 505.88 936.276 507.74V507.78C936.276 509.6 935.056 511.12 933.076 511.12ZM940.641 513H943.081V507.04C943.081 505.38 944.041 504.42 945.461 504.42C946.901 504.42 947.721 505.34 947.721 507V513H950.141V506.26C950.141 503.8 948.781 502.22 946.381 502.22C944.721 502.22 943.781 503.08 943.081 504.06V502.44H940.641V513ZM861.077 537.2C864.017 537.2 866.077 535.66 866.077 533.02V532.98C866.077 530.64 864.537 529.64 861.597 528.88C858.897 528.24 858.257 527.76 858.257 526.68V526.64C858.257 525.7 859.097 524.98 860.537 524.98C861.817 524.98 863.057 525.48 864.337 526.42L865.657 524.56C864.217 523.42 862.637 522.8 860.577 522.8C857.797 522.8 855.797 524.46 855.797 526.86V526.9C855.797 529.46 857.477 530.38 860.457 531.08C863.057 531.66 863.617 532.24 863.617 533.22V533.26C863.617 534.3 862.657 535.02 861.137 535.02C859.397 535.02 858.077 534.38 856.717 533.2L855.237 534.96C856.917 536.48 858.917 537.2 861.077 537.2ZM873.03 537.24C874.97 537.24 876.33 536.46 877.35 535.26L875.93 534C875.07 534.82 874.27 535.26 873.07 535.26C871.49 535.26 870.29 534.32 870.03 532.58H877.79C877.81 532.34 877.83 532.12 877.83 531.9C877.83 528.86 876.13 526.22 872.77 526.22C869.75 526.22 867.61 528.68 867.61 531.72V531.76C867.61 535.02 869.99 537.24 873.03 537.24ZM870.01 530.98C870.23 529.32 871.25 528.2 872.75 528.2C874.35 528.2 875.27 529.44 875.43 530.98H870.01ZM879.74 537H882.18V532.98C882.18 530.18 883.64 528.8 885.78 528.8H885.92V526.24C884.06 526.16 882.84 527.22 882.18 528.82V526.44H879.74V537ZM890.862 537.08H893.042L897.362 526.44H894.822L891.962 534.2L889.122 526.44H886.522L890.862 537.08ZM903.151 537.24C905.091 537.24 906.451 536.46 907.471 535.26L906.051 534C905.191 534.82 904.391 535.26 903.191 535.26C901.611 535.26 900.411 534.32 900.151 532.58H907.911C907.931 532.34 907.951 532.12 907.951 531.9C907.951 528.86 906.251 526.22 902.891 526.22C899.871 526.22 897.731 528.68 897.731 531.72V531.76C897.731 535.02 900.111 537.24 903.151 537.24ZM900.131 530.98C900.351 529.32 901.371 528.2 902.871 528.2C904.471 528.2 905.391 529.44 905.551 530.98H900.131ZM909.861 537H912.301V532.98C912.301 530.18 913.761 528.8 915.901 528.8H916.041V526.24C914.181 526.16 912.961 527.22 912.301 528.82V526.44H909.861V537Z" fill="white"></path><path d="M820.057 513H822.577L824.017 509.62H830.637L832.057 513H834.657L828.497 498.9H826.217L820.057 513ZM824.917 507.44L827.317 501.84L829.737 507.44H824.917ZM839.723 513.22C841.343 513.22 842.323 512.38 843.023 511.36V513H845.463V502.44H843.023V508.4C843.023 510.06 842.063 511 840.643 511C839.203 511 838.383 510.1 838.383 508.44V502.44H835.963V509.16C835.963 511.64 837.323 513.22 839.723 513.22ZM851.525 513.18C852.465 513.18 853.085 512.98 853.705 512.64V510.66C853.225 510.9 852.725 511.02 852.205 511.02C851.385 511.02 850.905 510.64 850.905 509.7V504.52H853.745V502.44H850.905V499.54H848.485V502.44H847.145V504.52H848.485V510.08C848.485 512.4 849.745 513.18 851.525 513.18ZM855.688 513H858.128V507.04C858.128 505.38 859.088 504.42 860.508 504.42C861.948 504.42 862.768 505.34 862.768 507V513H865.188V506.26C865.188 503.8 863.828 502.22 861.428 502.22C859.768 502.22 858.828 503.08 858.128 504.06V498.4H855.688V513ZM872.63 513.24C875.89 513.24 878.29 510.72 878.29 507.74V507.7C878.29 504.68 875.93 502.22 872.67 502.22C869.43 502.22 867.03 504.72 867.03 507.74V507.78C867.03 510.78 869.41 513.24 872.63 513.24ZM872.67 511.12C870.81 511.12 869.45 509.58 869.45 507.74V507.7C869.45 505.86 870.69 504.34 872.63 504.34C874.53 504.34 875.87 505.88 875.87 507.74V507.78C875.87 509.6 874.65 511.12 872.67 511.12ZM880.234 513H882.674V508.98C882.674 506.18 884.134 504.8 886.274 504.8H886.414V502.24C884.554 502.16 883.334 503.22 882.674 504.82V502.44H880.234V513ZM888.056 500.82H890.656V498.52H888.056V500.82ZM888.136 513H890.576V502.44H888.136V513ZM892.759 513H901.939V511.02H895.839L901.939 504.1V502.44H892.979V504.42H898.859L892.759 511.34V513ZM906.97 513.22C908.59 513.22 909.69 512.54 910.41 511.68V513H912.77V506.74C912.77 505.36 912.41 504.26 911.63 503.48C910.87 502.7 909.71 502.3 908.13 502.3C906.45 502.3 905.31 502.66 904.13 503.16L904.79 505.06C905.75 504.66 906.61 504.4 907.81 504.4C909.51 504.4 910.43 505.18 910.43 506.7V506.96C909.61 506.7 908.79 506.52 907.59 506.52C905.01 506.52 903.21 507.62 903.21 509.92V509.96C903.21 512.1 904.99 513.22 906.97 513.22ZM907.65 511.46C906.47 511.46 905.59 510.88 905.59 509.86V509.82C905.59 508.7 906.49 508.06 908.07 508.06C909.03 508.06 909.85 508.24 910.47 508.48V509.2C910.47 510.56 909.25 511.46 907.65 511.46ZM918.611 513.18C919.551 513.18 920.171 512.98 920.791 512.64V510.66C920.311 510.9 919.811 511.02 919.291 511.02C918.471 511.02 917.991 510.64 917.991 509.7V504.52H920.831V502.44H917.991V499.54H915.571V502.44H914.231V504.52H915.571V510.08C915.571 512.4 916.831 513.18 918.611 513.18ZM922.833 500.82H925.433V498.52H922.833V500.82ZM922.913 513H925.353V502.44H922.913V513ZM933.036 513.24C936.296 513.24 938.696 510.72 938.696 507.74V507.7C938.696 504.68 936.336 502.22 933.076 502.22C929.836 502.22 927.436 504.72 927.436 507.74V507.78C927.436 510.78 929.816 513.24 933.036 513.24ZM933.076 511.12C931.216 511.12 929.856 509.58 929.856 507.74V507.7C929.856 505.86 931.096 504.34 933.036 504.34C934.936 504.34 936.276 505.88 936.276 507.74V507.78C936.276 509.6 935.056 511.12 933.076 511.12ZM940.641 513H943.081V507.04C943.081 505.38 944.041 504.42 945.461 504.42C946.901 504.42 947.721 505.34 947.721 507V513H950.141V506.26C950.141 503.8 948.781 502.22 946.381 502.22C944.721 502.22 943.781 503.08 943.081 504.06V502.44H940.641V513ZM861.077 537.2C864.017 537.2 866.077 535.66 866.077 533.02V532.98C866.077 530.64 864.537 529.64 861.597 528.88C858.897 528.24 858.257 527.76 858.257 526.68V526.64C858.257 525.7 859.097 524.98 860.537 524.98C861.817 524.98 863.057 525.48 864.337 526.42L865.657 524.56C864.217 523.42 862.637 522.8 860.577 522.8C857.797 522.8 855.797 524.46 855.797 526.86V526.9C855.797 529.46 857.477 530.38 860.457 531.08C863.057 531.66 863.617 532.24 863.617 533.22V533.26C863.617 534.3 862.657 535.02 861.137 535.02C859.397 535.02 858.077 534.38 856.717 533.2L855.237 534.96C856.917 536.48 858.917 537.2 861.077 537.2ZM873.03 537.24C874.97 537.24 876.33 536.46 877.35 535.26L875.93 534C875.07 534.82 874.27 535.26 873.07 535.26C871.49 535.26 870.29 534.32 870.03 532.58H877.79C877.81 532.34 877.83 532.12 877.83 531.9C877.83 528.86 876.13 526.22 872.77 526.22C869.75 526.22 867.61 528.68 867.61 531.72V531.76C867.61 535.02 869.99 537.24 873.03 537.24ZM870.01 530.98C870.23 529.32 871.25 528.2 872.75 528.2C874.35 528.2 875.27 529.44 875.43 530.98H870.01ZM879.74 537H882.18V532.98C882.18 530.18 883.64 528.8 885.78 528.8H885.92V526.24C884.06 526.16 882.84 527.22 882.18 528.82V526.44H879.74V537ZM890.862 537.08H893.042L897.362 526.44H894.822L891.962 534.2L889.122 526.44H886.522L890.862 537.08ZM903.151 537.24C905.091 537.24 906.451 536.46 907.471 535.26L906.051 534C905.191 534.82 904.391 535.26 903.191 535.26C901.611 535.26 900.411 534.32 900.151 532.58H907.911C907.931 532.34 907.951 532.12 907.951 531.9C907.951 528.86 906.251 526.22 902.891 526.22C899.871 526.22 897.731 528.68 897.731 531.72V531.76C897.731 535.02 900.111 537.24 903.151 537.24ZM900.131 530.98C900.351 529.32 901.371 528.2 902.871 528.2C904.471 528.2 905.391 529.44 905.551 530.98H900.131ZM909.861 537H912.301V532.98C912.301 530.18 913.761 528.8 915.901 528.8H916.041V526.24C914.181 526.16 912.961 527.22 912.301 528.82V526.44H909.861V537Z" fill="url(#paint1_linear_2556_14111)"></path><rect x="755.5" y="251.5" width="261" height="95" rx="6.5" fill="#475715" stroke="#475715" stroke-width="3"></rect><path d="M843.046 294H845.506V289.12H848.586L852.026 294H854.946L851.166 288.7C853.106 288.14 854.486 286.76 854.486 284.46V284.42C854.486 283.2 854.066 282.18 853.326 281.4C852.426 280.52 851.046 280 849.286 280H843.046V294ZM845.506 286.94V282.24H849.086C850.926 282.24 851.986 283.04 851.986 284.56V284.6C851.986 286.04 850.866 286.94 849.106 286.94H845.506ZM861.364 294.24C863.304 294.24 864.664 293.46 865.684 292.26L864.264 291C863.404 291.82 862.604 292.26 861.404 292.26C859.824 292.26 858.624 291.32 858.364 289.58H866.124C866.144 289.34 866.164 289.12 866.164 288.9C866.164 285.86 864.464 283.22 861.104 283.22C858.084 283.22 855.944 285.68 855.944 288.72V288.76C855.944 292.02 858.324 294.24 861.364 294.24ZM858.344 287.98C858.564 286.32 859.584 285.2 861.084 285.2C862.684 285.2 863.604 286.44 863.764 287.98H858.344ZM871.714 294.2C873.914 294.2 875.634 293.1 875.634 290.88V290.84C875.634 288.94 873.874 288.24 872.354 287.76C871.114 287.38 869.974 287.02 869.974 286.26V286.22C869.974 285.64 870.514 285.18 871.454 285.18C872.334 285.18 873.414 285.56 874.434 286.18L875.394 284.46C874.274 283.72 872.854 283.26 871.514 283.26C869.414 283.26 867.754 284.48 867.754 286.5V286.54C867.754 288.54 869.514 289.2 871.054 289.62C872.294 290 873.414 290.3 873.414 291.1V291.14C873.414 291.84 872.814 292.28 871.774 292.28C870.674 292.28 869.494 291.84 868.314 290.98L867.234 292.62C868.574 293.68 870.194 294.2 871.714 294.2ZM882.634 294.24C885.894 294.24 888.294 291.72 888.294 288.74V288.7C888.294 285.68 885.934 283.22 882.674 283.22C879.434 283.22 877.034 285.72 877.034 288.74V288.78C877.034 291.78 879.414 294.24 882.634 294.24ZM882.674 292.12C880.814 292.12 879.454 290.58 879.454 288.74V288.7C879.454 286.86 880.694 285.34 882.634 285.34C884.534 285.34 885.874 286.88 885.874 288.74V288.78C885.874 290.6 884.654 292.12 882.674 292.12ZM893.898 294.22C895.518 294.22 896.498 293.38 897.198 292.36V294H899.638V283.44H897.198V289.4C897.198 291.06 896.238 292 894.818 292C893.378 292 892.558 291.1 892.558 289.44V283.44H890.138V290.16C890.138 292.64 891.498 294.22 893.898 294.22ZM902.141 294H904.581V289.98C904.581 287.18 906.041 285.8 908.181 285.8H908.321V283.24C906.461 283.16 905.241 284.22 904.581 285.82V283.44H902.141V294ZM914.451 294.24C916.511 294.24 917.731 293.44 918.771 292.26L917.311 290.82C916.531 291.6 915.711 292.12 914.571 292.12C912.711 292.12 911.411 290.62 911.411 288.74V288.7C911.411 286.86 912.711 285.34 914.471 285.34C915.671 285.34 916.451 285.88 917.191 286.66L918.711 285.04C917.691 283.96 916.471 283.22 914.491 283.22C911.311 283.22 908.991 285.74 908.991 288.74V288.78C908.991 291.78 911.311 294.24 914.451 294.24ZM925.044 294.24C926.984 294.24 928.344 293.46 929.364 292.26L927.944 291C927.084 291.82 926.284 292.26 925.084 292.26C923.504 292.26 922.304 291.32 922.044 289.58H929.804C929.824 289.34 929.844 289.12 929.844 288.9C929.844 285.86 928.144 283.22 924.784 283.22C921.764 283.22 919.624 285.68 919.624 288.72V288.76C919.624 292.02 922.004 294.24 925.044 294.24ZM922.024 287.98C922.244 286.32 923.264 285.2 924.764 285.2C926.364 285.2 927.284 286.44 927.444 287.98H922.024ZM861.577 318.2C864.517 318.2 866.577 316.66 866.577 314.02V313.98C866.577 311.64 865.037 310.64 862.097 309.88C859.397 309.24 858.757 308.76 858.757 307.68V307.64C858.757 306.7 859.597 305.98 861.037 305.98C862.317 305.98 863.557 306.48 864.837 307.42L866.157 305.56C864.717 304.42 863.137 303.8 861.077 303.8C858.297 303.8 856.297 305.46 856.297 307.86V307.9C856.297 310.46 857.977 311.38 860.957 312.08C863.557 312.66 864.117 313.24 864.117 314.22V314.26C864.117 315.3 863.157 316.02 861.637 316.02C859.897 316.02 858.577 315.38 857.217 314.2L855.737 315.96C857.417 317.48 859.417 318.2 861.577 318.2ZM873.53 318.24C875.47 318.24 876.83 317.46 877.85 316.26L876.43 315C875.57 315.82 874.77 316.26 873.57 316.26C871.99 316.26 870.79 315.32 870.53 313.58H878.29C878.31 313.34 878.33 313.12 878.33 312.9C878.33 309.86 876.63 307.22 873.27 307.22C870.25 307.22 868.11 309.68 868.11 312.72V312.76C868.11 316.02 870.49 318.24 873.53 318.24ZM870.51 311.98C870.73 310.32 871.75 309.2 873.25 309.2C874.85 309.2 875.77 310.44 875.93 311.98H870.51ZM880.24 318H882.68V313.98C882.68 311.18 884.14 309.8 886.28 309.8H886.42V307.24C884.56 307.16 883.34 308.22 882.68 309.82V307.44H880.24V318ZM891.362 318.08H893.542L897.862 307.44H895.322L892.462 315.2L889.622 307.44H887.022L891.362 318.08ZM903.651 318.24C905.591 318.24 906.951 317.46 907.971 316.26L906.551 315C905.691 315.82 904.891 316.26 903.691 316.26C902.111 316.26 900.911 315.32 900.651 313.58H908.411C908.431 313.34 908.451 313.12 908.451 312.9C908.451 309.86 906.751 307.22 903.391 307.22C900.371 307.22 898.231 309.68 898.231 312.72V312.76C898.231 316.02 900.611 318.24 903.651 318.24ZM900.631 311.98C900.851 310.32 901.871 309.2 903.371 309.2C904.971 309.2 905.891 310.44 906.051 311.98H900.631ZM910.361 318H912.801V313.98C912.801 311.18 914.261 309.8 916.401 309.8H916.541V307.24C914.681 307.16 913.461 308.22 912.801 309.82V307.44H910.361V318Z" fill="white"></path><path d="M843.046 294H845.506V289.12H848.586L852.026 294H854.946L851.166 288.7C853.106 288.14 854.486 286.76 854.486 284.46V284.42C854.486 283.2 854.066 282.18 853.326 281.4C852.426 280.52 851.046 280 849.286 280H843.046V294ZM845.506 286.94V282.24H849.086C850.926 282.24 851.986 283.04 851.986 284.56V284.6C851.986 286.04 850.866 286.94 849.106 286.94H845.506ZM861.364 294.24C863.304 294.24 864.664 293.46 865.684 292.26L864.264 291C863.404 291.82 862.604 292.26 861.404 292.26C859.824 292.26 858.624 291.32 858.364 289.58H866.124C866.144 289.34 866.164 289.12 866.164 288.9C866.164 285.86 864.464 283.22 861.104 283.22C858.084 283.22 855.944 285.68 855.944 288.72V288.76C855.944 292.02 858.324 294.24 861.364 294.24ZM858.344 287.98C858.564 286.32 859.584 285.2 861.084 285.2C862.684 285.2 863.604 286.44 863.764 287.98H858.344ZM871.714 294.2C873.914 294.2 875.634 293.1 875.634 290.88V290.84C875.634 288.94 873.874 288.24 872.354 287.76C871.114 287.38 869.974 287.02 869.974 286.26V286.22C869.974 285.64 870.514 285.18 871.454 285.18C872.334 285.18 873.414 285.56 874.434 286.18L875.394 284.46C874.274 283.72 872.854 283.26 871.514 283.26C869.414 283.26 867.754 284.48 867.754 286.5V286.54C867.754 288.54 869.514 289.2 871.054 289.62C872.294 290 873.414 290.3 873.414 291.1V291.14C873.414 291.84 872.814 292.28 871.774 292.28C870.674 292.28 869.494 291.84 868.314 290.98L867.234 292.62C868.574 293.68 870.194 294.2 871.714 294.2ZM882.634 294.24C885.894 294.24 888.294 291.72 888.294 288.74V288.7C888.294 285.68 885.934 283.22 882.674 283.22C879.434 283.22 877.034 285.72 877.034 288.74V288.78C877.034 291.78 879.414 294.24 882.634 294.24ZM882.674 292.12C880.814 292.12 879.454 290.58 879.454 288.74V288.7C879.454 286.86 880.694 285.34 882.634 285.34C884.534 285.34 885.874 286.88 885.874 288.74V288.78C885.874 290.6 884.654 292.12 882.674 292.12ZM893.898 294.22C895.518 294.22 896.498 293.38 897.198 292.36V294H899.638V283.44H897.198V289.4C897.198 291.06 896.238 292 894.818 292C893.378 292 892.558 291.1 892.558 289.44V283.44H890.138V290.16C890.138 292.64 891.498 294.22 893.898 294.22ZM902.141 294H904.581V289.98C904.581 287.18 906.041 285.8 908.181 285.8H908.321V283.24C906.461 283.16 905.241 284.22 904.581 285.82V283.44H902.141V294ZM914.451 294.24C916.511 294.24 917.731 293.44 918.771 292.26L917.311 290.82C916.531 291.6 915.711 292.12 914.571 292.12C912.711 292.12 911.411 290.62 911.411 288.74V288.7C911.411 286.86 912.711 285.34 914.471 285.34C915.671 285.34 916.451 285.88 917.191 286.66L918.711 285.04C917.691 283.96 916.471 283.22 914.491 283.22C911.311 283.22 908.991 285.74 908.991 288.74V288.78C908.991 291.78 911.311 294.24 914.451 294.24ZM925.044 294.24C926.984 294.24 928.344 293.46 929.364 292.26L927.944 291C927.084 291.82 926.284 292.26 925.084 292.26C923.504 292.26 922.304 291.32 922.044 289.58H929.804C929.824 289.34 929.844 289.12 929.844 288.9C929.844 285.86 928.144 283.22 924.784 283.22C921.764 283.22 919.624 285.68 919.624 288.72V288.76C919.624 292.02 922.004 294.24 925.044 294.24ZM922.024 287.98C922.244 286.32 923.264 285.2 924.764 285.2C926.364 285.2 927.284 286.44 927.444 287.98H922.024ZM861.577 318.2C864.517 318.2 866.577 316.66 866.577 314.02V313.98C866.577 311.64 865.037 310.64 862.097 309.88C859.397 309.24 858.757 308.76 858.757 307.68V307.64C858.757 306.7 859.597 305.98 861.037 305.98C862.317 305.98 863.557 306.48 864.837 307.42L866.157 305.56C864.717 304.42 863.137 303.8 861.077 303.8C858.297 303.8 856.297 305.46 856.297 307.86V307.9C856.297 310.46 857.977 311.38 860.957 312.08C863.557 312.66 864.117 313.24 864.117 314.22V314.26C864.117 315.3 863.157 316.02 861.637 316.02C859.897 316.02 858.577 315.38 857.217 314.2L855.737 315.96C857.417 317.48 859.417 318.2 861.577 318.2ZM873.53 318.24C875.47 318.24 876.83 317.46 877.85 316.26L876.43 315C875.57 315.82 874.77 316.26 873.57 316.26C871.99 316.26 870.79 315.32 870.53 313.58H878.29C878.31 313.34 878.33 313.12 878.33 312.9C878.33 309.86 876.63 307.22 873.27 307.22C870.25 307.22 868.11 309.68 868.11 312.72V312.76C868.11 316.02 870.49 318.24 873.53 318.24ZM870.51 311.98C870.73 310.32 871.75 309.2 873.25 309.2C874.85 309.2 875.77 310.44 875.93 311.98H870.51ZM880.24 318H882.68V313.98C882.68 311.18 884.14 309.8 886.28 309.8H886.42V307.24C884.56 307.16 883.34 308.22 882.68 309.82V307.44H880.24V318ZM891.362 318.08H893.542L897.862 307.44H895.322L892.462 315.2L889.622 307.44H887.022L891.362 318.08ZM903.651 318.24C905.591 318.24 906.951 317.46 907.971 316.26L906.551 315C905.691 315.82 904.891 316.26 903.691 316.26C902.111 316.26 900.911 315.32 900.651 313.58H908.411C908.431 313.34 908.451 313.12 908.451 312.9C908.451 309.86 906.751 307.22 903.391 307.22C900.371 307.22 898.231 309.68 898.231 312.72V312.76C898.231 316.02 900.611 318.24 903.651 318.24ZM900.631 311.98C900.851 310.32 901.871 309.2 903.371 309.2C904.971 309.2 905.891 310.44 906.051 311.98H900.631ZM910.361 318H912.801V313.98C912.801 311.18 914.261 309.8 916.401 309.8H916.541V307.24C914.681 307.16 913.461 308.22 912.801 309.82V307.44H910.361V318Z" fill="url(#paint2_linear_2556_14111)"></path><rect x="32.5" y="32.5" width="261" height="533" rx="6.5" fill="#CA7228" stroke="#CA7228" stroke-width="3"></rect><path d="M107.78 294H110.3L111.74 290.62H118.36L119.78 294H122.38L116.22 279.9H113.94L107.78 294ZM112.64 288.44L115.04 282.84L117.46 288.44H112.64ZM123.98 297.2H126.42V292.36C127.16 293.34 128.26 294.22 130.02 294.22C132.52 294.22 134.92 292.26 134.92 288.74V288.7C134.92 285.18 132.5 283.22 130.02 283.22C128.28 283.22 127.2 284.1 126.42 285.2V283.44H123.98V297.2ZM129.44 292.12C127.78 292.12 126.36 290.76 126.36 288.74V288.7C126.36 286.68 127.78 285.32 129.44 285.32C131.06 285.32 132.46 286.66 132.46 288.7V288.74C132.46 290.82 131.1 292.12 129.44 292.12ZM136.898 297.2H139.338V292.36C140.078 293.34 141.178 294.22 142.938 294.22C145.438 294.22 147.838 292.26 147.838 288.74V288.7C147.838 285.18 145.418 283.22 142.938 283.22C141.198 283.22 140.118 284.1 139.338 285.2V283.44H136.898V297.2ZM142.358 292.12C140.698 292.12 139.278 290.76 139.278 288.74V288.7C139.278 286.68 140.698 285.32 142.358 285.32C143.978 285.32 145.378 286.66 145.378 288.7V288.74C145.378 290.82 144.018 292.12 142.358 292.12ZM149.956 294H152.396V279.4H149.956V294ZM155.099 281.82H157.699V279.52H155.099V281.82ZM155.179 294H157.619V283.44H155.179V294ZM165.162 294.24C167.222 294.24 168.442 293.44 169.482 292.26L168.022 290.82C167.242 291.6 166.422 292.12 165.282 292.12C163.422 292.12 162.122 290.62 162.122 288.74V288.7C162.122 286.86 163.422 285.34 165.182 285.34C166.382 285.34 167.162 285.88 167.902 286.66L169.422 285.04C168.402 283.96 167.182 283.22 165.202 283.22C162.022 283.22 159.702 285.74 159.702 288.74V288.78C159.702 291.78 162.022 294.24 165.162 294.24ZM174.248 294.22C175.868 294.22 176.968 293.54 177.688 292.68V294H180.048V287.74C180.048 286.36 179.688 285.26 178.908 284.48C178.148 283.7 176.988 283.3 175.408 283.3C173.728 283.3 172.588 283.66 171.408 284.16L172.068 286.06C173.028 285.66 173.888 285.4 175.088 285.4C176.788 285.4 177.708 286.18 177.708 287.7V287.96C176.888 287.7 176.068 287.52 174.868 287.52C172.288 287.52 170.488 288.62 170.488 290.92V290.96C170.488 293.1 172.268 294.22 174.248 294.22ZM174.928 292.46C173.748 292.46 172.868 291.88 172.868 290.86V290.82C172.868 289.7 173.768 289.06 175.348 289.06C176.308 289.06 177.128 289.24 177.748 289.48V290.2C177.748 291.56 176.528 292.46 174.928 292.46ZM185.888 294.18C186.828 294.18 187.448 293.98 188.068 293.64V291.66C187.588 291.9 187.088 292.02 186.568 292.02C185.748 292.02 185.268 291.64 185.268 290.7V285.52H188.108V283.44H185.268V280.54H182.848V283.44H181.508V285.52H182.848V291.08C182.848 293.4 184.108 294.18 185.888 294.18ZM190.111 281.82H192.711V279.52H190.111V281.82ZM190.191 294H192.631V283.44H190.191V294ZM200.313 294.24C203.573 294.24 205.973 291.72 205.973 288.74V288.7C205.973 285.68 203.613 283.22 200.353 283.22C197.113 283.22 194.713 285.72 194.713 288.74V288.78C194.713 291.78 197.093 294.24 200.313 294.24ZM200.353 292.12C198.493 292.12 197.133 290.58 197.133 288.74V288.7C197.133 286.86 198.373 285.34 200.313 285.34C202.213 285.34 203.553 286.88 203.553 288.74V288.78C203.553 290.6 202.333 292.12 200.353 292.12ZM207.918 294H210.358V288.04C210.358 286.38 211.318 285.42 212.738 285.42C214.178 285.42 214.998 286.34 214.998 288V294H217.418V287.26C217.418 284.8 216.058 283.22 213.658 283.22C211.998 283.22 211.058 284.08 210.358 285.06V283.44H207.918V294ZM134.622 319.2C131.762 317.3 130.442 315.24 130.442 312.28V312.26C130.442 309.24 131.782 307.24 134.622 305.32L133.562 303.7C129.902 305.7 128.022 308.48 128.022 312.24V312.26C128.022 316.08 129.902 318.82 133.562 320.82L134.622 319.2ZM142.784 318.24C145.384 318.24 147.044 317.3 148.464 315.76L146.884 314.16C145.684 315.28 144.564 315.96 142.864 315.96C140.184 315.96 138.244 313.74 138.244 311V310.96C138.244 308.22 140.204 306.04 142.844 306.04C144.464 306.04 145.644 306.72 146.784 307.76L148.364 305.94C147.024 304.66 145.464 303.76 142.864 303.76C138.644 303.76 135.664 307.02 135.664 311V311.04C135.664 315.06 138.704 318.24 142.784 318.24ZM150.41 318H152.85V303.4H150.41V318ZM155.552 305.82H158.152V303.52H155.552V305.82ZM155.632 318H158.072V307.44H155.632V318ZM165.575 318.24C167.515 318.24 168.875 317.46 169.895 316.26L168.475 315C167.615 315.82 166.815 316.26 165.615 316.26C164.035 316.26 162.835 315.32 162.575 313.58H170.335C170.355 313.34 170.375 313.12 170.375 312.9C170.375 309.86 168.675 307.22 165.315 307.22C162.295 307.22 160.155 309.68 160.155 312.72V312.76C160.155 316.02 162.535 318.24 165.575 318.24ZM162.555 311.98C162.775 310.32 163.795 309.2 165.295 309.2C166.895 309.2 167.815 310.44 167.975 311.98H162.555ZM172.285 318H174.725V312.04C174.725 310.38 175.685 309.42 177.105 309.42C178.545 309.42 179.365 310.34 179.365 312V318H181.785V311.26C181.785 308.8 180.425 307.22 178.025 307.22C176.365 307.22 175.425 308.08 174.725 309.06V307.44H172.285V318ZM187.748 318.18C188.688 318.18 189.308 317.98 189.928 317.64V315.66C189.448 315.9 188.948 316.02 188.428 316.02C187.608 316.02 187.128 315.64 187.128 314.7V309.52H189.968V307.44H187.128V304.54H184.708V307.44H183.368V309.52H184.708V315.08C184.708 317.4 185.968 318.18 187.748 318.18ZM192.43 320.82C196.09 318.82 197.97 316.04 197.97 312.28V312.26C197.97 308.44 196.09 305.7 192.43 303.7L191.37 305.32C194.23 307.22 195.55 309.28 195.55 312.24V312.26C195.55 315.28 194.21 317.28 191.37 319.2L192.43 320.82Z" fill="white"></path><path d="M107.78 294H110.3L111.74 290.62H118.36L119.78 294H122.38L116.22 279.9H113.94L107.78 294ZM112.64 288.44L115.04 282.84L117.46 288.44H112.64ZM123.98 297.2H126.42V292.36C127.16 293.34 128.26 294.22 130.02 294.22C132.52 294.22 134.92 292.26 134.92 288.74V288.7C134.92 285.18 132.5 283.22 130.02 283.22C128.28 283.22 127.2 284.1 126.42 285.2V283.44H123.98V297.2ZM129.44 292.12C127.78 292.12 126.36 290.76 126.36 288.74V288.7C126.36 286.68 127.78 285.32 129.44 285.32C131.06 285.32 132.46 286.66 132.46 288.7V288.74C132.46 290.82 131.1 292.12 129.44 292.12ZM136.898 297.2H139.338V292.36C140.078 293.34 141.178 294.22 142.938 294.22C145.438 294.22 147.838 292.26 147.838 288.74V288.7C147.838 285.18 145.418 283.22 142.938 283.22C141.198 283.22 140.118 284.1 139.338 285.2V283.44H136.898V297.2ZM142.358 292.12C140.698 292.12 139.278 290.76 139.278 288.74V288.7C139.278 286.68 140.698 285.32 142.358 285.32C143.978 285.32 145.378 286.66 145.378 288.7V288.74C145.378 290.82 144.018 292.12 142.358 292.12ZM149.956 294H152.396V279.4H149.956V294ZM155.099 281.82H157.699V279.52H155.099V281.82ZM155.179 294H157.619V283.44H155.179V294ZM165.162 294.24C167.222 294.24 168.442 293.44 169.482 292.26L168.022 290.82C167.242 291.6 166.422 292.12 165.282 292.12C163.422 292.12 162.122 290.62 162.122 288.74V288.7C162.122 286.86 163.422 285.34 165.182 285.34C166.382 285.34 167.162 285.88 167.902 286.66L169.422 285.04C168.402 283.96 167.182 283.22 165.202 283.22C162.022 283.22 159.702 285.74 159.702 288.74V288.78C159.702 291.78 162.022 294.24 165.162 294.24ZM174.248 294.22C175.868 294.22 176.968 293.54 177.688 292.68V294H180.048V287.74C180.048 286.36 179.688 285.26 178.908 284.48C178.148 283.7 176.988 283.3 175.408 283.3C173.728 283.3 172.588 283.66 171.408 284.16L172.068 286.06C173.028 285.66 173.888 285.4 175.088 285.4C176.788 285.4 177.708 286.18 177.708 287.7V287.96C176.888 287.7 176.068 287.52 174.868 287.52C172.288 287.52 170.488 288.62 170.488 290.92V290.96C170.488 293.1 172.268 294.22 174.248 294.22ZM174.928 292.46C173.748 292.46 172.868 291.88 172.868 290.86V290.82C172.868 289.7 173.768 289.06 175.348 289.06C176.308 289.06 177.128 289.24 177.748 289.48V290.2C177.748 291.56 176.528 292.46 174.928 292.46ZM185.888 294.18C186.828 294.18 187.448 293.98 188.068 293.64V291.66C187.588 291.9 187.088 292.02 186.568 292.02C185.748 292.02 185.268 291.64 185.268 290.7V285.52H188.108V283.44H185.268V280.54H182.848V283.44H181.508V285.52H182.848V291.08C182.848 293.4 184.108 294.18 185.888 294.18ZM190.111 281.82H192.711V279.52H190.111V281.82ZM190.191 294H192.631V283.44H190.191V294ZM200.313 294.24C203.573 294.24 205.973 291.72 205.973 288.74V288.7C205.973 285.68 203.613 283.22 200.353 283.22C197.113 283.22 194.713 285.72 194.713 288.74V288.78C194.713 291.78 197.093 294.24 200.313 294.24ZM200.353 292.12C198.493 292.12 197.133 290.58 197.133 288.74V288.7C197.133 286.86 198.373 285.34 200.313 285.34C202.213 285.34 203.553 286.88 203.553 288.74V288.78C203.553 290.6 202.333 292.12 200.353 292.12ZM207.918 294H210.358V288.04C210.358 286.38 211.318 285.42 212.738 285.42C214.178 285.42 214.998 286.34 214.998 288V294H217.418V287.26C217.418 284.8 216.058 283.22 213.658 283.22C211.998 283.22 211.058 284.08 210.358 285.06V283.44H207.918V294ZM134.622 319.2C131.762 317.3 130.442 315.24 130.442 312.28V312.26C130.442 309.24 131.782 307.24 134.622 305.32L133.562 303.7C129.902 305.7 128.022 308.48 128.022 312.24V312.26C128.022 316.08 129.902 318.82 133.562 320.82L134.622 319.2ZM142.784 318.24C145.384 318.24 147.044 317.3 148.464 315.76L146.884 314.16C145.684 315.28 144.564 315.96 142.864 315.96C140.184 315.96 138.244 313.74 138.244 311V310.96C138.244 308.22 140.204 306.04 142.844 306.04C144.464 306.04 145.644 306.72 146.784 307.76L148.364 305.94C147.024 304.66 145.464 303.76 142.864 303.76C138.644 303.76 135.664 307.02 135.664 311V311.04C135.664 315.06 138.704 318.24 142.784 318.24ZM150.41 318H152.85V303.4H150.41V318ZM155.552 305.82H158.152V303.52H155.552V305.82ZM155.632 318H158.072V307.44H155.632V318ZM165.575 318.24C167.515 318.24 168.875 317.46 169.895 316.26L168.475 315C167.615 315.82 166.815 316.26 165.615 316.26C164.035 316.26 162.835 315.32 162.575 313.58H170.335C170.355 313.34 170.375 313.12 170.375 312.9C170.375 309.86 168.675 307.22 165.315 307.22C162.295 307.22 160.155 309.68 160.155 312.72V312.76C160.155 316.02 162.535 318.24 165.575 318.24ZM162.555 311.98C162.775 310.32 163.795 309.2 165.295 309.2C166.895 309.2 167.815 310.44 167.975 311.98H162.555ZM172.285 318H174.725V312.04C174.725 310.38 175.685 309.42 177.105 309.42C178.545 309.42 179.365 310.34 179.365 312V318H181.785V311.26C181.785 308.8 180.425 307.22 178.025 307.22C176.365 307.22 175.425 308.08 174.725 309.06V307.44H172.285V318ZM187.748 318.18C188.688 318.18 189.308 317.98 189.928 317.64V315.66C189.448 315.9 188.948 316.02 188.428 316.02C187.608 316.02 187.128 315.64 187.128 314.7V309.52H189.968V307.44H187.128V304.54H184.708V307.44H183.368V309.52H184.708V315.08C184.708 317.4 185.968 318.18 187.748 318.18ZM192.43 320.82C196.09 318.82 197.97 316.04 197.97 312.28V312.26C197.97 308.44 196.09 305.7 192.43 303.7L191.37 305.32C194.23 307.22 195.55 309.28 195.55 312.24V312.26C195.55 315.28 194.21 317.28 191.37 319.2L192.43 320.82Z" fill="url(#paint3_linear_2556_14111)"></path><path d="M433.34 58H435.292V46.72H433.932L430.908 47.68L431.324 49.28L433.34 48.72V58ZM437.424 58H439.552V55.792H437.424V58ZM444.91 58H446.926L448.078 55.296H453.374L454.51 58H456.59L451.662 46.72H449.838L444.91 58ZM448.798 53.552L450.718 49.072L452.654 53.552H448.798ZM460.542 58.176C461.838 58.176 462.622 57.504 463.182 56.688V58H465.134V49.552H463.182V54.32C463.182 55.648 462.414 56.4 461.278 56.4C460.126 56.4 459.47 55.68 459.47 54.352V49.552H457.534V54.928C457.534 56.912 458.622 58.176 460.542 58.176ZM469.884 58.144C470.636 58.144 471.132 57.984 471.628 57.712V56.128C471.244 56.32 470.844 56.416 470.428 56.416C469.772 56.416 469.388 56.112 469.388 55.36V51.216H471.66V49.552H469.388V47.232H467.452V49.552H466.38V51.216H467.452V55.664C467.452 57.52 468.46 58.144 469.884 58.144ZM473.114 58H475.066V53.232C475.066 51.904 475.834 51.136 476.97 51.136C478.122 51.136 478.778 51.872 478.778 53.2V58H480.714V52.608C480.714 50.64 479.626 49.376 477.706 49.376C476.378 49.376 475.626 50.064 475.066 50.848V46.32H473.114V58ZM486.568 58.192C489.176 58.192 491.096 56.176 491.096 53.792V53.76C491.096 51.344 489.208 49.376 486.6 49.376C484.008 49.376 482.088 51.376 482.088 53.792V53.824C482.088 56.224 483.992 58.192 486.568 58.192ZM486.6 56.496C485.112 56.496 484.024 55.264 484.024 53.792V53.76C484.024 52.288 485.016 51.072 486.568 51.072C488.088 51.072 489.16 52.304 489.16 53.792V53.824C489.16 55.28 488.184 56.496 486.6 56.496ZM492.552 58H494.504V54.784C494.504 52.544 495.672 51.44 497.384 51.44H497.496V49.392C496.008 49.328 495.032 50.176 494.504 51.456V49.552H492.552V58ZM498.709 48.256H500.789V46.416H498.709V48.256ZM498.773 58H500.725V49.552H498.773V58ZM502.371 58H509.715V56.416H504.835L509.715 50.88V49.552H502.547V51.136H507.251L502.371 56.672V58ZM513.64 58.176C514.936 58.176 515.816 57.632 516.392 56.944V58H518.28V52.992C518.28 51.888 517.992 51.008 517.368 50.384C516.76 49.76 515.832 49.44 514.568 49.44C513.224 49.44 512.312 49.728 511.368 50.128L511.896 51.648C512.664 51.328 513.352 51.12 514.312 51.12C515.672 51.12 516.408 51.744 516.408 52.96V53.168C515.752 52.96 515.096 52.816 514.136 52.816C512.072 52.816 510.632 53.696 510.632 55.536V55.568C510.632 57.28 512.056 58.176 513.64 58.176ZM514.184 56.768C513.24 56.768 512.536 56.304 512.536 55.488V55.456C512.536 54.56 513.256 54.048 514.52 54.048C515.288 54.048 515.944 54.192 516.44 54.384V54.96C516.44 56.048 515.464 56.768 514.184 56.768ZM522.853 58.144C523.605 58.144 524.101 57.984 524.597 57.712V56.128C524.213 56.32 523.813 56.416 523.397 56.416C522.741 56.416 522.357 56.112 522.357 55.36V51.216H524.629V49.552H522.357V47.232H520.421V49.552H519.349V51.216H520.421V55.664C520.421 57.52 521.429 58.144 522.853 58.144ZM526.131 48.256H528.211V46.416H526.131V48.256ZM526.195 58H528.147V49.552H526.195V58ZM534.193 58.192C536.801 58.192 538.721 56.176 538.721 53.792V53.76C538.721 51.344 536.833 49.376 534.225 49.376C531.633 49.376 529.713 51.376 529.713 53.792V53.824C529.713 56.224 531.617 58.192 534.193 58.192ZM534.225 56.496C532.737 56.496 531.649 55.264 531.649 53.792V53.76C531.649 52.288 532.641 51.072 534.193 51.072C535.713 51.072 536.785 52.304 536.785 53.792V53.824C536.785 55.28 535.809 56.496 534.225 56.496ZM540.177 58H542.129V53.232C542.129 51.904 542.897 51.136 544.033 51.136C545.185 51.136 545.841 51.872 545.841 53.2V58H547.777V52.608C547.777 50.64 546.689 49.376 544.769 49.376C543.441 49.376 542.689 50.064 542.129 50.848V49.552H540.177V58ZM554.135 58H556.103V54.096H558.567L561.319 58H563.655L560.631 53.76C562.183 53.312 563.287 52.208 563.287 50.368V50.336C563.287 49.36 562.951 48.544 562.359 47.92C561.639 47.216 560.535 46.8 559.127 46.8H554.135V58ZM556.103 52.352V48.592H558.967C560.439 48.592 561.287 49.232 561.287 50.448V50.48C561.287 51.632 560.391 52.352 558.983 52.352H556.103ZM568.69 58.192C570.242 58.192 571.33 57.568 572.146 56.608L571.01 55.6C570.322 56.256 569.682 56.608 568.722 56.608C567.458 56.608 566.498 55.856 566.29 54.464H572.498C572.514 54.272 572.53 54.096 572.53 53.92C572.53 51.488 571.17 49.376 568.482 49.376C566.066 49.376 564.354 51.344 564.354 53.776V53.808C564.354 56.416 566.258 58.192 568.69 58.192ZM566.274 53.184C566.45 51.856 567.266 50.96 568.466 50.96C569.746 50.96 570.482 51.952 570.61 53.184H566.274ZM580.342 60.56H582.278V49.552H580.342V50.864C579.75 50.064 578.838 49.376 577.462 49.376C575.446 49.376 573.542 50.944 573.542 53.76V53.792C573.542 56.608 575.478 58.176 577.462 58.176C578.822 58.176 579.718 57.472 580.342 56.592V60.56ZM577.926 56.496C576.598 56.496 575.494 55.424 575.494 53.792V53.76C575.494 52.096 576.598 51.056 577.926 51.056C579.222 51.056 580.374 52.128 580.374 53.76V53.792C580.374 55.408 579.222 56.496 577.926 56.496ZM587.12 58.176C588.416 58.176 589.2 57.504 589.76 56.688V58H591.712V49.552H589.76V54.32C589.76 55.648 588.992 56.4 587.856 56.4C586.704 56.4 586.048 55.68 586.048 54.352V49.552H584.112V54.928C584.112 56.912 585.2 58.176 587.12 58.176ZM597.502 58.192C599.054 58.192 600.142 57.568 600.958 56.608L599.822 55.6C599.134 56.256 598.494 56.608 597.534 56.608C596.27 56.608 595.31 55.856 595.102 54.464H601.31C601.326 54.272 601.342 54.096 601.342 53.92C601.342 51.488 599.982 49.376 597.294 49.376C594.878 49.376 593.166 51.344 593.166 53.776V53.808C593.166 56.416 595.07 58.192 597.502 58.192ZM595.086 53.184C595.262 51.856 596.078 50.96 597.278 50.96C598.558 50.96 599.294 51.952 599.422 53.184H595.086ZM605.682 58.16C607.442 58.16 608.818 57.28 608.818 55.504V55.472C608.818 53.952 607.41 53.392 606.194 53.008C605.202 52.704 604.29 52.416 604.29 51.808V51.776C604.29 51.312 604.722 50.944 605.474 50.944C606.178 50.944 607.042 51.248 607.858 51.744L608.626 50.368C607.73 49.776 606.594 49.408 605.522 49.408C603.842 49.408 602.514 50.384 602.514 52V52.032C602.514 53.632 603.922 54.16 605.154 54.496C606.146 54.8 607.042 55.04 607.042 55.68V55.712C607.042 56.272 606.562 56.624 605.73 56.624C604.85 56.624 603.906 56.272 602.962 55.584L602.098 56.896C603.17 57.744 604.466 58.16 605.682 58.16ZM612.978 58.144C613.73 58.144 614.226 57.984 614.722 57.712V56.128C614.338 56.32 613.938 56.416 613.522 56.416C612.866 56.416 612.482 56.112 612.482 55.36V51.216H614.754V49.552H612.482V47.232H610.546V49.552H609.474V51.216H610.546V55.664C610.546 57.52 611.554 58.144 612.978 58.144Z" fill="black"></path><path d="M439.128 114H447.224V112.272H441.896L444.2 110.352C446.184 108.72 447.112 107.792 447.112 106.016V105.984C447.112 103.984 445.592 102.64 443.416 102.64C441.432 102.64 440.36 103.488 439.288 104.976L440.696 106.08C441.544 104.944 442.248 104.4 443.272 104.4C444.296 104.4 445.08 105.056 445.08 106.144C445.08 107.168 444.504 107.856 442.984 109.168L439.128 112.448V114ZM448.744 114H450.872V111.792H448.744V114ZM456.23 114H458.246L459.398 111.296H464.694L465.83 114H467.91L462.982 102.72H461.158L456.23 114ZM460.118 109.552L462.038 105.072L463.974 109.552H460.118ZM471.862 114.176C473.158 114.176 473.942 113.504 474.502 112.688V114H476.454V105.552H474.502V110.32C474.502 111.648 473.734 112.4 472.598 112.4C471.446 112.4 470.79 111.68 470.79 110.352V105.552H468.854V110.928C468.854 112.912 469.942 114.176 471.862 114.176ZM481.204 114.144C481.956 114.144 482.452 113.984 482.948 113.712V112.128C482.564 112.32 482.164 112.416 481.748 112.416C481.092 112.416 480.708 112.112 480.708 111.36V107.216H482.98V105.552H480.708V103.232H478.772V105.552H477.7V107.216H478.772V111.664C478.772 113.52 479.78 114.144 481.204 114.144ZM484.434 114H486.386V109.232C486.386 107.904 487.154 107.136 488.29 107.136C489.442 107.136 490.098 107.872 490.098 109.2V114H492.034V108.608C492.034 106.64 490.946 105.376 489.026 105.376C487.698 105.376 486.946 106.064 486.386 106.848V102.32H484.434V114ZM497.888 114.192C500.496 114.192 502.416 112.176 502.416 109.792V109.76C502.416 107.344 500.528 105.376 497.92 105.376C495.328 105.376 493.408 107.376 493.408 109.792V109.824C493.408 112.224 495.312 114.192 497.888 114.192ZM497.92 112.496C496.432 112.496 495.344 111.264 495.344 109.792V109.76C495.344 108.288 496.336 107.072 497.888 107.072C499.408 107.072 500.48 108.304 500.48 109.792V109.824C500.48 111.28 499.504 112.496 497.92 112.496ZM503.872 114H505.824V110.784C505.824 108.544 506.992 107.44 508.704 107.44H508.816V105.392C507.328 105.328 506.352 106.176 505.824 107.456V105.552H503.872V114ZM510.029 104.256H512.109V102.416H510.029V104.256ZM510.093 114H512.045V105.552H510.093V114ZM513.691 114H521.035V112.416H516.155L521.035 106.88V105.552H513.867V107.136H518.571L513.691 112.672V114ZM524.961 114.176C526.257 114.176 527.137 113.632 527.713 112.944V114H529.601V108.992C529.601 107.888 529.312 107.008 528.689 106.384C528.081 105.76 527.153 105.44 525.889 105.44C524.545 105.44 523.633 105.728 522.689 106.128L523.217 107.648C523.985 107.328 524.673 107.12 525.633 107.12C526.993 107.12 527.729 107.744 527.729 108.96V109.168C527.073 108.96 526.417 108.816 525.457 108.816C523.393 108.816 521.953 109.696 521.953 111.536V111.568C521.953 113.28 523.377 114.176 524.961 114.176ZM525.505 112.768C524.561 112.768 523.857 112.304 523.857 111.488V111.456C523.857 110.56 524.577 110.048 525.841 110.048C526.609 110.048 527.265 110.192 527.761 110.384V110.96C527.761 112.048 526.785 112.768 525.505 112.768ZM534.173 114.144C534.925 114.144 535.421 113.984 535.917 113.712V112.128C535.533 112.32 535.133 112.416 534.717 112.416C534.061 112.416 533.677 112.112 533.677 111.36V107.216H535.949V105.552H533.677V103.232H531.741V105.552H530.669V107.216H531.741V111.664C531.741 113.52 532.749 114.144 534.173 114.144ZM537.451 104.256H539.531V102.416H537.451V104.256ZM537.515 114H539.467V105.552H537.515V114ZM545.513 114.192C548.121 114.192 550.041 112.176 550.041 109.792V109.76C550.041 107.344 548.153 105.376 545.545 105.376C542.953 105.376 541.033 107.376 541.033 109.792V109.824C541.033 112.224 542.937 114.192 545.513 114.192ZM545.545 112.496C544.057 112.496 542.969 111.264 542.969 109.792V109.76C542.969 108.288 543.961 107.072 545.513 107.072C547.033 107.072 548.105 108.304 548.105 109.792V109.824C548.105 111.28 547.129 112.496 545.545 112.496ZM551.497 114H553.449V109.232C553.449 107.904 554.217 107.136 555.353 107.136C556.505 107.136 557.161 107.872 557.161 109.2V114H559.097V108.608C559.097 106.64 558.009 105.376 556.089 105.376C554.761 105.376 554.009 106.064 553.449 106.848V105.552H551.497V114ZM570.768 114.192C572.752 114.192 574.32 113.392 575.44 112.448V107.744H570.672V109.472H573.536V111.552C572.848 112.064 571.904 112.4 570.832 112.4C568.544 112.4 567.024 110.704 567.024 108.4V108.368C567.024 106.224 568.608 104.432 570.656 104.432C572.064 104.432 572.928 104.88 573.792 105.616L575.04 104.128C573.888 103.152 572.672 102.608 570.736 102.608C567.344 102.608 564.96 105.264 564.96 108.4V108.432C564.96 111.696 567.264 114.192 570.768 114.192ZM577.263 114H579.215V110.784C579.215 108.544 580.383 107.44 582.095 107.44H582.207V105.392C580.719 105.328 579.743 106.176 579.215 107.456V105.552H577.263V114ZM585.414 114.176C586.71 114.176 587.59 113.632 588.166 112.944V114H590.054V108.992C590.054 107.888 589.766 107.008 589.142 106.384C588.534 105.76 587.606 105.44 586.342 105.44C584.998 105.44 584.086 105.728 583.142 106.128L583.67 107.648C584.438 107.328 585.126 107.12 586.086 107.12C587.446 107.12 588.182 107.744 588.182 108.96V109.168C587.526 108.96 586.87 108.816 585.91 108.816C583.846 108.816 582.406 109.696 582.406 111.536V111.568C582.406 113.28 583.83 114.176 585.414 114.176ZM585.958 112.768C585.014 112.768 584.31 112.304 584.31 111.488V111.456C584.31 110.56 585.03 110.048 586.294 110.048C587.062 110.048 587.718 110.192 588.214 110.384V110.96C588.214 112.048 587.238 112.768 585.958 112.768ZM591.856 114H593.808V109.232C593.808 107.904 594.576 107.136 595.712 107.136C596.864 107.136 597.52 107.872 597.52 109.2V114H599.456V108.608C599.456 106.64 598.368 105.376 596.448 105.376C595.12 105.376 594.368 106.064 593.808 106.848V105.552H591.856V114ZM604.126 114.144C604.878 114.144 605.374 113.984 605.87 113.712V112.128C605.486 112.32 605.086 112.416 604.67 112.416C604.014 112.416 603.63 112.112 603.63 111.36V107.216H605.902V105.552H603.63V103.232H601.694V105.552H600.622V107.216H601.694V111.664C601.694 113.52 602.702 114.144 604.126 114.144Z" fill="black"></path><path d="M443.281 277.192C445.617 277.192 447.201 275.704 447.201 273.64V273.608C447.201 271.544 445.601 270.68 443.905 270.472L447.025 267.272V265.8H439.617V267.512H444.465L441.441 270.728L441.761 271.96H442.673C444.257 271.96 445.249 272.584 445.249 273.688V273.72C445.249 274.744 444.401 275.416 443.313 275.416C442.049 275.416 441.185 274.904 440.369 273.944L438.993 275.24C439.953 276.392 441.313 277.192 443.281 277.192ZM448.783 277H450.911V274.792H448.783V277ZM456.269 277H458.285L459.437 274.296H464.733L465.869 277H467.949L463.021 265.72H461.197L456.269 277ZM460.157 272.552L462.077 268.072L464.013 272.552H460.157ZM471.901 277.176C473.197 277.176 473.981 276.504 474.541 275.688V277H476.493V268.552H474.541V273.32C474.541 274.648 473.773 275.4 472.637 275.4C471.485 275.4 470.829 274.68 470.829 273.352V268.552H468.893V273.928C468.893 275.912 469.981 277.176 471.901 277.176ZM481.243 277.144C481.995 277.144 482.491 276.984 482.987 276.712V275.128C482.603 275.32 482.203 275.416 481.787 275.416C481.131 275.416 480.747 275.112 480.747 274.36V270.216H483.019V268.552H480.747V266.232H478.811V268.552H477.739V270.216H478.811V274.664C478.811 276.52 479.819 277.144 481.243 277.144ZM484.473 277H486.425V272.232C486.425 270.904 487.193 270.136 488.329 270.136C489.481 270.136 490.137 270.872 490.137 272.2V277H492.073V271.608C492.073 269.64 490.985 268.376 489.065 268.376C487.737 268.376 486.985 269.064 486.425 269.848V265.32H484.473V277ZM497.927 277.192C500.535 277.192 502.455 275.176 502.455 272.792V272.76C502.455 270.344 500.567 268.376 497.959 268.376C495.367 268.376 493.447 270.376 493.447 272.792V272.824C493.447 275.224 495.351 277.192 497.927 277.192ZM497.959 275.496C496.471 275.496 495.383 274.264 495.383 272.792V272.76C495.383 271.288 496.375 270.072 497.927 270.072C499.447 270.072 500.519 271.304 500.519 272.792V272.824C500.519 274.28 499.543 275.496 497.959 275.496ZM503.911 277H505.863V273.784C505.863 271.544 507.031 270.44 508.743 270.44H508.855V268.392C507.367 268.328 506.391 269.176 505.863 270.456V268.552H503.911V277ZM510.068 267.256H512.148V265.416H510.068V267.256ZM510.132 277H512.084V268.552H510.132V277ZM513.73 277H521.074V275.416H516.194L521.074 269.88V268.552H513.906V270.136H518.61L513.73 275.672V277ZM525 277.176C526.296 277.176 527.176 276.632 527.752 275.944V277H529.64V271.992C529.64 270.888 529.352 270.008 528.728 269.384C528.12 268.76 527.192 268.44 525.928 268.44C524.584 268.44 523.672 268.728 522.728 269.128L523.256 270.648C524.024 270.328 524.712 270.12 525.672 270.12C527.032 270.12 527.768 270.744 527.768 271.96V272.168C527.112 271.96 526.456 271.816 525.496 271.816C523.432 271.816 521.992 272.696 521.992 274.536V274.568C521.992 276.28 523.416 277.176 525 277.176ZM525.544 275.768C524.6 275.768 523.896 275.304 523.896 274.488V274.456C523.896 273.56 524.616 273.048 525.88 273.048C526.648 273.048 527.304 273.192 527.8 273.384V273.96C527.8 275.048 526.824 275.768 525.544 275.768ZM534.212 277.144C534.964 277.144 535.46 276.984 535.956 276.712V275.128C535.572 275.32 535.172 275.416 534.756 275.416C534.1 275.416 533.716 275.112 533.716 274.36V270.216H535.988V268.552H533.716V266.232H531.78V268.552H530.708V270.216H531.78V274.664C531.78 276.52 532.788 277.144 534.212 277.144ZM537.49 267.256H539.57V265.416H537.49V267.256ZM537.554 277H539.506V268.552H537.554V277ZM545.552 277.192C548.16 277.192 550.08 275.176 550.08 272.792V272.76C550.08 270.344 548.192 268.376 545.584 268.376C542.992 268.376 541.072 270.376 541.072 272.792V272.824C541.072 275.224 542.976 277.192 545.552 277.192ZM545.584 275.496C544.096 275.496 543.008 274.264 543.008 272.792V272.76C543.008 271.288 544 270.072 545.552 270.072C547.072 270.072 548.144 271.304 548.144 272.792V272.824C548.144 274.28 547.168 275.496 545.584 275.496ZM551.536 277H553.488V272.232C553.488 270.904 554.256 270.136 555.392 270.136C556.544 270.136 557.2 270.872 557.2 272.2V277H559.136V271.608C559.136 269.64 558.048 268.376 556.128 268.376C554.8 268.376 554.048 269.064 553.488 269.848V268.552H551.536V277ZM570.807 277.192C572.791 277.192 574.359 276.392 575.479 275.448V270.744H570.711V272.472H573.575V274.552C572.887 275.064 571.943 275.4 570.871 275.4C568.583 275.4 567.063 273.704 567.063 271.4V271.368C567.063 269.224 568.647 267.432 570.695 267.432C572.103 267.432 572.967 267.88 573.831 268.616L575.079 267.128C573.927 266.152 572.711 265.608 570.775 265.608C567.383 265.608 564.999 268.264 564.999 271.4V271.432C564.999 274.696 567.303 277.192 570.807 277.192ZM577.302 277H579.254V273.784C579.254 271.544 580.422 270.44 582.134 270.44H582.246V268.392C580.758 268.328 579.782 269.176 579.254 270.456V268.552H577.302V277ZM585.453 277.176C586.749 277.176 587.629 276.632 588.205 275.944V277H590.093V271.992C590.093 270.888 589.805 270.008 589.181 269.384C588.573 268.76 587.645 268.44 586.381 268.44C585.037 268.44 584.125 268.728 583.181 269.128L583.709 270.648C584.477 270.328 585.165 270.12 586.125 270.12C587.485 270.12 588.221 270.744 588.221 271.96V272.168C587.565 271.96 586.909 271.816 585.949 271.816C583.885 271.816 582.445 272.696 582.445 274.536V274.568C582.445 276.28 583.869 277.176 585.453 277.176ZM585.997 275.768C585.053 275.768 584.349 275.304 584.349 274.488V274.456C584.349 273.56 585.069 273.048 586.333 273.048C587.101 273.048 587.757 273.192 588.253 273.384V273.96C588.253 275.048 587.277 275.768 585.997 275.768ZM591.895 277H593.847V272.232C593.847 270.904 594.615 270.136 595.751 270.136C596.903 270.136 597.559 270.872 597.559 272.2V277H599.495V271.608C599.495 269.64 598.407 268.376 596.487 268.376C595.159 268.376 594.407 269.064 593.847 269.848V268.552H591.895V277ZM604.165 277.144C604.917 277.144 605.413 276.984 605.909 276.712V275.128C605.525 275.32 605.125 275.416 604.709 275.416C604.053 275.416 603.669 275.112 603.669 274.36V270.216H605.941V268.552H603.669V266.232H601.733V268.552H600.661V270.216H601.733V274.664C601.733 276.52 602.741 277.144 604.165 277.144Z" fill="black"></path><path d="M468.647 333H470.535V330.488H472.135V328.872H470.535V321.72H468.855L462.631 329.08L462.999 330.488H468.647V333ZM464.967 328.872L468.647 324.44V328.872H464.967ZM473.549 333H475.677V330.792H473.549V333ZM481.035 333H483.051L484.203 330.296H489.499L490.635 333H492.715L487.787 321.72H485.963L481.035 333ZM484.923 328.552L486.843 324.072L488.779 328.552H484.923ZM497.409 333.192C499.057 333.192 500.033 332.552 500.865 331.608L499.697 330.456C499.073 331.08 498.417 331.496 497.505 331.496C496.017 331.496 494.977 330.296 494.977 328.792V328.76C494.977 327.288 496.017 326.072 497.425 326.072C498.385 326.072 499.009 326.504 499.601 327.128L500.817 325.832C500.001 324.968 499.025 324.376 497.441 324.376C494.897 324.376 493.041 326.392 493.041 328.792V328.824C493.041 331.224 494.897 333.192 497.409 333.192ZM505.815 333.192C507.463 333.192 508.439 332.552 509.271 331.608L508.103 330.456C507.479 331.08 506.823 331.496 505.911 331.496C504.423 331.496 503.383 330.296 503.383 328.792V328.76C503.383 327.288 504.423 326.072 505.831 326.072C506.791 326.072 507.415 326.504 508.007 327.128L509.223 325.832C508.407 324.968 507.431 324.376 505.847 324.376C503.303 324.376 501.447 326.392 501.447 328.792V328.824C501.447 331.224 503.303 333.192 505.815 333.192ZM514.19 333.192C515.742 333.192 516.83 332.568 517.646 331.608L516.51 330.6C515.822 331.256 515.182 331.608 514.222 331.608C512.958 331.608 511.998 330.856 511.79 329.464H517.998C518.014 329.272 518.03 329.096 518.03 328.92C518.03 326.488 516.67 324.376 513.982 324.376C511.566 324.376 509.854 326.344 509.854 328.776V328.808C509.854 331.416 511.758 333.192 514.19 333.192ZM511.774 328.184C511.95 326.856 512.766 325.96 513.966 325.96C515.246 325.96 515.982 326.952 516.11 328.184H511.774ZM522.37 333.16C524.13 333.16 525.506 332.28 525.506 330.504V330.472C525.506 328.952 524.098 328.392 522.882 328.008C521.89 327.704 520.978 327.416 520.978 326.808V326.776C520.978 326.312 521.41 325.944 522.162 325.944C522.866 325.944 523.73 326.248 524.546 326.744L525.314 325.368C524.418 324.776 523.282 324.408 522.21 324.408C520.53 324.408 519.202 325.384 519.202 327V327.032C519.202 328.632 520.61 329.16 521.842 329.496C522.834 329.8 523.73 330.04 523.73 330.68V330.712C523.73 331.272 523.25 331.624 522.418 331.624C521.538 331.624 520.594 331.272 519.65 330.584L518.786 331.896C519.858 332.744 521.154 333.16 522.37 333.16ZM529.729 333.16C531.489 333.16 532.865 332.28 532.865 330.504V330.472C532.865 328.952 531.457 328.392 530.241 328.008C529.249 327.704 528.337 327.416 528.337 326.808V326.776C528.337 326.312 528.769 325.944 529.521 325.944C530.225 325.944 531.089 326.248 531.905 326.744L532.673 325.368C531.777 324.776 530.641 324.408 529.569 324.408C527.889 324.408 526.561 325.384 526.561 327V327.032C526.561 328.632 527.969 329.16 529.201 329.496C530.193 329.8 531.089 330.04 531.089 330.68V330.712C531.089 331.272 530.609 331.624 529.777 331.624C528.897 331.624 527.953 331.272 527.009 330.584L526.145 331.896C527.217 332.744 528.513 333.16 529.729 333.16ZM541.606 333H543.574V323.624H547.142V321.8H538.038V323.624H541.606V333ZM550.677 333.192C553.285 333.192 555.205 331.176 555.205 328.792V328.76C555.205 326.344 553.317 324.376 550.709 324.376C548.117 324.376 546.197 326.376 546.197 328.792V328.824C546.197 331.224 548.101 333.192 550.677 333.192ZM550.709 331.496C549.221 331.496 548.133 330.264 548.133 328.792V328.76C548.133 327.288 549.125 326.072 550.677 326.072C552.197 326.072 553.269 327.304 553.269 328.792V328.824C553.269 330.28 552.293 331.496 550.709 331.496ZM556.661 333H558.613V330.584L559.813 329.336L562.309 333H564.581L561.109 327.992L564.469 324.552H562.117L558.613 328.296V321.32H556.661V333ZM568.955 333.192C570.507 333.192 571.595 332.568 572.411 331.608L571.275 330.6C570.587 331.256 569.947 331.608 568.987 331.608C567.723 331.608 566.763 330.856 566.555 329.464H572.763C572.779 329.272 572.795 329.096 572.795 328.92C572.795 326.488 571.435 324.376 568.747 324.376C566.331 324.376 564.619 326.344 564.619 328.776V328.808C564.619 331.416 566.523 333.192 568.955 333.192ZM566.539 328.184C566.715 326.856 567.531 325.96 568.731 325.96C570.011 325.96 570.747 326.952 570.875 328.184H566.539ZM574.223 333H576.175V328.232C576.175 326.904 576.943 326.136 578.079 326.136C579.231 326.136 579.887 326.872 579.887 328.2V333H581.823V327.608C581.823 325.64 580.735 324.376 578.815 324.376C577.487 324.376 576.735 325.064 576.175 325.848V324.552H574.223V333Z" fill="black"></path><path d="M467.887 496.192C470.367 496.192 472.047 494.688 472.047 492.4V492.368C472.047 490 470.319 488.848 468.143 488.848C467.391 488.848 466.895 488.976 466.367 489.168L466.543 486.56H471.551V484.8H464.847L464.527 490.288L465.711 491.072C466.287 490.8 466.959 490.576 467.775 490.576C469.135 490.576 470.095 491.28 470.095 492.432V492.464C470.095 493.632 469.215 494.4 467.871 494.4C466.831 494.4 465.887 493.888 464.991 493.056L463.775 494.48C464.847 495.504 466.159 496.192 467.887 496.192ZM473.58 496H475.708V493.792H473.58V496ZM481.066 496H483.082L484.234 493.296H489.53L490.666 496H492.746L487.818 484.72H485.994L481.066 496ZM484.954 491.552L486.874 487.072L488.81 491.552H484.954ZM497.44 496.192C499.088 496.192 500.064 495.552 500.896 494.608L499.728 493.456C499.104 494.08 498.448 494.496 497.536 494.496C496.048 494.496 495.008 493.296 495.008 491.792V491.76C495.008 490.288 496.048 489.072 497.456 489.072C498.416 489.072 499.04 489.504 499.632 490.128L500.848 488.832C500.032 487.968 499.056 487.376 497.472 487.376C494.928 487.376 493.072 489.392 493.072 491.792V491.824C493.072 494.224 494.928 496.192 497.44 496.192ZM505.847 496.192C507.495 496.192 508.471 495.552 509.303 494.608L508.135 493.456C507.511 494.08 506.855 494.496 505.943 494.496C504.455 494.496 503.415 493.296 503.415 491.792V491.76C503.415 490.288 504.455 489.072 505.863 489.072C506.823 489.072 507.447 489.504 508.039 490.128L509.255 488.832C508.439 487.968 507.463 487.376 505.879 487.376C503.335 487.376 501.479 489.392 501.479 491.792V491.824C501.479 494.224 503.335 496.192 505.847 496.192ZM514.221 496.192C515.773 496.192 516.861 495.568 517.677 494.608L516.541 493.6C515.853 494.256 515.213 494.608 514.253 494.608C512.989 494.608 512.029 493.856 511.821 492.464H518.029C518.045 492.272 518.061 492.096 518.061 491.92C518.061 489.488 516.701 487.376 514.013 487.376C511.597 487.376 509.885 489.344 509.885 491.776V491.808C509.885 494.416 511.789 496.192 514.221 496.192ZM511.805 491.184C511.981 489.856 512.797 488.96 513.997 488.96C515.277 488.96 516.013 489.952 516.141 491.184H511.805ZM522.401 496.16C524.161 496.16 525.537 495.28 525.537 493.504V493.472C525.537 491.952 524.129 491.392 522.913 491.008C521.921 490.704 521.009 490.416 521.009 489.808V489.776C521.009 489.312 521.441 488.944 522.193 488.944C522.897 488.944 523.761 489.248 524.577 489.744L525.345 488.368C524.449 487.776 523.313 487.408 522.241 487.408C520.561 487.408 519.233 488.384 519.233 490V490.032C519.233 491.632 520.641 492.16 521.873 492.496C522.865 492.8 523.761 493.04 523.761 493.68V493.712C523.761 494.272 523.281 494.624 522.449 494.624C521.569 494.624 520.625 494.272 519.681 493.584L518.817 494.896C519.889 495.744 521.185 496.16 522.401 496.16ZM529.76 496.16C531.52 496.16 532.896 495.28 532.896 493.504V493.472C532.896 491.952 531.488 491.392 530.272 491.008C529.28 490.704 528.368 490.416 528.368 489.808V489.776C528.368 489.312 528.8 488.944 529.552 488.944C530.256 488.944 531.12 489.248 531.936 489.744L532.704 488.368C531.808 487.776 530.672 487.408 529.6 487.408C527.92 487.408 526.592 488.384 526.592 490V490.032C526.592 491.632 528 492.16 529.232 492.496C530.224 492.8 531.12 493.04 531.12 493.68V493.712C531.12 494.272 530.64 494.624 529.808 494.624C528.928 494.624 527.984 494.272 527.04 493.584L526.176 494.896C527.248 495.744 528.544 496.16 529.76 496.16ZM541.637 496H543.605V486.624H547.173V484.8H538.069V486.624H541.637V496ZM550.709 496.192C553.317 496.192 555.237 494.176 555.237 491.792V491.76C555.237 489.344 553.349 487.376 550.741 487.376C548.149 487.376 546.229 489.376 546.229 491.792V491.824C546.229 494.224 548.133 496.192 550.709 496.192ZM550.741 494.496C549.253 494.496 548.165 493.264 548.165 491.792V491.76C548.165 490.288 549.157 489.072 550.709 489.072C552.229 489.072 553.301 490.304 553.301 491.792V491.824C553.301 493.28 552.325 494.496 550.741 494.496ZM556.692 496H558.644V493.584L559.844 492.336L562.34 496H564.612L561.14 490.992L564.5 487.552H562.148L558.644 491.296V484.32H556.692V496ZM568.986 496.192C570.538 496.192 571.626 495.568 572.442 494.608L571.306 493.6C570.618 494.256 569.978 494.608 569.018 494.608C567.754 494.608 566.794 493.856 566.586 492.464H572.794C572.81 492.272 572.826 492.096 572.826 491.92C572.826 489.488 571.466 487.376 568.778 487.376C566.362 487.376 564.65 489.344 564.65 491.776V491.808C564.65 494.416 566.554 496.192 568.986 496.192ZM566.57 491.184C566.746 489.856 567.562 488.96 568.762 488.96C570.042 488.96 570.778 489.952 570.906 491.184H566.57ZM574.255 496H576.207V491.232C576.207 489.904 576.975 489.136 578.111 489.136C579.263 489.136 579.919 489.872 579.919 491.2V496H581.855V490.608C581.855 488.64 580.767 487.376 578.847 487.376C577.519 487.376 576.767 488.064 576.207 488.848V487.552H574.255V496Z" fill="black"></path><path d="M443.79 552.192C446.142 552.192 447.95 550.624 447.95 548.384V548.352C447.95 546.112 446.222 544.832 444.046 544.832C442.83 544.832 442.014 545.28 441.358 545.968C441.406 544.432 442.078 542.4 444.046 542.4C445.054 542.4 445.694 542.768 446.478 543.392L447.534 541.856C446.558 541.072 445.566 540.608 444.11 540.608C440.942 540.608 439.31 543.296 439.31 546.704V546.736C439.31 548.992 439.822 550.16 440.67 551.008C441.422 551.76 442.398 552.192 443.79 552.192ZM443.742 550.48C442.334 550.48 441.422 549.632 441.422 548.48V548.448C441.422 547.376 442.302 546.48 443.694 546.48C445.102 546.48 445.982 547.296 445.982 548.432V548.464C445.982 549.616 445.15 550.48 443.742 550.48ZM449.486 552H451.614V549.792H449.486V552ZM457.932 552H459.9V548.4H462.124C464.604 548.4 466.604 547.072 466.604 544.576V544.544C466.604 542.288 464.972 540.8 462.348 540.8H457.932V552ZM459.9 546.624V542.592H462.188C463.66 542.592 464.604 543.264 464.604 544.592V544.624C464.604 545.792 463.676 546.624 462.188 546.624H459.9ZM467.88 552H469.832V548.784C469.832 546.544 471 545.44 472.712 545.44H472.824V543.392C471.336 543.328 470.36 544.176 469.832 545.456V543.552H467.88V552ZM477.74 552.192C480.348 552.192 482.268 550.176 482.268 547.792V547.76C482.268 545.344 480.38 543.376 477.772 543.376C475.18 543.376 473.26 545.376 473.26 547.792V547.824C473.26 550.224 475.164 552.192 477.74 552.192ZM477.772 550.496C476.284 550.496 475.196 549.264 475.196 547.792V547.76C475.196 546.288 476.188 545.072 477.74 545.072C479.26 545.072 480.332 546.304 480.332 547.792V547.824C480.332 549.28 479.356 550.496 477.772 550.496ZM486.571 552.144C487.323 552.144 487.819 551.984 488.315 551.712V550.128C487.931 550.32 487.531 550.416 487.115 550.416C486.459 550.416 486.075 550.112 486.075 549.36V545.216H488.347V543.552H486.075V541.232H484.139V543.552H483.067V545.216H484.139V549.664C484.139 551.52 485.147 552.144 486.571 552.144ZM493.455 552.192C495.007 552.192 496.095 551.568 496.911 550.608L495.775 549.6C495.087 550.256 494.447 550.608 493.487 550.608C492.223 550.608 491.263 549.856 491.055 548.464H497.263C497.279 548.272 497.295 548.096 497.295 547.92C497.295 545.488 495.935 543.376 493.247 543.376C490.831 543.376 489.119 545.344 489.119 547.776V547.808C489.119 550.416 491.023 552.192 493.455 552.192ZM491.039 547.184C491.215 545.856 492.031 544.96 493.231 544.96C494.511 544.96 495.247 545.952 495.375 547.184H491.039ZM502.643 552.192C504.291 552.192 505.267 551.552 506.099 550.608L504.931 549.456C504.307 550.08 503.651 550.496 502.739 550.496C501.251 550.496 500.211 549.296 500.211 547.792V547.76C500.211 546.288 501.251 545.072 502.659 545.072C503.619 545.072 504.243 545.504 504.835 546.128L506.051 544.832C505.235 543.968 504.259 543.376 502.675 543.376C500.131 543.376 498.275 545.392 498.275 547.792V547.824C498.275 550.224 500.131 552.192 502.643 552.192ZM510.212 552.144C510.964 552.144 511.46 551.984 511.956 551.712V550.128C511.572 550.32 511.172 550.416 510.756 550.416C510.1 550.416 509.716 550.112 509.716 549.36V545.216H511.988V543.552H509.716V541.232H507.78V543.552H506.708V545.216H507.78V549.664C507.78 551.52 508.788 552.144 510.212 552.144ZM517.096 552.192C518.648 552.192 519.736 551.568 520.552 550.608L519.416 549.6C518.728 550.256 518.088 550.608 517.128 550.608C515.864 550.608 514.904 549.856 514.696 548.464H520.904C520.92 548.272 520.936 548.096 520.936 547.92C520.936 545.488 519.576 543.376 516.888 543.376C514.472 543.376 512.76 545.344 512.76 547.776V547.808C512.76 550.416 514.664 552.192 517.096 552.192ZM514.68 547.184C514.856 545.856 515.672 544.96 516.872 544.96C518.152 544.96 518.888 545.952 519.016 547.184H514.68ZM525.868 552.176C527.228 552.176 528.124 551.472 528.748 550.592V552H530.684V540.32H528.748V544.864C528.156 544.064 527.244 543.376 525.868 543.376C523.852 543.376 521.948 544.944 521.948 547.76V547.792C521.948 550.608 523.884 552.176 525.868 552.176ZM526.332 550.496C525.004 550.496 523.9 549.424 523.9 547.792V547.76C523.9 546.096 525.004 545.056 526.332 545.056C527.628 545.056 528.78 546.128 528.78 547.76V547.792C528.78 549.408 527.628 550.496 526.332 550.496ZM537.135 552H539.103V548.096H541.567L544.319 552H546.655L543.631 547.76C545.183 547.312 546.287 546.208 546.287 544.368V544.336C546.287 543.36 545.951 542.544 545.359 541.92C544.639 541.216 543.535 540.8 542.127 540.8H537.135V552ZM539.103 546.352V542.592H541.967C543.439 542.592 544.287 543.232 544.287 544.448V544.48C544.287 545.632 543.391 546.352 541.983 546.352H539.103ZM551.69 552.192C553.242 552.192 554.33 551.568 555.146 550.608L554.01 549.6C553.322 550.256 552.682 550.608 551.722 550.608C550.458 550.608 549.498 549.856 549.29 548.464H555.498C555.514 548.272 555.53 548.096 555.53 547.92C555.53 545.488 554.17 543.376 551.482 543.376C549.066 543.376 547.354 545.344 547.354 547.776V547.808C547.354 550.416 549.258 552.192 551.69 552.192ZM549.274 547.184C549.45 545.856 550.266 544.96 551.466 544.96C552.746 544.96 553.482 545.952 553.61 547.184H549.274ZM559.87 552.16C561.63 552.16 563.006 551.28 563.006 549.504V549.472C563.006 547.952 561.598 547.392 560.382 547.008C559.39 546.704 558.478 546.416 558.478 545.808V545.776C558.478 545.312 558.91 544.944 559.662 544.944C560.366 544.944 561.23 545.248 562.046 545.744L562.814 544.368C561.918 543.776 560.782 543.408 559.71 543.408C558.03 543.408 556.702 544.384 556.702 546V546.032C556.702 547.632 558.11 548.16 559.342 548.496C560.334 548.8 561.23 549.04 561.23 549.68V549.712C561.23 550.272 560.75 550.624 559.918 550.624C559.038 550.624 558.094 550.272 557.15 549.584L556.286 550.896C557.358 551.744 558.654 552.16 559.87 552.16ZM568.505 552.192C571.113 552.192 573.033 550.176 573.033 547.792V547.76C573.033 545.344 571.145 543.376 568.537 543.376C565.945 543.376 564.025 545.376 564.025 547.792V547.824C564.025 550.224 565.929 552.192 568.505 552.192ZM568.537 550.496C567.049 550.496 565.961 549.264 565.961 547.792V547.76C565.961 546.288 566.953 545.072 568.505 545.072C570.025 545.072 571.097 546.304 571.097 547.792V547.824C571.097 549.28 570.121 550.496 568.537 550.496ZM577.417 552.176C578.713 552.176 579.497 551.504 580.057 550.688V552H582.009V543.552H580.057V548.32C580.057 549.648 579.289 550.4 578.153 550.4C577.001 550.4 576.345 549.68 576.345 548.352V543.552H574.409V548.928C574.409 550.912 575.497 552.176 577.417 552.176ZM583.911 552H585.863V548.784C585.863 546.544 587.031 545.44 588.743 545.44H588.855V543.392C587.367 543.328 586.391 544.176 585.863 545.456V543.552H583.911V552ZM593.659 552.192C595.307 552.192 596.283 551.552 597.115 550.608L595.947 549.456C595.323 550.08 594.667 550.496 593.755 550.496C592.267 550.496 591.227 549.296 591.227 547.792V547.76C591.227 546.288 592.267 545.072 593.675 545.072C594.635 545.072 595.259 545.504 595.851 546.128L597.067 544.832C596.251 543.968 595.275 543.376 593.691 543.376C591.147 543.376 589.291 545.392 589.291 547.792V547.824C589.291 550.224 591.147 552.192 593.659 552.192ZM602.033 552.192C603.585 552.192 604.673 551.568 605.489 550.608L604.353 549.6C603.665 550.256 603.025 550.608 602.065 550.608C600.801 550.608 599.841 549.856 599.633 548.464H605.841C605.857 548.272 605.873 548.096 605.873 547.92C605.873 545.488 604.513 543.376 601.825 543.376C599.409 543.376 597.697 545.344 597.697 547.776V547.808C597.697 550.416 599.601 552.192 602.033 552.192ZM599.617 547.184C599.793 545.856 600.609 544.96 601.809 544.96C603.089 544.96 603.825 545.952 603.953 547.184H599.617Z" fill="black"></path><rect x="755.5" y="32.5" width="261" height="95" rx="6.5" fill="#4995CD" stroke="#4995CD" stroke-width="3"></rect><path d="M871.046 75.22C874.706 75.22 877.066 73.12 877.066 68.94V61H874.606V69.06C874.606 71.64 873.266 72.94 871.086 72.94C868.866 72.94 867.546 71.58 867.546 68.96V61H865.086V69.06C865.086 73.12 867.426 75.22 871.046 75.22ZM883.283 75.2C885.483 75.2 887.203 74.1 887.203 71.88V71.84C887.203 69.94 885.443 69.24 883.923 68.76C882.683 68.38 881.543 68.02 881.543 67.26V67.22C881.543 66.64 882.083 66.18 883.023 66.18C883.903 66.18 884.983 66.56 886.003 67.18L886.963 65.46C885.843 64.72 884.423 64.26 883.083 64.26C880.983 64.26 879.323 65.48 879.323 67.5V67.54C879.323 69.54 881.083 70.2 882.623 70.62C883.863 71 884.983 71.3 884.983 72.1V72.14C884.983 72.84 884.383 73.28 883.343 73.28C882.243 73.28 881.063 72.84 879.883 71.98L878.803 73.62C880.143 74.68 881.763 75.2 883.283 75.2ZM894.022 75.24C895.962 75.24 897.322 74.46 898.342 73.26L896.922 72C896.062 72.82 895.262 73.26 894.062 73.26C892.482 73.26 891.282 72.32 891.022 70.58H898.782C898.802 70.34 898.822 70.12 898.822 69.9C898.822 66.86 897.122 64.22 893.762 64.22C890.742 64.22 888.602 66.68 888.602 69.72V69.76C888.602 73.02 890.982 75.24 894.022 75.24ZM891.002 68.98C891.222 67.32 892.242 66.2 893.742 66.2C895.342 66.2 896.262 67.44 896.422 68.98H891.002ZM900.732 75H903.172V70.98C903.172 68.18 904.632 66.8 906.772 66.8H906.912V64.24C905.052 64.16 903.832 65.22 903.172 66.82V64.44H900.732V75ZM805.303 100.2C802.443 98.3 801.123 96.24 801.123 93.28V93.26C801.123 90.24 802.463 88.24 805.303 86.32L804.243 84.7C800.583 86.7 798.703 89.48 798.703 93.24V93.26C798.703 97.08 800.583 99.82 804.243 101.82L805.303 100.2ZM807.571 99H810.031V94.12H813.111L816.551 99H819.471L815.691 93.7C817.631 93.14 819.011 91.76 819.011 89.46V89.42C819.011 88.2 818.591 87.18 817.851 86.4C816.951 85.52 815.571 85 813.811 85H807.571V99ZM810.031 91.94V87.24H813.611C815.451 87.24 816.511 88.04 816.511 89.56V89.6C816.511 91.04 815.391 91.94 813.631 91.94H810.031ZM825.889 99.24C827.829 99.24 829.189 98.46 830.209 97.26L828.789 96C827.929 96.82 827.129 97.26 825.929 97.26C824.349 97.26 823.149 96.32 822.889 94.58H830.649C830.669 94.34 830.689 94.12 830.689 93.9C830.689 90.86 828.989 88.22 825.629 88.22C822.609 88.22 820.469 90.68 820.469 93.72V93.76C820.469 97.02 822.849 99.24 825.889 99.24ZM822.869 92.98C823.089 91.32 824.109 90.2 825.609 90.2C827.209 90.2 828.129 91.44 828.289 92.98H822.869ZM836.24 99.2C838.44 99.2 840.16 98.1 840.16 95.88V95.84C840.16 93.94 838.4 93.24 836.88 92.76C835.64 92.38 834.5 92.02 834.5 91.26V91.22C834.5 90.64 835.04 90.18 835.98 90.18C836.86 90.18 837.94 90.56 838.96 91.18L839.92 89.46C838.8 88.72 837.38 88.26 836.04 88.26C833.94 88.26 832.28 89.48 832.28 91.5V91.54C832.28 93.54 834.04 94.2 835.58 94.62C836.82 95 837.94 95.3 837.94 96.1V96.14C837.94 96.84 837.34 97.28 836.3 97.28C835.2 97.28 834.02 96.84 832.84 95.98L831.76 97.62C833.1 98.68 834.72 99.2 836.24 99.2ZM847.159 99.24C850.419 99.24 852.819 96.72 852.819 93.74V93.7C852.819 90.68 850.459 88.22 847.199 88.22C843.959 88.22 841.559 90.72 841.559 93.74V93.78C841.559 96.78 843.939 99.24 847.159 99.24ZM847.199 97.12C845.339 97.12 843.979 95.58 843.979 93.74V93.7C843.979 91.86 845.219 90.34 847.159 90.34C849.059 90.34 850.399 91.88 850.399 93.74V93.78C850.399 95.6 849.179 97.12 847.199 97.12ZM858.424 99.22C860.044 99.22 861.024 98.38 861.724 97.36V99H864.164V88.44H861.724V94.4C861.724 96.06 860.764 97 859.344 97C857.904 97 857.084 96.1 857.084 94.44V88.44H854.664V95.16C854.664 97.64 856.024 99.22 858.424 99.22ZM866.666 99H869.106V94.98C869.106 92.18 870.566 90.8 872.706 90.8H872.846V88.24C870.986 88.16 869.766 89.22 869.106 90.82V88.44H866.666V99ZM878.976 99.24C881.036 99.24 882.256 98.44 883.296 97.26L881.836 95.82C881.056 96.6 880.236 97.12 879.096 97.12C877.236 97.12 875.936 95.62 875.936 93.74V93.7C875.936 91.86 877.236 90.34 878.996 90.34C880.196 90.34 880.976 90.88 881.716 91.66L883.236 90.04C882.216 88.96 880.996 88.22 879.016 88.22C875.836 88.22 873.516 90.74 873.516 93.74V93.78C873.516 96.78 875.836 99.24 878.976 99.24ZM889.569 99.24C891.509 99.24 892.869 98.46 893.889 97.26L892.469 96C891.609 96.82 890.809 97.26 889.609 97.26C888.029 97.26 886.829 96.32 886.569 94.58H894.329C894.349 94.34 894.369 94.12 894.369 93.9C894.369 90.86 892.669 88.22 889.309 88.22C886.289 88.22 884.149 90.68 884.149 93.72V93.76C884.149 97.02 886.529 99.24 889.569 99.24ZM886.549 92.98C886.769 91.32 887.789 90.2 889.289 90.2C890.889 90.2 891.809 91.44 891.969 92.98H886.549ZM908.755 99.24C913.055 99.24 916.095 95.92 916.095 92V91.96C916.095 88.02 913.095 84.76 908.795 84.76C904.495 84.76 901.455 88.08 901.455 92V92.04C901.455 95.98 904.455 99.24 908.755 99.24ZM908.795 96.96C905.995 96.96 904.035 94.72 904.035 92V91.96C904.035 89.24 905.975 87.04 908.755 87.04C911.555 87.04 913.515 89.28 913.515 92V92.04C913.515 94.76 911.575 96.96 908.795 96.96ZM920.828 99.08H922.988L925.368 91.86L927.728 99.08H929.908L933.368 88.44H930.928L928.768 95.68L926.428 88.4H924.348L922.008 95.68L919.888 88.44H917.388L920.828 99.08ZM934.994 99H937.434V93.04C937.434 91.38 938.394 90.42 939.814 90.42C941.254 90.42 942.074 91.34 942.074 93V99H944.494V92.26C944.494 89.8 943.134 88.22 940.734 88.22C939.074 88.22 938.134 89.08 937.434 90.06V88.44H934.994V99ZM951.756 99.24C953.696 99.24 955.056 98.46 956.076 97.26L954.656 96C953.796 96.82 952.996 97.26 951.796 97.26C950.216 97.26 949.016 96.32 948.756 94.58H956.516C956.536 94.34 956.556 94.12 956.556 93.9C956.556 90.86 954.856 88.22 951.496 88.22C948.476 88.22 946.336 90.68 946.336 93.72V93.76C946.336 97.02 948.716 99.24 951.756 99.24ZM948.736 92.98C948.956 91.32 949.976 90.2 951.476 90.2C953.076 90.2 953.996 91.44 954.156 92.98H948.736ZM958.467 99H960.907V94.98C960.907 92.18 962.367 90.8 964.507 90.8H964.647V88.24C962.787 88.16 961.567 89.22 960.907 90.82V88.44H958.467V99ZM966.749 101.82C970.409 99.82 972.289 97.04 972.289 93.28V93.26C972.289 89.44 970.409 86.7 966.749 84.7L965.689 86.32C968.549 88.22 969.869 90.28 969.869 93.24V93.26C969.869 96.28 968.529 98.28 965.689 100.2L966.749 101.82Z" fill="white"></path><path d="M871.046 75.22C874.706 75.22 877.066 73.12 877.066 68.94V61H874.606V69.06C874.606 71.64 873.266 72.94 871.086 72.94C868.866 72.94 867.546 71.58 867.546 68.96V61H865.086V69.06C865.086 73.12 867.426 75.22 871.046 75.22ZM883.283 75.2C885.483 75.2 887.203 74.1 887.203 71.88V71.84C887.203 69.94 885.443 69.24 883.923 68.76C882.683 68.38 881.543 68.02 881.543 67.26V67.22C881.543 66.64 882.083 66.18 883.023 66.18C883.903 66.18 884.983 66.56 886.003 67.18L886.963 65.46C885.843 64.72 884.423 64.26 883.083 64.26C880.983 64.26 879.323 65.48 879.323 67.5V67.54C879.323 69.54 881.083 70.2 882.623 70.62C883.863 71 884.983 71.3 884.983 72.1V72.14C884.983 72.84 884.383 73.28 883.343 73.28C882.243 73.28 881.063 72.84 879.883 71.98L878.803 73.62C880.143 74.68 881.763 75.2 883.283 75.2ZM894.022 75.24C895.962 75.24 897.322 74.46 898.342 73.26L896.922 72C896.062 72.82 895.262 73.26 894.062 73.26C892.482 73.26 891.282 72.32 891.022 70.58H898.782C898.802 70.34 898.822 70.12 898.822 69.9C898.822 66.86 897.122 64.22 893.762 64.22C890.742 64.22 888.602 66.68 888.602 69.72V69.76C888.602 73.02 890.982 75.24 894.022 75.24ZM891.002 68.98C891.222 67.32 892.242 66.2 893.742 66.2C895.342 66.2 896.262 67.44 896.422 68.98H891.002ZM900.732 75H903.172V70.98C903.172 68.18 904.632 66.8 906.772 66.8H906.912V64.24C905.052 64.16 903.832 65.22 903.172 66.82V64.44H900.732V75ZM805.303 100.2C802.443 98.3 801.123 96.24 801.123 93.28V93.26C801.123 90.24 802.463 88.24 805.303 86.32L804.243 84.7C800.583 86.7 798.703 89.48 798.703 93.24V93.26C798.703 97.08 800.583 99.82 804.243 101.82L805.303 100.2ZM807.571 99H810.031V94.12H813.111L816.551 99H819.471L815.691 93.7C817.631 93.14 819.011 91.76 819.011 89.46V89.42C819.011 88.2 818.591 87.18 817.851 86.4C816.951 85.52 815.571 85 813.811 85H807.571V99ZM810.031 91.94V87.24H813.611C815.451 87.24 816.511 88.04 816.511 89.56V89.6C816.511 91.04 815.391 91.94 813.631 91.94H810.031ZM825.889 99.24C827.829 99.24 829.189 98.46 830.209 97.26L828.789 96C827.929 96.82 827.129 97.26 825.929 97.26C824.349 97.26 823.149 96.32 822.889 94.58H830.649C830.669 94.34 830.689 94.12 830.689 93.9C830.689 90.86 828.989 88.22 825.629 88.22C822.609 88.22 820.469 90.68 820.469 93.72V93.76C820.469 97.02 822.849 99.24 825.889 99.24ZM822.869 92.98C823.089 91.32 824.109 90.2 825.609 90.2C827.209 90.2 828.129 91.44 828.289 92.98H822.869ZM836.24 99.2C838.44 99.2 840.16 98.1 840.16 95.88V95.84C840.16 93.94 838.4 93.24 836.88 92.76C835.64 92.38 834.5 92.02 834.5 91.26V91.22C834.5 90.64 835.04 90.18 835.98 90.18C836.86 90.18 837.94 90.56 838.96 91.18L839.92 89.46C838.8 88.72 837.38 88.26 836.04 88.26C833.94 88.26 832.28 89.48 832.28 91.5V91.54C832.28 93.54 834.04 94.2 835.58 94.62C836.82 95 837.94 95.3 837.94 96.1V96.14C837.94 96.84 837.34 97.28 836.3 97.28C835.2 97.28 834.02 96.84 832.84 95.98L831.76 97.62C833.1 98.68 834.72 99.2 836.24 99.2ZM847.159 99.24C850.419 99.24 852.819 96.72 852.819 93.74V93.7C852.819 90.68 850.459 88.22 847.199 88.22C843.959 88.22 841.559 90.72 841.559 93.74V93.78C841.559 96.78 843.939 99.24 847.159 99.24ZM847.199 97.12C845.339 97.12 843.979 95.58 843.979 93.74V93.7C843.979 91.86 845.219 90.34 847.159 90.34C849.059 90.34 850.399 91.88 850.399 93.74V93.78C850.399 95.6 849.179 97.12 847.199 97.12ZM858.424 99.22C860.044 99.22 861.024 98.38 861.724 97.36V99H864.164V88.44H861.724V94.4C861.724 96.06 860.764 97 859.344 97C857.904 97 857.084 96.1 857.084 94.44V88.44H854.664V95.16C854.664 97.64 856.024 99.22 858.424 99.22ZM866.666 99H869.106V94.98C869.106 92.18 870.566 90.8 872.706 90.8H872.846V88.24C870.986 88.16 869.766 89.22 869.106 90.82V88.44H866.666V99ZM878.976 99.24C881.036 99.24 882.256 98.44 883.296 97.26L881.836 95.82C881.056 96.6 880.236 97.12 879.096 97.12C877.236 97.12 875.936 95.62 875.936 93.74V93.7C875.936 91.86 877.236 90.34 878.996 90.34C880.196 90.34 880.976 90.88 881.716 91.66L883.236 90.04C882.216 88.96 880.996 88.22 879.016 88.22C875.836 88.22 873.516 90.74 873.516 93.74V93.78C873.516 96.78 875.836 99.24 878.976 99.24ZM889.569 99.24C891.509 99.24 892.869 98.46 893.889 97.26L892.469 96C891.609 96.82 890.809 97.26 889.609 97.26C888.029 97.26 886.829 96.32 886.569 94.58H894.329C894.349 94.34 894.369 94.12 894.369 93.9C894.369 90.86 892.669 88.22 889.309 88.22C886.289 88.22 884.149 90.68 884.149 93.72V93.76C884.149 97.02 886.529 99.24 889.569 99.24ZM886.549 92.98C886.769 91.32 887.789 90.2 889.289 90.2C890.889 90.2 891.809 91.44 891.969 92.98H886.549ZM908.755 99.24C913.055 99.24 916.095 95.92 916.095 92V91.96C916.095 88.02 913.095 84.76 908.795 84.76C904.495 84.76 901.455 88.08 901.455 92V92.04C901.455 95.98 904.455 99.24 908.755 99.24ZM908.795 96.96C905.995 96.96 904.035 94.72 904.035 92V91.96C904.035 89.24 905.975 87.04 908.755 87.04C911.555 87.04 913.515 89.28 913.515 92V92.04C913.515 94.76 911.575 96.96 908.795 96.96ZM920.828 99.08H922.988L925.368 91.86L927.728 99.08H929.908L933.368 88.44H930.928L928.768 95.68L926.428 88.4H924.348L922.008 95.68L919.888 88.44H917.388L920.828 99.08ZM934.994 99H937.434V93.04C937.434 91.38 938.394 90.42 939.814 90.42C941.254 90.42 942.074 91.34 942.074 93V99H944.494V92.26C944.494 89.8 943.134 88.22 940.734 88.22C939.074 88.22 938.134 89.08 937.434 90.06V88.44H934.994V99ZM951.756 99.24C953.696 99.24 955.056 98.46 956.076 97.26L954.656 96C953.796 96.82 952.996 97.26 951.796 97.26C950.216 97.26 949.016 96.32 948.756 94.58H956.516C956.536 94.34 956.556 94.12 956.556 93.9C956.556 90.86 954.856 88.22 951.496 88.22C948.476 88.22 946.336 90.68 946.336 93.72V93.76C946.336 97.02 948.716 99.24 951.756 99.24ZM948.736 92.98C948.956 91.32 949.976 90.2 951.476 90.2C953.076 90.2 953.996 91.44 954.156 92.98H948.736ZM958.467 99H960.907V94.98C960.907 92.18 962.367 90.8 964.507 90.8H964.647V88.24C962.787 88.16 961.567 89.22 960.907 90.82V88.44H958.467V99ZM966.749 101.82C970.409 99.82 972.289 97.04 972.289 93.28V93.26C972.289 89.44 970.409 86.7 966.749 84.7L965.689 86.32C968.549 88.22 969.869 90.28 969.869 93.24V93.26C969.869 96.28 968.529 98.28 965.689 100.2L966.749 101.82Z" fill="url(#paint4_linear_2556_14111)"></path><defs><linearGradient id="paint0_linear_2556_14111" x1="524.5" y1="0" x2="524.5" y2="598" gradientUnits="userSpaceOnUse"><stop stop-color="white"></stop><stop offset="1" stop-color="white" stop-opacity="0"></stop></linearGradient><linearGradient id="paint1_linear_2556_14111" x1="885.5" y1="494" x2="885.5" y2="542" gradientUnits="userSpaceOnUse"><stop stop-color="white"></stop><stop offset="1" stop-color="white" stop-opacity="0"></stop></linearGradient><linearGradient id="paint2_linear_2556_14111" x1="886" y1="275" x2="886" y2="323" gradientUnits="userSpaceOnUse"><stop stop-color="white"></stop><stop offset="1" stop-color="white" stop-opacity="0"></stop></linearGradient><linearGradient id="paint3_linear_2556_14111" x1="163" y1="275" x2="163" y2="323" gradientUnits="userSpaceOnUse"><stop stop-color="white"></stop><stop offset="1" stop-color="white" stop-opacity="0"></stop></linearGradient><linearGradient id="paint4_linear_2556_14111" x1="885.5" y1="56" x2="885.5" y2="104" gradientUnits="userSpaceOnUse"><stop stop-color="white"></stop><stop offset="1" stop-color="white" stop-opacity="0"></stop></linearGradient></defs></svg> 